CommonSans-ExpandedBlack.ufo
<glyph name="quotedbl" format="2">
  <advance width="391"/>
  <unicode hex="0022"/>
  <outline>
    <contour>
      <point x="19" y="450" type="line"/>
      <point x="161" y="450" type="line"/>
      <point x="170" y="580" type="line"/>
      <point x="170" y="690" type="line"/>
      <point x="10" y="690" type="line"/>
      <point x="10" y="580" type="line"/>
    </contour>
    <contour>
      <point x="229" y="450" type="line"/>
      <point x="371" y="450" type="line"/>
      <point x="380" y="580" type="line"/>
      <point x="380" y="690" type="line"/>
      <point x="220" y="690" type="line"/>
      <point x="220" y="580" type="line"/>
    </contour>
  </outline>
</glyph>
<glyph name="asterisk" format="2">
  <advance width="528"/>
  <unicode hex="002A"/>
  <outline>
    <contour>
      <point x="40" y="707" type="line"/>
      <point x="264" y="644" type="line"/>
      <point x="276" y="660" type="line"/>
      <point x="146" y="853" type="line"/>
    </contour>
    <contour>
      <point x="146" y="451" type="line"/>
      <point x="276" y="644" type="line"/>
      <point x="264" y="661" type="line"/>
      <point x="41" y="597" type="line"/>
    </contour>
    <contour>
      <point x="423" y="472" type="line"/>
      <point x="280" y="655" type="line"/>
      <point x="261" y="649" type="line"/>
      <point x="252" y="417" type="line"/>
    </contour>
    <contour>
      <point x="488" y="742" type="line"/>
      <point x="270" y="662" type="line"/>
      <point x="270" y="642" type="line"/>
      <point x="488" y="562" type="line"/>
    </contour>
    <contour>
      <point x="252" y="887" type="line"/>
      <point x="260" y="655" type="line"/>
      <point x="280" y="649" type="line"/>
      <point x="423" y="831" type="line"/>
    </contour>
  </outline>
</glyph>
<glyph name="plus" format="2">
  <advance width="470"/>
  <unicode hex="002B"/>
  <outline>
    <contour>
      <point x="40" y="160" type="line"/>
      <point x="430" y="160" type="line"/>
      <point x="430" y="320" type="line"/>
      <point x="40" y="320" type="line"/>
    </contour>
    <contour>
      <point x="155" y="45" type="line"/>
      <point x="315" y="45" type="line"/>
      <point x="315" y="435" type="line"/>
      <point x="155" y="435" type="line"/>
    </contour>
  </outline>
</glyph>
<glyph name="hyphen" format="2">
  <advance width="442"/>
  <unicode hex="002D"/>
  <outline>
    <contour>
      <point x="40" y="163" type="line"/>
      <point x="402" y="163" type="line"/>
      <point x="402" y="323" type="line"/>
      <point x="40" y="323" type="line"/>
    </contour>
  </outline>
</glyph>
<glyph name="zero" format="2">
  <advance width="820"/>
  <unicode hex="0030"/>
  <outline>
    <contour>
      <point x="30" y="340" type="curve" smooth="yes"/>
      <point x="30" y="126"/>
      <point x="182" y="-16"/>
      <point x="410" y="-16" type="curve" smooth="yes"/>
      <point x="639" y="-16"/>
      <point x="790" y="126"/>
      <point x="790" y="340" type="curve" smooth="yes"/>
      <point x="790" y="553"/>
      <point x="637" y="696"/>
      <point x="410" y="696" type="curve" smooth="yes"/>
      <point x="182" y="696"/>
      <point x="30" y="554"/>
    </contour>
    <contour>
      <point x="233" y="340" type="curve" smooth="yes"/>
      <point x="233" y="458"/>
      <point x="304" y="536"/>
      <point x="410" y="536" type="curve" smooth="yes"/>
      <point x="516" y="536"/>
      <point x="587" y="457"/>
      <point x="587" y="340" type="curve" smooth="yes"/>
      <point x="587" y="223"/>
      <point x="516" y="144"/>
      <point x="410" y="144" type="curve" smooth="yes"/>
      <point x="304" y="144"/>
      <point x="233" y="222"/>
    </contour>
  </outline>
  <guideline angle="90" x="410" y="0"/>
  <guideline angle="0" x="0" y="340"/>
  <guideline angle="90" x="30" y="0"/>
  <guideline angle="90" x="790" y="0"/>
  <guideline angle="0" x="0" y="696"/>
  <guideline angle="0" x="0" y="536"/>
  <guideline angle="90" x="587" y="0"/>
  <guideline angle="90" x="233" y="0"/>
  <guideline angle="0" x="0" y="144"/>
  <guideline angle="0" x="0" y="-16"/>
</glyph>
<glyph name="one" format="2">
  <advance width="395"/>
  <unicode hex="0031"/>
  <outline>
    <contour>
      <point x="20" y="477" type="line"/>
      <point x="96" y="477"/>
      <point x="148" y="489"/>
      <point x="181" y="506" type="curve"/>
      <point x="157" y="514" type="line"/>
      <point x="157" y="0" type="line"/>
      <point x="355" y="0" type="line"/>
      <point x="355" y="680" type="line"/>
      <point x="218" y="680" type="line"/>
      <point x="176" y="636"/>
      <point x="126" y="614"/>
      <point x="20" y="614" type="curve"/>
    </contour>
  </outline>
</glyph>
<glyph name="two" format="2">
  <advance width="719"/>
  <unicode hex="0032"/>
  <outline>
    <contour>
      <point x="30" y="0" type="line"/>
      <point x="678" y="0" type="line"/>
      <point x="678" y="160" type="line"/>
      <point x="175" y="160" type="line"/>
      <point x="232" y="53" type="line"/>
      <point x="441" y="204"/>
      <point x="689" y="264"/>
      <point x="689" y="471" type="curve" smooth="yes"/>
      <point x="689" y="605"/>
      <point x="567" y="696"/>
      <point x="385" y="696" type="curve" smooth="yes"/>
      <point x="205" y="696"/>
      <point x="69" y="602"/>
      <point x="40" y="457" type="curve"/>
      <point x="253" y="457" type="line"/>
      <point x="266" y="509"/>
      <point x="320" y="536"/>
      <point x="382" y="536" type="curve" smooth="yes"/>
      <point x="442" y="536"/>
      <point x="486" y="509"/>
      <point x="486" y="471" type="curve" smooth="yes"/>
      <point x="486" y="367"/>
      <point x="155" y="238"/>
      <point x="30" y="133" type="curve"/>
    </contour>
  </outline>
  <guideline angle="90" x="689" y="0"/>
  <guideline angle="90" x="486" y="0"/>
  <guideline angle="0" x="0" y="696"/>
  <guideline angle="0" x="0" y="536"/>
  <guideline angle="258.627" x="75" y="631"/>
</glyph>
<glyph name="three" format="2">
  <advance width="744"/>
  <unicode hex="0033"/>
  <outline>
    <contour>
      <point x="34" y="200" type="line"/>
      <point x="54" y="70"/>
      <point x="198" y="-16"/>
      <point x="394" y="-16" type="curve" smooth="yes"/>
      <point x="586" y="-16"/>
      <point x="714" y="70"/>
      <point x="714" y="200" type="curve" smooth="yes"/>
      <point x="714" y="317"/>
      <point x="616" y="398"/>
      <point x="475" y="398" type="curve"/>
      <point x="475" y="352" type="line"/>
      <point x="611" y="352"/>
      <point x="684" y="408"/>
      <point x="684" y="512" type="curve" smooth="yes"/>
      <point x="684" y="622"/>
      <point x="560" y="696"/>
      <point x="373" y="696" type="curve" smooth="yes"/>
      <point x="198" y="696"/>
      <point x="62" y="605"/>
      <point x="34" y="470" type="curve"/>
      <point x="257" y="470" type="line"/>
      <point x="276" y="510"/>
      <point x="324" y="536"/>
      <point x="377" y="536" type="curve" smooth="yes"/>
      <point x="439" y="536"/>
      <point x="481" y="515"/>
      <point x="481" y="484" type="curve" smooth="yes"/>
      <point x="481" y="453"/>
      <point x="439" y="432"/>
      <point x="375" y="432" type="curve" smooth="yes"/>
      <point x="299" y="432" type="line"/>
      <point x="299" y="282" type="line"/>
      <point x="409" y="282" type="line" smooth="yes"/>
      <point x="470" y="282"/>
      <point x="511" y="253"/>
      <point x="511" y="210" type="curve" smooth="yes"/>
      <point x="511" y="170"/>
      <point x="465" y="144"/>
      <point x="395" y="144" type="curve" smooth="yes"/>
      <point x="324" y="144"/>
      <point x="269" y="167"/>
      <point x="257" y="200" type="curve"/>
    </contour>
  </outline>
  <guideline angle="90" x="684" y="0"/>
  <guideline angle="90" x="511" y="0"/>
  <guideline angle="0" x="0" y="-16"/>
  <guideline angle="0" x="0" y="144"/>
  <guideline angle="0" x="0" y="696"/>
  <guideline angle="258.354" x="61" y="601"/>
  <guideline angle="244.44" x="279" y="516"/>
  <guideline angle="0" x="0" y="536"/>
  <guideline angle="0" x="0" y="432"/>
  <guideline angle="0" x="0" y="282"/>
  <guideline angle="289.134" x="257" y="200"/>
  <guideline angle="278.746" x="34" y="200"/>
</glyph>
<glyph name="four" format="2">
  <advance width="688"/>
  <unicode hex="0034"/>
  <outline>
    <contour>
      <point x="20" y="143" type="line"/>
      <point x="678" y="143" type="line"/>
      <point x="678" y="303" type="line"/>
      <point x="75" y="303" type="line"/>
      <point x="149" y="165" type="line"/>
      <point x="562" y="649" type="line"/>
      <point x="420" y="649" type="line"/>
      <point x="420" y="0" type="line"/>
      <point x="618" y="0" type="line"/>
      <point x="618" y="680" type="line"/>
      <point x="368" y="680" type="line"/>
      <point x="20" y="283" type="line"/>
    </contour>
  </outline>
</glyph>
<glyph name="five" format="2">
  <advance width="720"/>
  <unicode hex="0035"/>
  <outline>
    <contour>
      <point x="50" y="212" type="line"/>
      <point x="68" y="76"/>
      <point x="207" y="-16"/>
      <point x="392" y="-16" type="curve" smooth="yes"/>
      <point x="572" y="-16"/>
      <point x="690" y="84"/>
      <point x="690" y="237" type="curve" smooth="yes"/>
      <point x="690" y="380"/>
      <point x="575" y="476"/>
      <point x="418" y="476" type="curve" smooth="yes"/>
      <point x="287" y="476"/>
      <point x="207" y="436"/>
      <point x="159" y="361" type="curve"/>
      <point x="252" y="361" type="line"/>
      <point x="252" y="545" type="line"/>
      <point x="231" y="520" type="line"/>
      <point x="649" y="520" type="line"/>
      <point x="649" y="680" type="line"/>
      <point x="54" y="680" type="line"/>
      <point x="54" y="281" type="line"/>
      <point x="290" y="281" type="line"/>
      <point x="305" y="302"/>
      <point x="340" y="316"/>
      <point x="381" y="316" type="curve" smooth="yes"/>
      <point x="446" y="316"/>
      <point x="487" y="283"/>
      <point x="487" y="235" type="curve" smooth="yes"/>
      <point x="487" y="180"/>
      <point x="445" y="144"/>
      <point x="380" y="144" type="curve" smooth="yes"/>
      <point x="331" y="144"/>
      <point x="295" y="167"/>
      <point x="273" y="212" type="curve"/>
    </contour>
  </outline>
</glyph>
<glyph name="six" format="2">
  <advance width="690"/>
  <unicode hex="0036"/>
  <outline>
    <contour>
      <point x="233" y="216" type="curve" smooth="yes"/>
      <point x="233" y="267"/>
      <point x="278" y="303"/>
      <point x="344" y="303" type="curve" smooth="yes"/>
      <point x="411" y="303"/>
      <point x="457" y="269"/>
      <point x="457" y="219" type="curve" smooth="yes"/>
      <point x="457" y="173"/>
      <point x="413" y="144"/>
      <point x="346" y="144" type="curve" smooth="yes"/>
      <point x="278" y="144"/>
      <point x="233" y="173"/>
    </contour>
    <contour>
      <point x="30" y="303" type="curve" smooth="yes"/>
      <point x="30" y="112"/>
      <point x="155" y="-16"/>
      <point x="342" y="-16" type="curve" smooth="yes"/>
      <point x="533" y="-16"/>
      <point x="660" y="79"/>
      <point x="660" y="223" type="curve" smooth="yes"/>
      <point x="660" y="361"/>
      <point x="562" y="453"/>
      <point x="415" y="453" type="curve" smooth="yes"/>
      <point x="336" y="453"/>
      <point x="278" y="436"/>
      <point x="243" y="401" type="curve"/>
      <point x="239" y="401" type="line"/>
      <point x="248" y="482"/>
      <point x="281" y="536"/>
      <point x="337" y="536" type="curve" smooth="yes"/>
      <point x="364" y="536"/>
      <point x="393" y="523"/>
      <point x="400" y="503" type="curve"/>
      <point x="624" y="503" type="line"/>
      <point x="597" y="619"/>
      <point x="480" y="696"/>
      <point x="330" y="696" type="curve" smooth="yes"/>
      <point x="149" y="696"/>
      <point x="30" y="526"/>
    </contour>
  </outline>
  <guideline angle="90" x="30" y="0"/>
  <guideline angle="0" x="0" y="696"/>
  <guideline angle="0" x="0" y="-16"/>
  <guideline angle="90" x="660" y="0"/>
  <guideline angle="0" x="0" y="453"/>
</glyph>
<glyph name="seven" format="2">
  <advance width="620"/>
  <unicode hex="0037"/>
  <outline>
    <contour>
      <point x="20" y="520" type="line"/>
      <point x="600" y="520" type="line"/>
      <point x="600" y="680" type="line"/>
      <point x="20" y="680" type="line"/>
    </contour>
    <contour>
      <point x="161" y="0" type="curve"/>
      <point x="359" y="0" type="line"/>
      <point x="359" y="233"/>
      <point x="442" y="361"/>
      <point x="600" y="520" type="curve"/>
      <point x="600" y="543" type="line"/>
      <point x="420" y="543" type="line"/>
      <point x="320" y="469"/>
      <point x="161" y="304"/>
    </contour>
  </outline>
</glyph>
<glyph name="eight" format="2">
  <advance width="740"/>
  <unicode hex="0038"/>
  <outline>
    <contour>
      <point x="30" y="200" type="curve" smooth="yes"/>
      <point x="30" y="70"/>
      <point x="165" y="-16"/>
      <point x="367" y="-16" type="curve" smooth="yes"/>
      <point x="573" y="-16"/>
      <point x="710" y="71"/>
      <point x="710" y="200" type="curve" smooth="yes"/>
      <point x="710" y="286"/>
      <point x="661" y="344"/>
      <point x="561" y="376" type="curve"/>
      <point x="558" y="365" type="line"/>
      <point x="652" y="383"/>
      <point x="690" y="422"/>
      <point x="690" y="499" type="curve" smooth="yes"/>
      <point x="690" y="617"/>
      <point x="561" y="696"/>
      <point x="367" y="696" type="curve" smooth="yes"/>
      <point x="174" y="696"/>
      <point x="45" y="617"/>
      <point x="45" y="499" type="curve" smooth="yes"/>
      <point x="45" y="423"/>
      <point x="79" y="384"/>
      <point x="162" y="365" type="curve"/>
      <point x="160" y="378" type="line"/>
      <point x="66" y="337"/>
      <point x="30" y="288"/>
    </contour>
    <contour>
      <point x="233" y="217" type="curve" smooth="yes"/>
      <point x="233" y="264"/>
      <point x="286" y="296"/>
      <point x="365" y="296" type="curve" smooth="yes"/>
      <point x="450" y="296"/>
      <point x="507" y="264"/>
      <point x="507" y="217" type="curve" smooth="yes"/>
      <point x="507" y="173"/>
      <point x="450" y="144"/>
      <point x="365" y="144" type="curve" smooth="yes"/>
      <point x="286" y="144"/>
      <point x="233" y="173"/>
    </contour>
    <contour>
      <point x="248" y="490" type="curve" smooth="yes"/>
      <point x="248" y="522"/>
      <point x="298" y="536"/>
      <point x="367" y="536" type="curve" smooth="yes"/>
      <point x="447" y="536"/>
      <point x="487" y="522"/>
      <point x="487" y="490" type="curve" smooth="yes"/>
      <point x="487" y="456"/>
      <point x="426" y="446"/>
      <point x="367" y="446" type="curve" smooth="yes"/>
      <point x="305" y="446"/>
      <point x="248" y="456"/>
    </contour>
  </outline>
  <guideline angle="90" x="30" y="0"/>
  <guideline angle="0" x="0" y="-16"/>
  <guideline angle="90" x="710" y="0"/>
  <guideline angle="0" x="0" y="696"/>
  <guideline angle="90" x="690" y="0"/>
  <guideline angle="90" x="45" y="0"/>
  <guideline angle="0" x="0" y="296"/>
  <guideline angle="0" x="0" y="144"/>
  <guideline angle="90" x="233" y="0"/>
  <guideline angle="90" x="507" y="0"/>
</glyph>
<glyph name="nine" format="2">
  <advance width="691"/>
  <unicode hex="0039"/>
  <outline>
    <contour>
      <point x="234" y="467" type="curve" smooth="yes"/>
      <point x="234" y="508"/>
      <point x="278" y="536"/>
      <point x="344" y="536" type="curve" smooth="yes"/>
      <point x="412" y="536"/>
      <point x="457" y="507"/>
      <point x="457" y="463" type="curve" smooth="yes"/>
      <point x="457" y="423"/>
      <point x="413" y="397"/>
      <point x="350" y="397" type="curve" smooth="yes"/>
      <point x="279" y="397"/>
      <point x="234" y="425"/>
    </contour>
    <contour>
      <point x="63" y="187" type="line"/>
      <point x="90" y="64"/>
      <point x="203" y="-16"/>
      <point x="344" y="-16" type="curve" smooth="yes"/>
      <point x="534" y="-16"/>
      <point x="661" y="142"/>
      <point x="661" y="379" type="curve" smooth="yes"/>
      <point x="661" y="569"/>
      <point x="528" y="696"/>
      <point x="329" y="696" type="curve" smooth="yes"/>
      <point x="149" y="696"/>
      <point x="30" y="604"/>
      <point x="30" y="467" type="curve" smooth="yes"/>
      <point x="30" y="325"/>
      <point x="144" y="247"/>
      <point x="279" y="247" type="curve" smooth="yes"/>
      <point x="358" y="247"/>
      <point x="417" y="264"/>
      <point x="449" y="299" type="curve"/>
      <point x="454" y="299" type="line"/>
      <point x="446" y="199"/>
      <point x="415" y="144"/>
      <point x="355" y="144" type="curve" smooth="yes"/>
      <point x="322" y="144"/>
      <point x="292" y="162"/>
      <point x="285" y="187" type="curve"/>
    </contour>
  </outline>
  <guideline angle="90" x="30" y="0"/>
  <guideline angle="90" x="661" y="0"/>
  <guideline angle="0" x="0" y="696"/>
  <guideline angle="0" x="0" y="-16"/>
  <guideline angle="0" x="0" y="536"/>
  <guideline angle="0" x="0" y="397"/>
  <guideline angle="90" x="266" y="0"/>
  <guideline angle="90" x="425" y="0"/>
</glyph>
<glyph name="question" format="2">
  <advance width="715"/>
  <unicode hex="003F"/>
  <outline>
    <contour>
      <point x="40" y="480" type="curve"/>
      <point x="243" y="480" type="line"/>
      <point x="243" y="522"/>
      <point x="290.151" y="550"/>
      <point x="360.876" y="550" type="curve" smooth="yes"/>
      <point x="427.55" y="550"/>
      <point x="472" y="524"/>
      <point x="472" y="485" type="curve" smooth="yes"/>
      <point x="472" y="399"/>
      <point x="260" y="424"/>
      <point x="260" y="250" type="curve" smooth="yes"/>
      <point x="260" y="210" type="line"/>
      <point x="458" y="210" type="line"/>
      <point x="458" y="250" type="line" smooth="yes"/>
      <point x="458" y="312.662"/>
      <point x="675" y="340"/>
      <point x="675" y="509" type="curve" smooth="yes"/>
      <point x="675" y="629.6"/>
      <point x="547.398" y="710"/>
      <point x="355.995" y="710" type="curve" smooth="yes"/>
      <point x="166.398" y="710"/>
      <point x="40" y="618"/>
    </contour>
    <contour>
      <point x="260" y="0" type="line"/>
      <point x="458" y="0" type="line"/>
      <point x="458" y="160" type="line"/>
      <point x="260" y="160" type="line"/>
    </contour>
  </outline>
  <guideline angle="90" x="260" y="0"/>
  <guideline angle="90" x="420" y="0"/>
</glyph>
<glyph name="at" format="2">
  <advance width="1169"/>
  <unicode hex="0040"/>
  <outline>
    <contour>
      <point x="526.25" y="207.74" type="curve" smooth="yes"/>
      <point x="526.29" y="264.31"/>
      <point x="563.99" y="329.84"/>
      <point x="612.34" y="329.7" type="curve" smooth="yes"/>
      <point x="639.04" y="329.62"/>
      <point x="666.5" y="313.44"/>
      <point x="674.51" y="294.76" type="curve"/>
      <point x="650.57" y="184.21" type="line" smooth="yes"/>
      <point x="646.82" y="166.89"/>
      <point x="620.24" y="129.24"/>
      <point x="582.42" y="129.15" type="curve" smooth="yes"/>
      <point x="544.32" y="129.05"/>
      <point x="526.23" y="164.64"/>
    </contour>
    <contour>
      <point x="30" y="218.345" type="curve" smooth="yes"/>
      <point x="30" y="-32.6621"/>
      <point x="230.199" y="-200"/>
      <point x="530.499" y="-200" type="curve" smooth="yes"/>
      <point x="629.554" y="-200"/>
      <point x="746.776" y="-182.089"/>
      <point x="823.554" y="-144.723" type="curve"/>
      <point x="779.018" y="-31.6352" type="line"/>
      <point x="712.549" y="-63.3152"/>
      <point x="646.771" y="-69.6852"/>
      <point x="566.052" y="-69.6852" type="curve" smooth="yes"/>
      <point x="361.107" y="-69.6852"/>
      <point x="224.477" y="28.6439"/>
      <point x="224.477" y="215.365" type="curve" smooth="yes"/>
      <point x="224.477" y="410.109"/>
      <point x="365.305" y="539.938"/>
      <point x="576.547" y="539.938" type="curve" smooth="yes"/>
      <point x="797.729" y="539.938"/>
      <point x="945.185" y="447.883"/>
      <point x="945.185" y="309.799" type="curve" smooth="yes"/>
      <point x="945.185" y="243.081"/>
      <point x="903.945" y="133.955"/>
      <point x="857.964" y="133.972" type="curve" smooth="yes"/>
      <point x="828.198" y="133.985"/>
      <point x="818.534" y="162.268"/>
      <point x="818.534" y="189.865" type="curve" smooth="yes"/>
      <point x="818.534" y="211.092"/>
      <point x="824.31" y="240.398"/>
      <point x="833.917" y="274.054" type="curve" smooth="yes"/>
      <point x="876.97" y="424.894" type="line"/>
      <point x="728.125" y="424.894" type="line"/>
      <point x="683.144" y="384.969" type="line"/>
      <point x="710.252" y="384.937" type="line"/>
      <point x="684.341" y="419.216"/>
      <point x="631.628" y="448.085"/>
      <point x="565.181" y="448.085" type="curve" smooth="yes"/>
      <point x="434.073" y="448.085"/>
      <point x="332.752" y="346.665"/>
      <point x="332.752" y="194.534" type="curve" smooth="yes"/>
      <point x="332.752" y="81.6626"/>
      <point x="404.956" y="6.41478"/>
      <point x="513.263" y="6.41478" type="curve" smooth="yes"/>
      <point x="608.277" y="6.41478"/>
      <point x="666.242" y="54.8495"/>
      <point x="707.615" y="127.502" type="curve"/>
      <point x="654.673" y="127.502" type="line"/>
      <point x="653.137" y="120.6"/>
      <point x="652.644" y="113.401"/>
      <point x="652.654" y="107.217" type="curve" smooth="yes"/>
      <point x="652.76" y="38.6183"/>
      <point x="745.95" y="6.41477"/>
      <point x="814.601" y="6.41477" type="curve" smooth="yes"/>
      <point x="1009.98" y="6.41477"/>
      <point x="1138.83" y="121.489"/>
      <point x="1138.83" y="305.473" type="curve" smooth="yes"/>
      <point x="1138.83" y="521.789"/>
      <point x="915.716" y="666"/>
      <point x="581.045" y="666" type="curve" smooth="yes"/>
      <point x="250.418" y="666"/>
      <point x="30" y="486.938"/>
    </contour>
  </outline>
</glyph>
<glyph name="A" format="2">
  <advance width="783"/>
  <unicode hex="0041"/>
  <anchor x="392" y="740" name="top"/>
  <anchor x="392" y="617" name="t.ring"/>
  <anchor x="392" y="-40" name="bottom"/>
  <anchor x="691" y="0" name="b.ogonek"/>
  <outline>
    <contour>
      <point x="199" y="125" type="line"/>
      <point x="588" y="125" type="line"/>
      <point x="588" y="285" type="line"/>
      <point x="199" y="285" type="line"/>
    </contour>
    <contour>
      <point x="10" y="0" type="line"/>
      <point x="210" y="0" type="line"/>
      <point x="343" y="348" type="line"/>
      <point x="440" y="634" type="line"/>
      <point x="343" y="634" type="line"/>
      <point x="440" y="348" type="line"/>
      <point x="573" y="0" type="line"/>
      <point x="773" y="0" type="line"/>
      <point x="510" y="680" type="line"/>
      <point x="270" y="680" type="line"/>
    </contour>
  </outline>
  <guideline angle="290.893" x="318" y="634"/>
  <guideline angle="90" x="392" y="0"/>
  <guideline angle="69.1036" x="-2" y="0"/>
  <guideline angle="249.107" x="466" y="634"/>
  <guideline angle="290.896" x="523" y="680"/>
</glyph>
<glyph name="B" format="2">
  <advance width="666"/>
  <unicode hex="0042"/>
  <anchor x="313" y="740" name="top"/>
  <anchor x="313" y="-50" name="bottom"/>
  <outline>
    <contour>
      <point x="50" y="0" type="line"/>
      <point x="248" y="0" type="line"/>
      <point x="248" y="680" type="line"/>
      <point x="50" y="680" type="line"/>
    </contour>
    <contour>
      <point x="138" y="0" type="line"/>
      <point x="380" y="0" type="line" smooth="yes"/>
      <point x="534" y="0"/>
      <point x="636" y="86"/>
      <point x="636" y="214" type="curve" smooth="yes"/>
      <point x="636" y="320"/>
      <point x="555" y="398"/>
      <point x="434" y="410" type="curve"/>
      <point x="530" y="291" type="line"/>
      <point x="530" y="450" type="line"/>
      <point x="410" y="308" type="line"/>
      <point x="526" y="333"/>
      <point x="603" y="410"/>
      <point x="603" y="500" type="curve" smooth="yes"/>
      <point x="603" y="626"/>
      <point x="526" y="680"/>
      <point x="347" y="680" type="curve" smooth="yes"/>
      <point x="138" y="680" type="line"/>
      <point x="138" y="520" type="line"/>
      <point x="347" y="520" type="line" smooth="yes"/>
      <point x="382" y="520"/>
      <point x="405" y="502"/>
      <point x="405" y="474" type="curve" smooth="yes"/>
      <point x="405" y="447"/>
      <point x="380" y="427"/>
      <point x="347" y="427" type="curve" smooth="yes"/>
      <point x="138" y="427" type="line"/>
      <point x="138" y="267" type="line"/>
      <point x="371" y="267" type="line" smooth="yes"/>
      <point x="414" y="267"/>
      <point x="438" y="249"/>
      <point x="438" y="215" type="curve" smooth="yes"/>
      <point x="438" y="183"/>
      <point x="409" y="160"/>
      <point x="371" y="160" type="curve" smooth="yes"/>
      <point x="138" y="160" type="line"/>
    </contour>
  </outline>
  <guideline angle="0" x="0" y="42"/>
  <guideline angle="0" x="0" y="654"/>
  <guideline angle="0" x="0" y="382"/>
  <guideline angle="0" x="0" y="360"/>
  <guideline angle="0" x="0" y="160"/>
  <guideline angle="0" x="0" y="520"/>
  <guideline angle="90" x="313" y="0"/>
</glyph>
<glyph name="C" format="2">
  <advance width="810"/>
  <unicode hex="0043"/>
  <anchor x="419" y="740" name="top"/>
  <anchor x="419" y="-60" name="bottom"/>
  <anchor x="388" y="0" name="b.cedilla"/>
  <outline>
    <contour>
      <point x="30" y="340" type="curve" smooth="yes"/>
      <point x="30" y="126"/>
      <point x="185" y="-16"/>
      <point x="418" y="-16" type="curve" smooth="yes"/>
      <point x="602" y="-16"/>
      <point x="754" y="87"/>
      <point x="780" y="228" type="curve"/>
      <point x="577" y="228" type="line"/>
      <point x="563" y="182"/>
      <point x="491" y="144"/>
      <point x="418" y="144" type="curve" smooth="yes"/>
      <point x="309" y="144"/>
      <point x="233" y="225"/>
      <point x="233" y="340" type="curve" smooth="yes"/>
      <point x="233" y="455"/>
      <point x="309" y="536"/>
      <point x="418" y="536" type="curve" smooth="yes"/>
      <point x="492" y="536"/>
      <point x="558" y="496"/>
      <point x="577" y="440" type="curve"/>
      <point x="780" y="440" type="line"/>
      <point x="753" y="591"/>
      <point x="604" y="696"/>
      <point x="418" y="696" type="curve" smooth="yes"/>
      <point x="185" y="696"/>
      <point x="30" y="554"/>
    </contour>
  </outline>
  <guideline angle="90" name="h_1" x="419" y="0"/>
</glyph>
<glyph name="D" format="2">
  <advance width="753"/>
  <unicode hex="0044"/>
  <anchor x="351" y="740" name="top"/>
  <anchor x="351" y="-40" name="bottom"/>
  <anchor x="303" y="0" name="b.cedilla"/>
  <outline>
    <contour>
      <point x="50" y="0" type="line"/>
      <point x="248" y="0" type="line"/>
      <point x="248" y="680" type="line"/>
      <point x="50" y="680" type="line"/>
    </contour>
    <contour>
      <point x="163" y="0" type="line"/>
      <point x="360" y="0" type="line" smooth="yes"/>
      <point x="590" y="0"/>
      <point x="723" y="113"/>
      <point x="723" y="340" type="curve" smooth="yes"/>
      <point x="723" y="564"/>
      <point x="588" y="680"/>
      <point x="360" y="680" type="curve" smooth="yes"/>
      <point x="163" y="680" type="line"/>
      <point x="163" y="520" type="line"/>
      <point x="360" y="520" type="line" smooth="yes"/>
      <point x="453" y="520"/>
      <point x="526" y="483"/>
      <point x="526" y="340" type="curve" smooth="yes"/>
      <point x="526" y="233"/>
      <point x="451" y="160"/>
      <point x="360" y="160" type="curve" smooth="yes"/>
      <point x="163" y="160" type="line"/>
    </contour>
  </outline>
  <guideline angle="90" name="h_1" x="351" y="0"/>
</glyph>
<glyph name="E" format="2">
  <advance width="611"/>
  <unicode hex="0045"/>
  <anchor x="305" y="740" name="top"/>
  <anchor x="305" y="-40" name="bottom"/>
  <anchor x="305" y="0" name="b.cedilla"/>
  <anchor x="547" y="-0" name="b.ogonek"/>
  <outline>
    <contour>
      <point x="50" y="0" type="line"/>
      <point x="248" y="0" type="line"/>
      <point x="248" y="680" type="line"/>
      <point x="50" y="680" type="line"/>
    </contour>
    <contour>
      <point x="137" y="520" type="line"/>
      <point x="547" y="520" type="line"/>
      <point x="547" y="680" type="line"/>
      <point x="137" y="680" type="line"/>
    </contour>
    <contour>
      <point x="137" y="265" type="line"/>
      <point x="497" y="265" type="line"/>
      <point x="497" y="425" type="line"/>
      <point x="137" y="425" type="line"/>
    </contour>
    <contour>
      <point x="137" y="0" type="line"/>
      <point x="547" y="0" type="line"/>
      <point x="547" y="160" type="line"/>
      <point x="137" y="160" type="line"/>
    </contour>
  </outline>
  <guideline angle="90" name="h_1" x="305" y="0"/>
</glyph>
<glyph name="F" format="2">
  <advance width="611"/>
  <unicode hex="0046"/>
  <anchor x="305" y="740" name="top"/>
  <anchor x="305" y="-40" name="bottom"/>
  <outline>
    <contour>
      <point x="50" y="0" type="line"/>
      <point x="248" y="0" type="line"/>
      <point x="248" y="680" type="line"/>
      <point x="50" y="680" type="line"/>
    </contour>
    <contour>
      <point x="137" y="520" type="line"/>
      <point x="547" y="520" type="line"/>
      <point x="547" y="680" type="line"/>
      <point x="137" y="680" type="line"/>
    </contour>
    <contour>
      <point x="137" y="265" type="line"/>
      <point x="497" y="265" type="line"/>
      <point x="497" y="425" type="line"/>
      <point x="137" y="425" type="line"/>
    </contour>
  </outline>
  <guideline angle="90" name="h_1" x="305" y="0"/>
</glyph>
<glyph name="G" format="2">
  <advance width="780"/>
  <unicode hex="0047"/>
  <anchor x="398" y="740" name="top"/>
  <anchor x="398" y="-40" name="bottom"/>
  <outline>
    <contour>
      <point x="30" y="340" type="curve" smooth="yes"/>
      <point x="30" y="127"/>
      <point x="171" y="-16"/>
      <point x="381" y="-16" type="curve" smooth="yes"/>
      <point x="473" y="-16"/>
      <point x="554" y="21"/>
      <point x="586" y="77" type="curve"/>
      <point x="607" y="0" type="line"/>
      <point x="729" y="0" type="line"/>
      <point x="729" y="350" type="line"/>
      <point x="432" y="350" type="line"/>
      <point x="432" y="230" type="line"/>
      <point x="569" y="230" type="line"/>
      <point x="569" y="220" type="line" smooth="yes"/>
      <point x="569" y="174"/>
      <point x="501" y="144"/>
      <point x="419" y="144" type="curve" smooth="yes"/>
      <point x="314" y="144"/>
      <point x="233" y="221"/>
      <point x="233" y="340" type="curve" smooth="yes"/>
      <point x="233" y="459"/>
      <point x="314" y="536"/>
      <point x="419" y="536" type="curve" smooth="yes"/>
      <point x="488" y="536"/>
      <point x="545" y="507"/>
      <point x="567" y="450" type="curve"/>
      <point x="739" y="450" type="line"/>
      <point x="713" y="598"/>
      <point x="586" y="696"/>
      <point x="398" y="696" type="curve" smooth="yes"/>
      <point x="185" y="696"/>
      <point x="30" y="554"/>
    </contour>
  </outline>
  <guideline angle="90" name="h_1" x="398" y="0"/>
</glyph>
<glyph name="H" format="2">
  <advance width="774"/>
  <unicode hex="0048"/>
  <anchor x="387" y="740" name="top"/>
  <anchor x="387" y="-40" name="bottom"/>
  <anchor x="594" y="0" name="b.cedilla"/>
  <outline>
    <contour>
      <point x="50" y="0" type="line"/>
      <point x="248" y="0" type="line"/>
      <point x="248" y="680" type="line"/>
      <point x="50" y="680" type="line"/>
    </contour>
    <contour>
      <point x="155" y="262" type="line"/>
      <point x="627" y="262" type="line"/>
      <point x="627" y="422" type="line"/>
      <point x="155" y="422" type="line"/>
    </contour>
    <contour>
      <point x="526" y="0" type="line"/>
      <point x="724" y="0" type="line"/>
      <point x="724" y="680" type="line"/>
      <point x="526" y="680" type="line"/>
    </contour>
  </outline>
  <guideline angle="90" name="h_1" x="387" y="0"/>
</glyph>
<glyph name="J" format="2">
  <advance width="432"/>
  <unicode hex="004A"/>
  <anchor x="278" y="740" name="top"/>
  <outline>
    <contour>
      <point x="62" y="0" type="line"/>
      <point x="141" y="0" type="line" smooth="yes"/>
      <point x="345" y="0"/>
      <point x="382" y="110"/>
      <point x="382" y="244" type="curve" smooth="yes"/>
      <point x="382" y="680" type="line"/>
      <point x="185" y="680" type="line"/>
      <point x="185" y="240" type="line" smooth="yes"/>
      <point x="185" y="176"/>
      <point x="139" y="160"/>
      <point x="81" y="160" type="curve" smooth="yes"/>
      <point x="62" y="160" type="line"/>
    </contour>
  </outline>
</glyph>
<glyph name="K" format="2">
  <advance width="848"/>
  <unicode hex="004B"/>
  <anchor x="400" y="-40" name="bottom"/>
  <anchor x="375" y="740" name="top"/>
  <outline>
    <contour>
      <point x="50" y="0" type="line"/>
      <point x="248" y="0" type="line"/>
      <point x="248" y="680" type="line"/>
      <point x="50" y="680" type="line"/>
    </contour>
    <contour>
      <point x="223" y="108" type="line"/>
      <point x="796" y="680" type="line"/>
      <point x="556" y="680" type="line"/>
      <point x="223" y="345" type="line"/>
    </contour>
    <contour>
      <point x="364" y="270" type="line"/>
      <point x="586" y="0" type="line"/>
      <point x="838" y="0" type="line"/>
      <point x="496" y="401" type="line"/>
    </contour>
  </outline>
  <guideline angle="309.627" x="313" y="317"/>
  <guideline angle="90" name="h_1" x="375" y="0"/>
  <guideline angle="130.601" x="850" y="0"/>
  <guideline angle="225.114" x="805" y="680"/>
</glyph>
<glyph name="L" format="2">
  <advance width="549"/>
  <unicode hex="004C"/>
  <anchor x="289" y="740" name="top"/>
  <anchor x="289" y="-40" name="bottom"/>
  <outline>
    <contour>
      <point x="226" y="0" type="line"/>
      <point x="511" y="0" type="line"/>
      <point x="511" y="160" type="line"/>
      <point x="226" y="160" type="line"/>
    </contour>
    <contour>
      <point x="50" y="0" type="line"/>
      <point x="248" y="0" type="line"/>
      <point x="248" y="680" type="line"/>
      <point x="50" y="680" type="line"/>
    </contour>
  </outline>
  <guideline angle="90" name="h_1" x="289" y="0"/>
</glyph>
<glyph name="M" format="2">
  <advance width="1060"/>
  <unicode hex="004D"/>
  <anchor x="531" y="740" name="top"/>
  <anchor x="531" y="-40" name="bottom"/>
  <outline>
    <contour>
      <point x="50" y="0" type="line"/>
      <point x="248" y="0" type="line"/>
      <point x="248" y="680" type="line"/>
      <point x="50" y="680" type="line"/>
    </contour>
    <contour>
      <point x="74" y="680" type="line"/>
      <point x="409" y="0" type="line"/>
      <point x="578" y="0" type="line"/>
      <point x="578" y="31"/>
      <point x="508" y="240"/>
      <point x="457" y="335" type="curve" smooth="yes"/>
      <point x="274" y="680" type="line"/>
    </contour>
    <contour>
      <point x="483" y="0" type="curve"/>
      <point x="649" y="0" type="line"/>
      <point x="987" y="680" type="line"/>
      <point x="787" y="680" type="line"/>
      <point x="604" y="335" type="line" smooth="yes"/>
      <point x="553" y="240"/>
      <point x="483" y="31"/>
    </contour>
    <contour>
      <point x="813" y="0" type="line"/>
      <point x="1010" y="0" type="line"/>
      <point x="1010" y="680" type="line"/>
      <point x="813" y="680" type="line"/>
    </contour>
  </outline>
  <guideline angle="90" x="531" y="0"/>
  <guideline angle="90" name="h_1" x="531" y="0"/>
  <guideline angle="0" x="0" y="335"/>
</glyph>
<glyph name="N" format="2">
  <advance width="841"/>
  <unicode hex="004E"/>
  <anchor x="430" y="740" name="top"/>
  <anchor x="430" y="-40" name="bottom"/>
  <outline>
    <contour>
      <point x="50" y="0" type="line"/>
      <point x="248" y="0" type="line"/>
      <point x="248" y="320" type="line" smooth="yes"/>
      <point x="248" y="341"/>
      <point x="248" y="370"/>
      <point x="243" y="400" type="curve"/>
      <point x="261" y="400" type="line"/>
      <point x="566" y="0" type="line"/>
      <point x="791" y="0" type="line"/>
      <point x="791" y="680" type="line"/>
      <point x="593" y="680" type="line"/>
      <point x="593" y="360" type="line" smooth="yes"/>
      <point x="593" y="339"/>
      <point x="593" y="310"/>
      <point x="598" y="280" type="curve"/>
      <point x="581" y="280" type="line"/>
      <point x="276" y="680" type="line"/>
      <point x="50" y="680" type="line"/>
    </contour>
  </outline>
  <guideline angle="90" x="430" y="0"/>
</glyph>
<glyph name="O" format="2">
  <advance width="840"/>
  <unicode hex="004F"/>
  <anchor x="422" y="740" name="top"/>
  <anchor x="420" y="-40" name="bottom"/>
  <anchor x="545" y="-0" name="b.ogonek"/>
  <outline>
    <contour>
      <point x="30" y="340" type="curve" smooth="yes"/>
      <point x="30" y="123"/>
      <point x="190" y="-16"/>
      <point x="420" y="-16" type="curve" smooth="yes"/>
      <point x="650" y="-16"/>
      <point x="810" y="123"/>
      <point x="810" y="340" type="curve" smooth="yes"/>
      <point x="810" y="557"/>
      <point x="650" y="696"/>
      <point x="420" y="696" type="curve" smooth="yes"/>
      <point x="190" y="696"/>
      <point x="30" y="557"/>
    </contour>
    <contour>
      <point x="233" y="340" type="curve" smooth="yes"/>
      <point x="233" y="459"/>
      <point x="315" y="536"/>
      <point x="420" y="536" type="curve" smooth="yes"/>
      <point x="525" y="536"/>
      <point x="607" y="459"/>
      <point x="607" y="340" type="curve" smooth="yes"/>
      <point x="607" y="221"/>
      <point x="525" y="144"/>
      <point x="420" y="144" type="curve" smooth="yes"/>
      <point x="315" y="144"/>
      <point x="233" y="221"/>
    </contour>
  </outline>
  <guideline angle="0" x="0" y="740"/>
  <guideline angle="90" x="420" y="0"/>
  <guideline angle="90" x="30" y="0"/>
  <guideline angle="90" x="810" y="0"/>
</glyph>
<glyph name="P" format="2">
  <advance width="665"/>
  <unicode hex="0050"/>
  <anchor x="320" y="-40" name="bottom"/>
  <anchor x="320" y="740" name="top"/>
  <outline>
    <contour>
      <point x="50" y="0" type="line"/>
      <point x="248" y="0" type="line"/>
      <point x="248" y="680" type="line"/>
      <point x="50" y="680" type="line"/>
    </contour>
    <contour>
      <point x="150" y="220" type="line"/>
      <point x="349" y="220" type="line" smooth="yes"/>
      <point x="516" y="220"/>
      <point x="635" y="297"/>
      <point x="635" y="457" type="curve" smooth="yes"/>
      <point x="635" y="617"/>
      <point x="516" y="680"/>
      <point x="349" y="680" type="curve" smooth="yes"/>
      <point x="150" y="680" type="line"/>
      <point x="150" y="520" type="line"/>
      <point x="349" y="520" type="line" smooth="yes"/>
      <point x="405" y="520"/>
      <point x="462" y="501"/>
      <point x="462" y="457" type="curve" smooth="yes"/>
      <point x="462" y="397"/>
      <point x="405" y="380"/>
      <point x="349" y="380" type="curve" smooth="yes"/>
      <point x="150" y="380" type="line"/>
    </contour>
  </outline>
  <guideline angle="90" name="h_1" x="320" y="0"/>
</glyph>
<glyph name="Q" format="2">
  <advance width="840"/>
  <unicode hex="0051"/>
  <anchor x="422" y="740" name="top"/>
  <anchor x="420" y="-40" name="bottom"/>
  <anchor x="420" y="0" name="b.ogonek"/>
  <outline>
    <contour>
      <point x="400" y="158" type="line"/>
      <point x="469" y="103" type="line"/>
      <point x="597" y="197" type="line"/>
      <point x="534" y="247" type="line"/>
    </contour>
    <contour>
      <point x="550" y="31" type="line"/>
      <point x="680" y="-74" type="line"/>
      <point x="804" y="23" type="line"/>
      <point x="675" y="127" type="line"/>
    </contour>
    <contour>
      <point x="30" y="340" type="curve" smooth="yes"/>
      <point x="30" y="123"/>
      <point x="190" y="-16"/>
      <point x="420" y="-16" type="curve" smooth="yes"/>
      <point x="650" y="-16"/>
      <point x="810" y="123"/>
      <point x="810" y="340" type="curve" smooth="yes"/>
      <point x="810" y="557"/>
      <point x="650" y="696"/>
      <point x="420" y="696" type="curve" smooth="yes"/>
      <point x="190" y="696"/>
      <point x="30" y="557"/>
    </contour>
    <contour>
      <point x="233" y="340" type="curve" smooth="yes"/>
      <point x="233" y="459"/>
      <point x="315" y="536"/>
      <point x="420" y="536" type="curve" smooth="yes"/>
      <point x="525" y="536"/>
      <point x="607" y="459"/>
      <point x="607" y="340" type="curve" smooth="yes"/>
      <point x="607" y="221"/>
      <point x="525" y="144"/>
      <point x="420" y="144" type="curve" smooth="yes"/>
      <point x="315" y="144"/>
      <point x="233" y="221"/>
    </contour>
  </outline>
  <guideline angle="141.34" x="730" y="90"/>
  <guideline angle="321.34" x="528" y="41"/>
  <guideline angle="141.34" x="814" y="23"/>
  <guideline angle="321.34" x="540" y="31"/>
  <guideline angle="90" x="427" y="0"/>
  <guideline angle="0" x="0" y="740"/>
  <guideline angle="90" x="420" y="0"/>
  <guideline angle="90" x="30" y="0"/>
  <guideline angle="90" x="810" y="0"/>
</glyph>
<glyph name="R" format="2">
  <advance width="666"/>
  <unicode hex="0052"/>
  <anchor x="320" y="740" name="top"/>
  <anchor x="320" y="-40" name="bottom"/>
  <outline>
    <contour>
      <point x="50" y="0" type="line"/>
      <point x="248" y="0" type="line"/>
      <point x="248" y="680" type="line"/>
      <point x="50" y="680" type="line"/>
    </contour>
    <contour>
      <point x="150" y="220" type="line"/>
      <point x="349" y="220" type="line" smooth="yes"/>
      <point x="516" y="220"/>
      <point x="635" y="297"/>
      <point x="635" y="457" type="curve" smooth="yes"/>
      <point x="635" y="617"/>
      <point x="516" y="680"/>
      <point x="349" y="680" type="curve" smooth="yes"/>
      <point x="150" y="680" type="line"/>
      <point x="150" y="520" type="line"/>
      <point x="349" y="520" type="line" smooth="yes"/>
      <point x="405" y="520"/>
      <point x="462" y="501"/>
      <point x="462" y="457" type="curve" smooth="yes"/>
      <point x="462" y="397"/>
      <point x="405" y="380"/>
      <point x="349" y="380" type="curve" smooth="yes"/>
      <point x="150" y="380" type="line"/>
    </contour>
    <contour>
      <point x="272" y="300" type="line"/>
      <point x="424" y="0" type="line"/>
      <point x="636" y="0" type="line"/>
      <point x="465" y="300" type="line"/>
    </contour>
  </outline>
  <guideline angle="90" name="h_1" x="320" y="0"/>
</glyph>
<glyph name="S" format="2">
  <advance width="683"/>
  <unicode hex="0053"/>
  <anchor x="340" y="740" name="top"/>
  <anchor x="340" y="-40" name="bottom"/>
  <anchor x="342" y="0" name="b.cedilla"/>
  <outline>
    <contour>
      <point x="30" y="223" type="line"/>
      <point x="30" y="88"/>
      <point x="155" y="-16"/>
      <point x="332" y="-16" type="curve" smooth="yes"/>
      <point x="542" y="-16"/>
      <point x="653" y="65"/>
      <point x="653" y="191" type="curve" smooth="yes"/>
      <point x="653" y="276"/>
      <point x="611" y="326"/>
      <point x="532" y="360" type="curve" smooth="yes"/>
      <point x="313" y="455" type="line" smooth="yes"/>
      <point x="272" y="472"/>
      <point x="262" y="481"/>
      <point x="262" y="493" type="curve" smooth="yes"/>
      <point x="262" y="527"/>
      <point x="285" y="536"/>
      <point x="340" y="536" type="curve" smooth="yes"/>
      <point x="415" y="536"/>
      <point x="441" y="509"/>
      <point x="441" y="481" type="curve"/>
      <point x="651" y="481" type="line"/>
      <point x="651" y="593"/>
      <point x="523" y="696"/>
      <point x="351" y="696" type="curve" smooth="yes"/>
      <point x="161" y="696"/>
      <point x="52" y="616"/>
      <point x="52" y="492" type="curve" smooth="yes"/>
      <point x="52" y="428"/>
      <point x="95" y="386"/>
      <point x="157" y="358" type="curve" smooth="yes"/>
      <point x="391" y="255" type="line" smooth="yes"/>
      <point x="423" y="241"/>
      <point x="443" y="220"/>
      <point x="443" y="194" type="curve" smooth="yes"/>
      <point x="443" y="167"/>
      <point x="413" y="144"/>
      <point x="341" y="144" type="curve" smooth="yes"/>
      <point x="273" y="144"/>
      <point x="240" y="180"/>
      <point x="240" y="223" type="curve"/>
    </contour>
  </outline>
  <guideline angle="90" name="h_1" x="340" y="0"/>
</glyph>
<glyph name="U" format="2">
  <advance width="738"/>
  <unicode hex="0055"/>
  <anchor x="369" y="740" name="top"/>
  <anchor x="369" y="-40" name="bottom"/>
  <outline>
    <contour>
      <point x="45" y="270" type="line" smooth="yes"/>
      <point x="45" y="82"/>
      <point x="165" y="-16"/>
      <point x="369" y="-16" type="curve" smooth="yes"/>
      <point x="573" y="-16"/>
      <point x="693" y="82"/>
      <point x="693" y="270" type="curve" smooth="yes"/>
      <point x="693" y="680" type="line"/>
      <point x="495" y="680" type="line"/>
      <point x="495" y="310" type="line" smooth="yes"/>
      <point x="495" y="207"/>
      <point x="467" y="154"/>
      <point x="369" y="154" type="curve" smooth="yes"/>
      <point x="272" y="154"/>
      <point x="243" y="207"/>
      <point x="243" y="310" type="curve" smooth="yes"/>
      <point x="243" y="680" type="line"/>
      <point x="45" y="680" type="line"/>
    </contour>
  </outline>
  <guideline angle="90" name="h_1" x="369" y="0"/>
</glyph>
<glyph name="V" format="2">
  <advance width="783"/>
  <unicode hex="0056"/>
  <anchor x="392" y="-40" name="bottom"/>
  <anchor x="392" y="740" name="top"/>
  <outline>
    <contour>
      <point x="10" y="680" type="line"/>
      <point x="270" y="0" type="line"/>
      <point x="414" y="0" type="line"/>
      <point x="414" y="30"/>
      <point x="380" y="236"/>
      <point x="343" y="335" type="curve" smooth="yes"/>
      <point x="210" y="680" type="line"/>
    </contour>
    <contour>
      <point x="369" y="0" type="curve"/>
      <point x="510" y="0" type="line"/>
      <point x="773" y="680" type="line"/>
      <point x="573" y="680" type="line"/>
      <point x="440" y="335" type="line" smooth="yes"/>
      <point x="403" y="236"/>
      <point x="369" y="30"/>
    </contour>
  </outline>
  <guideline angle="90" name="h_1" x="392" y="0"/>
  <guideline angle="0" x="0" y="335"/>
</glyph>
<glyph name="W" format="2">
  <advance width="1346"/>
  <unicode hex="0057"/>
  <anchor x="672" y="740" name="top"/>
  <anchor x="672" y="-40" name="bottom"/>
  <outline>
    <contour>
      <point x="10" y="680" type="line"/>
      <point x="270" y="0" type="line"/>
      <point x="414" y="0" type="line"/>
      <point x="414" y="30"/>
      <point x="380" y="236"/>
      <point x="343" y="335" type="curve" smooth="yes"/>
      <point x="210" y="680" type="line"/>
    </contour>
    <contour>
      <point x="369" y="0" type="curve"/>
      <point x="510" y="0" type="line"/>
      <point x="773" y="680" type="line"/>
      <point x="573" y="680" type="line"/>
      <point x="440" y="335" type="line" smooth="yes"/>
      <point x="403" y="236"/>
      <point x="369" y="30"/>
    </contour>
    <contour>
      <point x="573" y="680" type="line"/>
      <point x="833" y="0" type="line"/>
      <point x="977" y="0" type="line"/>
      <point x="977" y="30"/>
      <point x="943" y="236"/>
      <point x="906" y="335" type="curve" smooth="yes"/>
      <point x="773" y="680" type="line"/>
    </contour>
    <contour>
      <point x="932" y="0" type="curve"/>
      <point x="1073" y="0" type="line"/>
      <point x="1336" y="680" type="line"/>
      <point x="1136" y="680" type="line"/>
      <point x="1003" y="335" type="line" smooth="yes"/>
      <point x="966" y="236"/>
      <point x="932" y="30"/>
    </contour>
  </outline>
  <guideline angle="90" name="h_1" x="672" y="0"/>
</glyph>
<glyph name="X" format="2">
  <advance width="788"/>
  <unicode hex="0058"/>
  <anchor x="403" y="740" name="top"/>
  <anchor x="403" y="-40" name="bottom"/>
  <outline>
    <contour>
      <point x="277" y="320" type="line"/>
      <point x="400" y="187" type="line"/>
      <point x="520" y="0" type="line"/>
      <point x="768" y="0" type="line"/>
      <point x="528" y="346" type="line"/>
      <point x="412" y="473" type="line"/>
      <point x="269" y="680" type="line"/>
      <point x="23" y="680" type="line"/>
    </contour>
    <contour>
      <point x="10" y="0" type="line"/>
      <point x="254" y="0" type="line"/>
      <point x="413" y="242" type="line"/>
      <point x="290" y="382" type="line"/>
    </contour>
    <contour>
      <point x="379" y="446" type="line"/>
      <point x="500" y="301" type="line"/>
      <point x="778" y="680" type="line"/>
      <point x="537" y="680" type="line"/>
    </contour>
  </outline>
  <guideline angle="53.7114" x="777.75" y="680"/>
  <guideline angle="126.258" x="497.75" y="0"/>
  <guideline angle="126.258" x="766.5" y="0"/>
  <guideline angle="53.7114" x="510.25" y="680"/>
  <guideline angle="90" name="h_1" x="403" y="0"/>
</glyph>
<glyph name="Y" format="2">
  <advance width="716"/>
  <unicode hex="0059"/>
  <anchor x="358" y="740" name="top"/>
  <anchor x="358" y="-40" name="bottom"/>
  <outline>
    <contour>
      <point x="258" y="0" type="line"/>
      <point x="456" y="0" type="line"/>
      <point x="456" y="210" type="line"/>
      <point x="722" y="680" type="line"/>
      <point x="522" y="680" type="line"/>
      <point x="340" y="366" type="line"/>
      <point x="374" y="366" type="line"/>
      <point x="199" y="680" type="line"/>
      <point x="-8" y="680" type="line"/>
      <point x="258" y="210" type="line"/>
    </contour>
  </outline>
  <guideline angle="90" x="358" y="0"/>
  <guideline angle="0" x="0" y="680"/>
  <guideline angle="239.88" x="522" y="680"/>
  <guideline angle="119.129" x="345" y="418"/>
  <guideline angle="0" x="0" y="366"/>
</glyph>
<glyph name="Z" format="2">
  <advance width="742"/>
  <unicode hex="005A"/>
  <anchor x="368" y="740" name="top"/>
  <anchor x="368" y="-40" name="bottom"/>
  <outline>
    <contour>
      <point x="62" y="0" type="line"/>
      <point x="710" y="0" type="line"/>
      <point x="710" y="160" type="line"/>
      <point x="325" y="160" type="line"/>
      <point x="325" y="103" type="line"/>
      <point x="705" y="597" type="line"/>
      <point x="705" y="680" type="line"/>
      <point x="87" y="680" type="line"/>
      <point x="87" y="520" type="line"/>
      <point x="442" y="520" type="line"/>
      <point x="442" y="577" type="line"/>
      <point x="62" y="83" type="line"/>
    </contour>
  </outline>
  <guideline angle="90" name="h_1" x="368" y="0"/>
</glyph>
<glyph name="backslash" format="2">
  <advance width="667"/>
  <unicode hex="005C"/>
  <outline>
    <contour>
      <point x="30" y="700" type="line"/>
      <point x="437" y="0" type="line"/>
      <point x="638" y="0" type="line"/>
      <point x="227" y="700" type="line"/>
    </contour>
  </outline>
</glyph>
<glyph name="grave" format="2">
  <advance width="375"/>
  <unicode hex="0060"/>
  <outline>
    <contour>
      <point x="30" y="720" type="line"/>
      <point x="155" y="540" type="line"/>
      <point x="345" y="540" type="line"/>
      <point x="280" y="720" type="line"/>
    </contour>
  </outline>
  <guideline angle="0" x="0" y="700"/>
</glyph>
<glyph name="a" format="2">
  <advance width="639"/>
  <unicode hex="0061"/>
  <anchor x="337" y="530" name="top"/>
  <anchor x="337" y="-40" name="bottom"/>
  <anchor x="337" y="530" name="t.ring"/>
  <outline>
    <contour>
      <point x="61" y="300" type="curve"/>
      <point x="246" y="300" type="line"/>
      <point x="253" y="335"/>
      <point x="277" y="355"/>
      <point x="328" y="355" type="curve" smooth="yes"/>
      <point x="373" y="355"/>
      <point x="401" y="336"/>
      <point x="401" y="305" type="curve" smooth="yes"/>
      <point x="401" y="59" type="line"/>
      <point x="415" y="0" type="line"/>
      <point x="599" y="0" type="line"/>
      <point x="599" y="289" type="line" smooth="yes"/>
      <point x="599" y="413"/>
      <point x="508" y="476"/>
      <point x="337" y="476" type="curve" smooth="yes"/>
      <point x="170" y="476"/>
      <point x="73" y="413"/>
    </contour>
    <contour>
      <point x="30" y="123" type="curve" smooth="yes"/>
      <point x="30" y="38"/>
      <point x="105" y="-16"/>
      <point x="220" y="-16" type="curve" smooth="yes"/>
      <point x="305" y="-16"/>
      <point x="362" y="3"/>
      <point x="424" y="53" type="curve"/>
      <point x="424" y="147" type="line"/>
      <point x="387" y="117"/>
      <point x="341" y="100"/>
      <point x="297" y="100" type="curve" smooth="yes"/>
      <point x="256" y="100"/>
      <point x="232" y="115"/>
      <point x="232" y="141" type="curve" smooth="yes"/>
      <point x="232" y="166"/>
      <point x="256" y="183"/>
      <point x="305" y="188" type="curve" smooth="yes"/>
      <point x="433" y="200" type="line"/>
      <point x="433" y="288" type="line"/>
      <point x="302" y="281" type="line" smooth="yes"/>
      <point x="128" y="272"/>
      <point x="30" y="211"/>
    </contour>
  </outline>
  <guideline angle="90" x="610" y="0"/>
  <guideline angle="90" name="h_1" x="337" y="0"/>
  <guideline angle="0" x="0" y="314"/>
  <guideline angle="0" x="0" y="470"/>
</glyph>
<glyph name="b" format="2">
  <advance width="652"/>
  <unicode hex="0062"/>
  <anchor x="339" y="740" name="top"/>
  <anchor x="339" y="-50" name="bottom"/>
  <outline>
    <contour>
      <point x="40" y="0" type="line"/>
      <point x="208" y="0" type="line"/>
      <point x="226" y="96" type="line"/>
      <point x="226" y="420" type="line"/>
      <point x="229" y="427"/>
      <point x="230" y="433"/>
      <point x="230" y="440" type="curve" smooth="yes"/>
      <point x="230" y="700" type="line"/>
      <point x="40" y="700" type="line"/>
    </contour>
    <contour>
      <point x="196" y="33" type="line"/>
      <point x="215" y="33" type="line"/>
      <point x="246" y="5"/>
      <point x="312" y="-16"/>
      <point x="368" y="-16" type="curve" smooth="yes"/>
      <point x="522" y="-16"/>
      <point x="622" y="82"/>
      <point x="622" y="231" type="curve" smooth="yes"/>
      <point x="622" y="374"/>
      <point x="525" y="476"/>
      <point x="386" y="476" type="curve" smooth="yes"/>
      <point x="320" y="476"/>
      <point x="262" y="455"/>
      <point x="230" y="420" type="curve"/>
      <point x="196" y="420" type="line"/>
    </contour>
    <contour>
      <point x="226" y="226" type="curve" smooth="yes"/>
      <point x="226" y="232" type="line" smooth="yes"/>
      <point x="226" y="288"/>
      <point x="266" y="326"/>
      <point x="327" y="326" type="curve" smooth="yes"/>
      <point x="388" y="326"/>
      <point x="428" y="288"/>
      <point x="428" y="231" type="curve" smooth="yes"/>
      <point x="428" y="173"/>
      <point x="388" y="134"/>
      <point x="327" y="134" type="curve" smooth="yes"/>
      <point x="266" y="134"/>
      <point x="226" y="171"/>
    </contour>
  </outline>
  <guideline angle="90" name="h_1" x="339" y="0"/>
</glyph>
<glyph name="c" format="2">
  <advance width="608"/>
  <unicode hex="0063"/>
  <anchor x="302" y="530" name="top"/>
  <anchor x="302" y="-40" name="bottom"/>
  <anchor x="280" y="-0" name="b.cedilla"/>
  <outline>
    <contour>
      <point x="30" y="230" type="curve" smooth="yes"/>
      <point x="30" y="79"/>
      <point x="138" y="-16"/>
      <point x="312" y="-16" type="curve" smooth="yes"/>
      <point x="463" y="-16"/>
      <point x="561" y="63"/>
      <point x="578" y="185" type="curve"/>
      <point x="384" y="185" type="line"/>
      <point x="375" y="158"/>
      <point x="353" y="140"/>
      <point x="311" y="140" type="curve" smooth="yes"/>
      <point x="257" y="140"/>
      <point x="224" y="176"/>
      <point x="224" y="230" type="curve" smooth="yes"/>
      <point x="224" y="286"/>
      <point x="255" y="320"/>
      <point x="306" y="320" type="curve" smooth="yes"/>
      <point x="347" y="320"/>
      <point x="372" y="305"/>
      <point x="384" y="285" type="curve"/>
      <point x="578" y="285" type="line"/>
      <point x="560" y="400"/>
      <point x="452" y="476"/>
      <point x="304" y="476" type="curve" smooth="yes"/>
      <point x="144" y="476"/>
      <point x="30" y="382"/>
    </contour>
  </outline>
  <guideline angle="90" name="h_1" x="302" y="0"/>
</glyph>
<glyph name="d" format="2">
  <advance width="652"/>
  <unicode hex="0064"/>
  <anchor x="297" y="740" name="top"/>
  <anchor x="297" y="-40" name="bottom"/>
  <anchor x="283" y="0" name="b.cedilla"/>
  <anchor x="686" y="700" name="t.quoteright"/>
  <outline>
    <contour>
      <point x="30" y="231" type="curve" smooth="yes"/>
      <point x="30" y="391"/>
      <point x="145" y="476"/>
      <point x="264" y="476" type="curve" smooth="yes"/>
      <point x="328" y="476"/>
      <point x="389" y="457"/>
      <point x="422" y="420" type="curve"/>
      <point x="446" y="420" type="line"/>
      <point x="446" y="33" type="line"/>
      <point x="436" y="33" type="line"/>
      <point x="407" y="7"/>
      <point x="341" y="-16"/>
      <point x="284" y="-16" type="curve" smooth="yes"/>
      <point x="132" y="-16"/>
      <point x="30" y="82"/>
    </contour>
    <contour>
      <point x="224" y="231" type="curve" smooth="yes"/>
      <point x="224" y="173"/>
      <point x="264" y="134"/>
      <point x="325" y="134" type="curve" smooth="yes"/>
      <point x="385" y="134"/>
      <point x="426" y="172"/>
      <point x="426" y="226" type="curve" smooth="yes"/>
      <point x="426" y="232" type="line" smooth="yes"/>
      <point x="426" y="289"/>
      <point x="386" y="326"/>
      <point x="325" y="326" type="curve" smooth="yes"/>
      <point x="264" y="326"/>
      <point x="224" y="288"/>
    </contour>
    <contour>
      <point x="426" y="96" type="line"/>
      <point x="426" y="420" type="line"/>
      <point x="423" y="427"/>
      <point x="422" y="433"/>
      <point x="422" y="440" type="curve" smooth="yes"/>
      <point x="422" y="700" type="line"/>
      <point x="612" y="700" type="line"/>
      <point x="612" y="0" type="line"/>
      <point x="444" y="0" type="line"/>
    </contour>
  </outline>
  <guideline angle="90" name="h_1" x="297" y="0"/>
</glyph>
<glyph name="e" format="2">
  <advance width="650"/>
  <unicode hex="0065"/>
  <anchor x="322" y="530" name="top"/>
  <anchor x="322" y="-40" name="bottom"/>
  <anchor x="322" y="0" name="b.ogonek"/>
  <anchor x="297" y="0" name="b.cedilla"/>
  <outline>
    <contour>
      <point x="30" y="229" type="curve" smooth="yes"/>
      <point x="30" y="83"/>
      <point x="147" y="-16"/>
      <point x="322" y="-16" type="curve" smooth="yes"/>
      <point x="472" y="-16"/>
      <point x="567" y="43"/>
      <point x="616" y="164" type="curve"/>
      <point x="417" y="164" type="line"/>
      <point x="404" y="146"/>
      <point x="364" y="130"/>
      <point x="330" y="130" type="curve" smooth="yes"/>
      <point x="266" y="130"/>
      <point x="224" y="171"/>
      <point x="224" y="232" type="curve" smooth="yes"/>
      <point x="224" y="291"/>
      <point x="265" y="330"/>
      <point x="328" y="330" type="curve" smooth="yes"/>
      <point x="373" y="330"/>
      <point x="419" y="308"/>
      <point x="426" y="283" type="curve"/>
      <point x="124" y="283" type="line"/>
      <point x="124" y="193" type="line"/>
      <point x="620" y="193" type="line"/>
      <point x="620" y="231" type="line" smooth="yes"/>
      <point x="620" y="379"/>
      <point x="503" y="476"/>
      <point x="322" y="476" type="curve" smooth="yes"/>
      <point x="148" y="476"/>
      <point x="30" y="375"/>
    </contour>
  </outline>
  <guideline angle="0" x="0" y="476"/>
  <guideline angle="90" name="h_1" x="322" y="0"/>
</glyph>
<glyph name="f" format="2">
  <advance width="479"/>
  <unicode hex="0066"/>
  <anchor x="240" y="-40" name="bottom"/>
  <anchor x="277" y="740" name="top"/>
  <outline>
    <contour>
      <point x="137" y="0" type="line"/>
      <point x="327" y="0" type="line"/>
      <point x="327" y="509" type="line" smooth="yes"/>
      <point x="327" y="543"/>
      <point x="349" y="560"/>
      <point x="371" y="560" type="curve" smooth="yes"/>
      <point x="442" y="560" type="line"/>
      <point x="442" y="700" type="line"/>
      <point x="339" y="700" type="line" smooth="yes"/>
      <point x="198" y="700"/>
      <point x="137" y="667"/>
      <point x="137" y="525" type="curve" smooth="yes"/>
    </contour>
    <contour>
      <point x="43" y="320" type="line"/>
      <point x="432" y="320" type="line"/>
      <point x="432" y="460" type="line"/>
      <point x="43" y="460" type="line"/>
    </contour>
  </outline>
  <guideline angle="90" name="h_1" x="277" y="0"/>
</glyph>
<glyph name="g" format="2">
  <advance width="662"/>
  <unicode hex="0067"/>
  <anchor x="336" y="530" name="top"/>
  <outline>
    <contour>
      <point x="55" y="-30" type="line"/>
      <point x="80" y="-136"/>
      <point x="181" y="-200"/>
      <point x="322" y="-200" type="curve" smooth="yes"/>
      <point x="497" y="-200"/>
      <point x="622" y="-118"/>
      <point x="622" y="-3" type="curve" smooth="yes"/>
      <point x="622" y="0" type="line"/>
      <point x="425" y="0" type="line"/>
      <point x="425" y="-6" type="line" smooth="yes"/>
      <point x="425" y="-62"/>
      <point x="400" y="-80"/>
      <point x="338" y="-80" type="curve" smooth="yes"/>
      <point x="297" y="-80"/>
      <point x="266" y="-64"/>
      <point x="252" y="-30" type="curve"/>
    </contour>
    <contour>
      <point x="30" y="231" type="curve" smooth="yes"/>
      <point x="30" y="71"/>
      <point x="146" y="-16"/>
      <point x="267" y="-16" type="curve" smooth="yes"/>
      <point x="326" y="-16"/>
      <point x="396" y="7"/>
      <point x="425" y="33" type="curve"/>
      <point x="440" y="33" type="line"/>
      <point x="440" y="420" type="line"/>
      <point x="425" y="420" type="line"/>
      <point x="392" y="457"/>
      <point x="331" y="476"/>
      <point x="267" y="476" type="curve" smooth="yes"/>
      <point x="146" y="476"/>
      <point x="30" y="391"/>
    </contour>
    <contour>
      <point x="245" y="231" type="curve" smooth="yes"/>
      <point x="245" y="291"/>
      <point x="277" y="326"/>
      <point x="336" y="326" type="curve" smooth="yes"/>
      <point x="396" y="326"/>
      <point x="430" y="292"/>
      <point x="430" y="232" type="curve" smooth="yes"/>
      <point x="430" y="226" type="line" smooth="yes"/>
      <point x="430" y="169"/>
      <point x="395" y="134"/>
      <point x="336" y="134" type="curve" smooth="yes"/>
      <point x="278" y="134"/>
      <point x="245" y="171"/>
    </contour>
    <contour>
      <point x="425" y="0" type="line"/>
      <point x="622" y="0" type="line"/>
      <point x="622" y="459" type="line"/>
      <point x="456" y="459" type="line"/>
      <point x="430" y="420" type="line"/>
      <point x="430" y="33" type="line"/>
      <point x="425" y="14" type="line"/>
    </contour>
  </outline>
  <guideline angle="90" name="h_1" x="336" y="0"/>
</glyph>
<glyph name="h" format="2">
  <advance width="666"/>
  <unicode hex="0068"/>
  <anchor x="339" y="-40" name="bottom"/>
  <anchor x="339" y="740" name="top"/>
  <anchor x="509" y="-0" name="b.cedilla"/>
  <outline>
    <contour>
      <point x="40" y="0" type="line"/>
      <point x="230" y="0" type="line"/>
      <point x="230" y="700" type="line"/>
      <point x="40" y="700" type="line"/>
    </contour>
    <contour>
      <point x="183" y="181" type="line"/>
      <point x="230" y="181" type="line"/>
      <point x="230" y="269"/>
      <point x="276" y="331"/>
      <point x="341" y="331" type="curve" smooth="yes"/>
      <point x="401" y="331"/>
      <point x="436" y="296"/>
      <point x="436" y="237" type="curve" smooth="yes"/>
      <point x="436" y="0" type="line"/>
      <point x="626" y="0" type="line"/>
      <point x="626" y="295" type="line" smooth="yes"/>
      <point x="626" y="404"/>
      <point x="542" y="476"/>
      <point x="415" y="476" type="curve" smooth="yes"/>
      <point x="332" y="476"/>
      <point x="250" y="436"/>
      <point x="199" y="375" type="curve"/>
      <point x="317" y="375" type="line"/>
      <point x="317" y="411" type="line"/>
      <point x="183" y="411" type="line"/>
    </contour>
  </outline>
  <guideline angle="90" name="h_1" x="339" y="0"/>
</glyph>
<glyph name="k" format="2">
  <advance width="700"/>
  <unicode hex="006B"/>
  <anchor x="331" y="-40" name="bottom"/>
  <anchor x="375" y="740" name="top"/>
  <outline>
    <contour>
      <point x="40" y="0" type="line"/>
      <point x="238" y="0" type="line"/>
      <point x="238" y="700" type="line"/>
      <point x="40" y="700" type="line"/>
    </contour>
    <contour>
      <point x="209" y="76" type="line"/>
      <point x="636" y="460" type="line"/>
      <point x="379" y="460" type="line"/>
      <point x="209" y="308" type="line"/>
    </contour>
    <contour>
      <point x="264" y="183" type="line"/>
      <point x="435" y="0" type="line"/>
      <point x="690" y="0" type="line"/>
      <point x="404" y="308" type="line"/>
    </contour>
  </outline>
  <guideline angle="90" name="h_1" x="375" y="0"/>
</glyph>
<glyph name="l" format="2">
  <advance width="278"/>
  <unicode hex="006C"/>
  <anchor x="139" y="-40" name="bottom"/>
  <anchor x="139" y="740" name="top"/>
  <outline>
    <contour>
      <point x="40" y="0" type="line"/>
      <point x="238" y="0" type="line"/>
      <point x="238" y="700" type="line"/>
      <point x="40" y="700" type="line"/>
    </contour>
  </outline>
  <guideline angle="90" name="h_1" x="139" y="0"/>
</glyph>
<glyph name="m" format="2">
  <advance width="972"/>
  <unicode hex="006D"/>
  <anchor x="486" y="-40" name="bottom"/>
  <anchor x="486" y="530" name="top"/>
  <outline>
    <contour>
      <point x="508" y="201" type="line"/>
      <point x="585" y="201" type="line"/>
      <point x="585" y="281"/>
      <point x="621" y="331"/>
      <point x="675" y="331" type="curve" smooth="yes"/>
      <point x="711" y="331"/>
      <point x="734" y="309"/>
      <point x="734" y="275" type="curve" smooth="yes"/>
      <point x="734" y="0" type="line"/>
      <point x="932" y="0" type="line"/>
      <point x="932" y="320" type="line" smooth="yes"/>
      <point x="932" y="415"/>
      <point x="864" y="476"/>
      <point x="757" y="476" type="curve" smooth="yes"/>
      <point x="648" y="476"/>
      <point x="549" y="420"/>
      <point x="514" y="338" type="curve"/>
      <point x="619" y="338" type="line"/>
      <point x="619" y="407" type="line"/>
      <point x="508" y="407" type="line"/>
    </contour>
    <contour>
      <point x="171" y="201" type="line"/>
      <point x="238" y="201" type="line"/>
      <point x="238" y="281"/>
      <point x="273" y="331"/>
      <point x="327" y="331" type="curve" smooth="yes"/>
      <point x="362" y="331"/>
      <point x="387" y="306"/>
      <point x="387" y="271" type="curve" smooth="yes"/>
      <point x="387" y="0" type="line"/>
      <point x="585" y="0" type="line"/>
      <point x="585" y="295" type="line" smooth="yes"/>
      <point x="585" y="414"/>
      <point x="520" y="476"/>
      <point x="395" y="476" type="curve" smooth="yes"/>
      <point x="319" y="476"/>
      <point x="227" y="423"/>
      <point x="186" y="346" type="curve"/>
      <point x="291" y="346" type="line"/>
      <point x="291" y="384" type="line"/>
      <point x="171" y="384" type="line"/>
    </contour>
    <contour>
      <point x="40" y="0" type="line"/>
      <point x="238" y="0" type="line"/>
      <point x="238" y="410" type="line"/>
      <point x="234" y="410" type="line"/>
      <point x="210" y="460" type="line"/>
      <point x="40" y="460" type="line"/>
    </contour>
  </outline>
  <guideline angle="90" name="h_1" x="486" y="0"/>
</glyph>
<glyph name="n" format="2">
  <advance width="650"/>
  <unicode hex="006E"/>
  <anchor x="335" y="530" name="top"/>
  <anchor x="335" y="-40" name="bottom"/>
  <outline>
    <contour>
      <point x="40" y="0" type="line"/>
      <point x="230" y="0" type="line"/>
      <point x="230" y="408" type="line"/>
      <point x="226" y="408" type="line"/>
      <point x="202" y="460" type="line"/>
      <point x="40" y="460" type="line"/>
    </contour>
    <contour>
      <point x="183" y="181" type="line"/>
      <point x="230" y="181" type="line"/>
      <point x="230" y="269"/>
      <point x="272" y="331"/>
      <point x="335" y="331" type="curve" smooth="yes"/>
      <point x="389" y="331"/>
      <point x="420" y="296"/>
      <point x="420" y="237" type="curve" smooth="yes"/>
      <point x="420" y="0" type="line"/>
      <point x="610" y="0" type="line"/>
      <point x="610" y="295" type="line" smooth="yes"/>
      <point x="610" y="404"/>
      <point x="532" y="476"/>
      <point x="403" y="476" type="curve" smooth="yes"/>
      <point x="320" y="476"/>
      <point x="246" y="436"/>
      <point x="199" y="375" type="curve"/>
      <point x="317" y="375" type="line"/>
      <point x="317" y="402" type="line"/>
      <point x="183" y="402" type="line"/>
    </contour>
  </outline>
  <guideline angle="90" name="h_1" x="335" y="0"/>
</glyph>
<glyph name="o" format="2">
  <advance width="668"/>
  <unicode hex="006F"/>
  <anchor x="345" y="530" name="top"/>
  <anchor x="334" y="-40" name="bottom"/>
  <anchor x="397" y="0" name="b.ogonek"/>
  <outline>
    <contour>
      <point x="30" y="230" type="curve" smooth="yes"/>
      <point x="30" y="77"/>
      <point x="156" y="-16"/>
      <point x="334" y="-16" type="curve" smooth="yes"/>
      <point x="510" y="-16"/>
      <point x="638" y="78"/>
      <point x="638" y="230" type="curve" smooth="yes"/>
      <point x="638" y="383"/>
      <point x="512" y="476"/>
      <point x="334" y="476" type="curve" smooth="yes"/>
      <point x="158" y="476"/>
      <point x="30" y="382"/>
    </contour>
    <contour>
      <point x="233" y="230" type="curve" smooth="yes"/>
      <point x="233" y="294"/>
      <point x="277" y="320"/>
      <point x="334" y="320" type="curve" smooth="yes"/>
      <point x="390" y="320"/>
      <point x="435" y="292"/>
      <point x="435" y="230" type="curve" smooth="yes"/>
      <point x="435" y="166"/>
      <point x="391" y="140"/>
      <point x="334" y="140" type="curve" smooth="yes"/>
      <point x="278" y="140"/>
      <point x="233" y="168"/>
    </contour>
  </outline>
</glyph>
<glyph name="p" format="2">
  <advance width="634"/>
  <unicode hex="0070"/>
  <anchor x="283" y="-40" name="bottom"/>
  <anchor x="283" y="530" name="top"/>
  <outline>
    <contour>
      <point x="40" y="-200" type="line"/>
      <point x="230" y="-200" type="line"/>
      <point x="230" y="14" type="line" smooth="yes"/>
      <point x="230" y="20"/>
      <point x="227" y="27"/>
      <point x="225" y="33" type="curve"/>
      <point x="225" y="420" type="line"/>
      <point x="198" y="460" type="line"/>
      <point x="40" y="460" type="line"/>
    </contour>
    <contour>
      <point x="195" y="33" type="line"/>
      <point x="214" y="33" type="line"/>
      <point x="243" y="5"/>
      <point x="306" y="-16"/>
      <point x="360" y="-16" type="curve" smooth="yes"/>
      <point x="507" y="-16"/>
      <point x="604" y="82"/>
      <point x="604" y="231" type="curve" smooth="yes"/>
      <point x="604" y="374"/>
      <point x="510" y="476"/>
      <point x="378" y="476" type="curve" smooth="yes"/>
      <point x="314" y="476"/>
      <point x="257" y="455"/>
      <point x="227" y="420" type="curve"/>
      <point x="195" y="420" type="line"/>
    </contour>
    <contour>
      <point x="225" y="226" type="curve" smooth="yes"/>
      <point x="225" y="232" type="line" smooth="yes"/>
      <point x="225" y="289"/>
      <point x="262" y="326"/>
      <point x="317" y="326" type="curve" smooth="yes"/>
      <point x="376" y="326"/>
      <point x="410" y="291"/>
      <point x="410" y="231" type="curve" smooth="yes"/>
      <point x="410" y="171"/>
      <point x="375" y="134"/>
      <point x="317" y="134" type="curve" smooth="yes"/>
      <point x="263" y="134"/>
      <point x="225" y="172"/>
    </contour>
  </outline>
  <guideline angle="90" name="h_1" x="283" y="0"/>
</glyph>
<glyph name="q" format="2">
  <advance width="652"/>
  <unicode hex="0071"/>
  <outline>
    <contour>
      <point x="422" y="-200" type="line"/>
      <point x="612" y="-200" type="line"/>
      <point x="612" y="460" type="line"/>
      <point x="444" y="460" type="line"/>
      <point x="426" y="364" type="line"/>
      <point x="426" y="80" type="line"/>
      <point x="423" y="73"/>
      <point x="422" y="67"/>
      <point x="422" y="60" type="curve" smooth="yes"/>
    </contour>
    <contour>
      <point x="30" y="231" type="curve" smooth="yes"/>
      <point x="30" y="82"/>
      <point x="132" y="-16"/>
      <point x="284" y="-16" type="curve" smooth="yes"/>
      <point x="343" y="-16"/>
      <point x="407" y="7"/>
      <point x="437" y="33" type="curve"/>
      <point x="446" y="33" type="line"/>
      <point x="446" y="420" type="line"/>
      <point x="422" y="420" type="line"/>
      <point x="389" y="457"/>
      <point x="328" y="476"/>
      <point x="264" y="476" type="curve" smooth="yes"/>
      <point x="145" y="476"/>
      <point x="30" y="391"/>
    </contour>
    <contour>
      <point x="224" y="231" type="curve" smooth="yes"/>
      <point x="224" y="288"/>
      <point x="264" y="326"/>
      <point x="325" y="326" type="curve" smooth="yes"/>
      <point x="386" y="326"/>
      <point x="426" y="288"/>
      <point x="426" y="232" type="curve" smooth="yes"/>
      <point x="426" y="226" type="line" smooth="yes"/>
      <point x="426" y="171"/>
      <point x="386" y="134"/>
      <point x="325" y="134" type="curve" smooth="yes"/>
      <point x="264" y="134"/>
      <point x="224" y="173"/>
    </contour>
  </outline>
</glyph>
<glyph name="r" format="2">
  <advance width="472"/>
  <unicode hex="0072"/>
  <anchor x="248" y="-40" name="bottom"/>
  <anchor x="248" y="530" name="top"/>
  <outline>
    <contour>
      <point x="40" y="0" type="line"/>
      <point x="230" y="0" type="line"/>
      <point x="230" y="167" type="line" smooth="yes"/>
      <point x="230" y="232"/>
      <point x="274" y="276"/>
      <point x="336" y="276" type="curve" smooth="yes"/>
      <point x="387" y="276"/>
      <point x="423" y="266"/>
      <point x="451" y="248" type="curve"/>
      <point x="455" y="248" type="line"/>
      <point x="455" y="462" type="line"/>
      <point x="436" y="469"/>
      <point x="405" y="473"/>
      <point x="377" y="473" type="curve" smooth="yes"/>
      <point x="315" y="473"/>
      <point x="241" y="430"/>
      <point x="205" y="362" type="curve"/>
      <point x="228" y="362" type="line"/>
      <point x="205" y="460" type="line"/>
      <point x="40" y="460" type="line"/>
    </contour>
  </outline>
  <guideline angle="90" name="h_1" x="248" y="0"/>
</glyph>
<glyph name="s" format="2">
  <advance width="538"/>
  <unicode hex="0073"/>
  <anchor x="259" y="530" name="top"/>
  <anchor x="259" y="-40" name="bottom"/>
  <anchor x="264" y="-0" name="b.cedilla"/>
  <outline>
    <contour>
      <point x="42" y="144" type="line"/>
      <point x="42" y="44"/>
      <point x="128" y="-16"/>
      <point x="270" y="-16" type="curve" smooth="yes"/>
      <point x="418" y="-16"/>
      <point x="508" y="39"/>
      <point x="508" y="142" type="curve" smooth="yes"/>
      <point x="508" y="315"/>
      <point x="214" y="272"/>
      <point x="214" y="318" type="curve" smooth="yes"/>
      <point x="214" y="333"/>
      <point x="229" y="340"/>
      <point x="259" y="340" type="curve" smooth="yes"/>
      <point x="289" y="340"/>
      <point x="312" y="332"/>
      <point x="312" y="316" type="curve"/>
      <point x="484" y="316" type="line"/>
      <point x="484" y="419"/>
      <point x="400" y="476"/>
      <point x="249" y="476" type="curve" smooth="yes"/>
      <point x="121" y="476"/>
      <point x="30" y="419"/>
      <point x="30" y="323" type="curve" smooth="yes"/>
      <point x="30" y="153"/>
      <point x="324" y="197"/>
      <point x="324" y="142" type="curve" smooth="yes"/>
      <point x="324" y="127"/>
      <point x="307" y="120"/>
      <point x="270" y="120" type="curve" smooth="yes"/>
      <point x="239" y="120"/>
      <point x="214" y="129"/>
      <point x="214" y="144" type="curve"/>
    </contour>
  </outline>
  <guideline angle="90" name="h_1" x="259" y="0"/>
</glyph>
<glyph name="t" format="2">
  <advance width="412"/>
  <unicode hex="0074"/>
  <anchor x="264" y="-40" name="bottom"/>
  <anchor x="211" y="660" name="top"/>
  <anchor x="415" y="700" name="t.quoteright"/>
  <outline>
    <contour>
      <point x="10" y="320" type="line"/>
      <point x="369" y="320" type="line"/>
      <point x="369" y="460" type="line"/>
      <point x="106" y="460" type="line"/>
      <point x="10" y="442" type="line"/>
    </contour>
    <contour>
      <point x="104" y="180" type="line" smooth="yes"/>
      <point x="104" y="45"/>
      <point x="160" y="-9"/>
      <point x="318" y="-9" type="curve" smooth="yes"/>
      <point x="383" y="-9" type="line"/>
      <point x="383" y="131" type="line"/>
      <point x="367" y="131" type="line" smooth="yes"/>
      <point x="312" y="131"/>
      <point x="294" y="157"/>
      <point x="294" y="205" type="curve" smooth="yes"/>
      <point x="294" y="610" type="line"/>
      <point x="139" y="610" type="line"/>
      <point x="112" y="443" type="line"/>
      <point x="104" y="443" type="line"/>
    </contour>
  </outline>
  <guideline angle="90" name="h_1" x="211" y="0"/>
</glyph>
<glyph name="u" format="2">
  <advance width="646"/>
  <unicode hex="0075"/>
  <anchor x="323" y="540" name="top"/>
  <anchor x="323" y="-40" name="bottom"/>
  <anchor x="323" y="540" name="t.ring"/>
  <outline>
    <contour>
      <point x="40" y="165" type="line" smooth="yes"/>
      <point x="40" y="47"/>
      <point x="122" y="-16"/>
      <point x="244" y="-16" type="curve" smooth="yes"/>
      <point x="315" y="-16"/>
      <point x="388" y="14"/>
      <point x="432" y="68" type="curve"/>
      <point x="427" y="68" type="line"/>
      <point x="427" y="64" type="line"/>
      <point x="442" y="64" type="line"/>
      <point x="442" y="248" type="line"/>
      <point x="416" y="248" type="line"/>
      <point x="416" y="174"/>
      <point x="382" y="129"/>
      <point x="323" y="129" type="curve" smooth="yes"/>
      <point x="264" y="129"/>
      <point x="230" y="169"/>
      <point x="230" y="223" type="curve" smooth="yes"/>
      <point x="230" y="460" type="line"/>
      <point x="40" y="460" type="line"/>
    </contour>
    <contour>
      <point x="416" y="58" type="line"/>
      <point x="427" y="58" type="line"/>
      <point x="443" y="0" type="line"/>
      <point x="606" y="0" type="line"/>
      <point x="606" y="460" type="line"/>
      <point x="416" y="460" type="line"/>
    </contour>
  </outline>
  <guideline angle="90" name="h_1" x="323" y="0"/>
</glyph>
<glyph name="v" format="2">
  <advance width="690"/>
  <unicode hex="0076"/>
  <anchor x="344" y="530" name="top"/>
  <anchor x="344" y="-40" name="bottom"/>
  <outline>
    <contour>
      <point x="216" y="0" type="line"/>
      <point x="474" y="0" type="line"/>
      <point x="678" y="460" type="line"/>
      <point x="465" y="460" type="line"/>
      <point x="303" y="54" type="line"/>
      <point x="387" y="54" type="line"/>
      <point x="225" y="460" type="line"/>
      <point x="12" y="460" type="line"/>
    </contour>
  </outline>
  <guideline angle="90" name="h_1" x="344" y="0"/>
</glyph>
<glyph name="w" format="2">
  <advance width="1023"/>
  <unicode hex="0077"/>
  <anchor x="512" y="-40" name="bottom"/>
  <anchor x="512" y="530" name="top"/>
  <outline>
    <contour>
      <point x="215" y="0" type="line"/>
      <point x="413" y="0" type="line"/>
      <point x="502" y="230" type="line" smooth="yes"/>
      <point x="508" y="246"/>
      <point x="512" y="264"/>
      <point x="512" y="280" type="curve"/>
      <point x="439" y="270" type="line"/>
      <point x="583" y="270" type="line"/>
      <point x="512" y="280" type="line"/>
      <point x="513" y="264"/>
      <point x="516" y="246"/>
      <point x="522" y="230" type="curve" smooth="yes"/>
      <point x="611" y="0" type="line"/>
      <point x="809" y="0" type="line"/>
      <point x="1011" y="460" type="line"/>
      <point x="809" y="460" type="line"/>
      <point x="720" y="242" type="line" smooth="yes"/>
      <point x="713" y="226"/>
      <point x="711" y="207"/>
      <point x="710" y="190" type="curve"/>
      <point x="769" y="200" type="line"/>
      <point x="645" y="200" type="line"/>
      <point x="710" y="190" type="line"/>
      <point x="710" y="207"/>
      <point x="707" y="226"/>
      <point x="700" y="242" type="curve" smooth="yes"/>
      <point x="611" y="460" type="line"/>
      <point x="413" y="460" type="line"/>
      <point x="324" y="242" type="line" smooth="yes"/>
      <point x="317" y="226"/>
      <point x="315" y="207"/>
      <point x="314" y="190" type="curve"/>
      <point x="355" y="200" type="line"/>
      <point x="270" y="200" type="line"/>
      <point x="314" y="190" type="line"/>
      <point x="314" y="207"/>
      <point x="311" y="226"/>
      <point x="304" y="242" type="curve" smooth="yes"/>
      <point x="215" y="460" type="line"/>
      <point x="12" y="460" type="line"/>
    </contour>
  </outline>
  <guideline angle="90" name="h_1" x="512" y="0"/>
  <guideline angle="0" x="0" y="50"/>
  <guideline angle="0" x="0" y="400"/>
  <guideline angle="90" x="314" y="0"/>
  <guideline angle="90" x="710" y="0"/>
  <guideline angle="0" x="0" y="20"/>
</glyph>
<glyph name="x" format="2">
  <advance width="645"/>
  <unicode hex="0078"/>
  <anchor x="323" y="-40" name="bottom"/>
  <anchor x="323" y="530" name="top"/>
  <outline>
    <contour>
      <point x="10" y="0" type="line"/>
      <point x="240" y="0" type="line"/>
      <point x="336" y="123" type="line"/>
      <point x="419" y="215" type="line"/>
      <point x="623" y="460" type="line"/>
      <point x="393" y="460" type="line"/>
      <point x="306" y="342" type="line"/>
      <point x="228" y="259" type="line"/>
    </contour>
    <contour>
      <point x="23" y="460" type="line"/>
      <point x="228" y="213" type="line"/>
      <point x="311" y="123" type="line"/>
      <point x="405" y="0" type="line"/>
      <point x="635" y="0" type="line"/>
      <point x="419" y="259" type="line"/>
      <point x="339" y="342" type="line"/>
      <point x="253" y="460" type="line"/>
    </contour>
  </outline>
  <guideline angle="0" x="0" y="342"/>
  <guideline angle="0" x="0" y="123"/>
  <guideline angle="90" name="h_1" x="323" y="0"/>
</glyph>
<glyph name="y" format="2">
  <advance width="651"/>
  <unicode hex="0079"/>
  <anchor x="328" y="530" name="top"/>
  <anchor x="549" y="-40" name="bottom"/>
  <outline>
    <contour>
      <point x="86" y="-192" type="line"/>
      <point x="104" y="-197"/>
      <point x="126" y="-200"/>
      <point x="154" y="-200" type="curve" smooth="yes"/>
      <point x="287" y="-200"/>
      <point x="383" y="-146"/>
      <point x="424" y="-49" type="curve" smooth="yes"/>
      <point x="639" y="460" type="line"/>
      <point x="442" y="460" type="line"/>
      <point x="239" y="-25" type="line"/>
      <point x="231" y="-47"/>
      <point x="191" y="-74"/>
      <point x="133" y="-74" type="curve" smooth="yes"/>
      <point x="102" y="-74"/>
      <point x="92" y="-73"/>
      <point x="86" y="-71" type="curve"/>
    </contour>
    <contour>
      <point x="12" y="460" type="line"/>
      <point x="264" y="-59" type="line"/>
      <point x="389" y="67" type="line"/>
      <point x="214" y="460" type="line"/>
    </contour>
  </outline>
  <guideline angle="90" x="328" y="0"/>
</glyph>
<glyph name="z" format="2">
  <advance width="539"/>
  <unicode hex="007A"/>
  <anchor x="275" y="530" name="top"/>
  <anchor x="275" y="-40" name="bottom"/>
  <outline>
    <contour>
      <point x="49" y="0" type="line"/>
      <point x="489" y="0" type="line"/>
      <point x="489" y="156" type="line"/>
      <point x="234" y="156" type="line"/>
      <point x="239" y="76" type="line"/>
      <point x="489" y="332" type="line"/>
      <point x="489" y="460" type="line"/>
      <point x="49" y="460" type="line"/>
      <point x="49" y="304" type="line"/>
      <point x="317" y="304" type="line"/>
      <point x="312" y="384" type="line"/>
      <point x="49" y="128" type="line"/>
    </contour>
  </outline>
  <guideline angle="90" name="h_1" x="275" y="0"/>
</glyph>
<glyph name="bar" format="2">
  <advance width="318"/>
  <unicode hex="007C"/>
  <outline>
    <contour>
      <point x="60" y="-80" type="line"/>
      <point x="258" y="-80" type="line"/>
      <point x="258" y="780" type="line"/>
      <point x="60" y="780" type="line"/>
    </contour>
  </outline>
</glyph>
<glyph name="braceright" format="2">
  <advance width="324"/>
  <unicode hex="007D"/>
  <outline>
    <contour>
      <point x="40" y="-80" type="line"/>
      <point x="184" y="-80"/>
      <point x="214" y="-50"/>
      <point x="214" y="97" type="curve" smooth="yes"/>
      <point x="214" y="230" type="line" smooth="yes"/>
      <point x="214" y="287"/>
      <point x="232" y="312"/>
      <point x="284" y="326" type="curve"/>
      <point x="284" y="374" type="line"/>
      <point x="230" y="390"/>
      <point x="214" y="412"/>
      <point x="214" y="468" type="curve" smooth="yes"/>
      <point x="214" y="615" type="line" smooth="yes"/>
      <point x="214" y="741"/>
      <point x="173" y="780"/>
      <point x="40" y="780" type="curve"/>
      <point x="40" y="722" type="line"/>
      <point x="112" y="722"/>
      <point x="134" y="701"/>
      <point x="134" y="628" type="curve" smooth="yes"/>
      <point x="134" y="460" type="line" smooth="yes"/>
      <point x="134" y="410"/>
      <point x="155" y="374"/>
      <point x="198" y="348" type="curve"/>
      <point x="159" y="329"/>
      <point x="134" y="284"/>
      <point x="134" y="234" type="curve" smooth="yes"/>
      <point x="134" y="74" type="line" smooth="yes"/>
      <point x="134" y="2"/>
      <point x="108" y="-26"/>
      <point x="40" y="-26" type="curve"/>
    </contour>
  </outline>
</glyph>
<glyph name="currency" format="2">
  <advance width="495"/>
  <unicode hex="00A4"/>
  <outline>
    <contour>
      <point x="33" y="314" type="curve" smooth="yes"/>
      <point x="33" y="195"/>
      <point x="127" y="102"/>
      <point x="247" y="102" type="curve" smooth="yes"/>
      <point x="366" y="102"/>
      <point x="460" y="196"/>
      <point x="460" y="314" type="curve" smooth="yes"/>
      <point x="460" y="433"/>
      <point x="364" y="530"/>
      <point x="247" y="530" type="curve" smooth="yes"/>
      <point x="129" y="530"/>
      <point x="33" y="434"/>
    </contour>
    <contour>
      <point x="174" y="316" type="curve" smooth="yes"/>
      <point x="174" y="357"/>
      <point x="206" y="389"/>
      <point x="247" y="389" type="curve" smooth="yes"/>
      <point x="288" y="389"/>
      <point x="320" y="357"/>
      <point x="320" y="316" type="curve" smooth="yes"/>
      <point x="320" y="275"/>
      <point x="288" y="243"/>
      <point x="247" y="243" type="curve" smooth="yes"/>
      <point x="206" y="243"/>
      <point x="174" y="275"/>
    </contour>
    <contour>
      <point x="-16" y="494" type="line"/>
      <point x="70" y="409" type="line"/>
      <point x="157" y="497" type="line"/>
      <point x="73" y="583" type="line"/>
    </contour>
    <contour>
      <point x="338" y="496" type="line"/>
      <point x="427" y="406" type="line"/>
      <point x="511" y="491" type="line"/>
      <point x="421" y="579" type="line"/>
    </contour>
    <contour>
      <point x="-16" y="143" type="line"/>
      <point x="76" y="51" type="line"/>
      <point x="154" y="130" type="line"/>
      <point x="64" y="221" type="line"/>
    </contour>
    <contour>
      <point x="342" y="140" type="line"/>
      <point x="425" y="58" type="line"/>
      <point x="507" y="141" type="line"/>
      <point x="426" y="222" type="line"/>
    </contour>
  </outline>
  <guideline angle="314.326" x="59" y="599"/>
  <guideline angle="135.335" x="85" y="394"/>
  <guideline angle="45" x="353" y="511"/>
  <guideline angle="225.339" x="496" y="476"/>
  <guideline angle="315.971" x="436" y="564"/>
  <guideline angle="45" x="-1" y="509"/>
  <guideline angle="225.481" x="494" y="128"/>
  <guideline angle="135" x="59" y="68"/>
  <guideline angle="225.49" x="143" y="483"/>
  <guideline angle="134.519" x="412" y="421"/>
  <guideline angle="44.5103" x="354" y="151"/>
  <guideline angle="314.51" x="79" y="206"/>
</glyph>
<glyph name="dieresis" format="2">
  <advance width="520"/>
  <unicode hex="00A8"/>
  <outline>
    <contour>
      <point x="40" y="560" type="line"/>
      <point x="220" y="560" type="line"/>
      <point x="220" y="740" type="line"/>
      <point x="40" y="740" type="line"/>
    </contour>
    <contour>
      <point x="300" y="560" type="line"/>
      <point x="480" y="560" type="line"/>
      <point x="480" y="740" type="line"/>
      <point x="300" y="740" type="line"/>
    </contour>
  </outline>
  <guideline angle="90" x="40" y="0"/>
  <guideline angle="90" x="480" y="0"/>
  <guideline angle="90" x="260" y="0"/>
</glyph>
<glyph name="ordfeminine" format="2">
  <advance width="458"/>
  <unicode hex="00AA"/>
  <outline>
    <contour>
      <point x="41" y="620" type="curve"/>
      <point x="153" y="620" type="line"/>
      <point x="160.777" y="646.4"/>
      <point x="191.837" y="664"/>
      <point x="230.651" y="664" type="curve" smooth="yes"/>
      <point x="273.461" y="664"/>
      <point x="302" y="642.991"/>
      <point x="302" y="611.478" type="curve" smooth="yes"/>
      <point x="302" y="464.227" type="line"/>
      <point x="317" y="414" type="line"/>
      <point x="418" y="414" type="line"/>
      <point x="418" y="631.677" type="line" smooth="yes"/>
      <point x="418" y="696.671"/>
      <point x="345.692" y="740"/>
      <point x="237.23" y="740" type="curve" smooth="yes"/>
      <point x="132.32" y="740"/>
      <point x="53.8283" y="692"/>
    </contour>
    <contour>
      <point x="30" y="500.115" type="curve" smooth="yes"/>
      <point x="30" y="439"/>
      <point x="78.883" y="406"/>
      <point x="162.499" y="406" type="curve" smooth="yes"/>
      <point x="231.964" y="406"/>
      <point x="299.502" y="435.78"/>
      <point x="332" y="483.189" type="curve"/>
      <point x="326" y="545" type="line"/>
      <point x="304.292" y="515.169"/>
      <point x="251.594" y="490"/>
      <point x="193.04" y="490" type="curve" smooth="yes"/>
      <point x="163.764" y="490"/>
      <point x="138" y="498.474"/>
      <point x="138" y="513.727" type="curve" smooth="yes"/>
      <point x="138" y="543"/>
      <point x="175.487" y="557"/>
      <point x="313" y="557" type="curve"/>
      <point x="313" y="612" type="line"/>
      <point x="91.4017" y="612"/>
      <point x="30" y="568"/>
    </contour>
  </outline>
</glyph>
<glyph name="two.superior" format="2">
  <advance width="368"/>
  <unicode hex="00B2"/>
  <outline>
    <contour>
      <point x="54" y="354" type="line"/>
      <point x="318" y="354" type="line"/>
      <point x="318" y="454" type="line"/>
      <point x="137" y="454" type="line"/>
      <point x="137" y="387" type="line"/>
      <point x="261" y="482" type="line" smooth="yes"/>
      <point x="300" y="512"/>
      <point x="318" y="545"/>
      <point x="318" y="590" type="curve" smooth="yes"/>
      <point x="318" y="659"/>
      <point x="267" y="704"/>
      <point x="187" y="704" type="curve" smooth="yes"/>
      <point x="101" y="704"/>
      <point x="55" y="660"/>
      <point x="55" y="576" type="curve"/>
      <point x="166" y="576" type="line"/>
      <point x="166" y="590"/>
      <point x="170" y="598"/>
      <point x="180" y="598" type="curve" smooth="yes"/>
      <point x="188" y="598"/>
      <point x="193" y="589"/>
      <point x="193" y="577" type="curve" smooth="yes"/>
      <point x="193" y="556"/>
      <point x="174" y="542"/>
      <point x="151" y="526" type="curve" smooth="yes"/>
      <point x="54" y="458" type="line"/>
    </contour>
  </outline>
</glyph>
<glyph name="acute" format="2">
  <advance width="375"/>
  <unicode hex="00B4"/>
  <outline>
    <contour>
      <point x="30" y="540" type="line"/>
      <point x="220" y="540" type="line"/>
      <point x="345" y="720" type="line"/>
      <point x="95" y="720" type="line"/>
    </contour>
  </outline>
</glyph>
<glyph name="uni00B9" format="2">
  <advance width="315"/>
  <unicode hex="00B9"/>
  <outline>
    <contour>
      <point x="41" y="473" type="line"/>
      <point x="72" y="482"/>
      <point x="105" y="501"/>
      <point x="128" y="522" type="curve"/>
      <point x="109" y="607" type="line"/>
      <point x="109" y="354" type="line"/>
      <point x="269" y="354" type="line"/>
      <point x="269" y="680" type="line"/>
      <point x="135" y="680" type="line"/>
      <point x="114" y="652"/>
      <point x="72" y="616"/>
      <point x="41" y="607" type="curve"/>
    </contour>
  </outline>
</glyph>
<glyph name="ordmasculine" format="2">
  <advance width="471"/>
  <unicode hex="00BA"/>
  <outline>
    <contour>
      <point x="30" y="574" type="curve" smooth="yes"/>
      <point x="30" y="477.021"/>
      <point x="112.003" y="413"/>
      <point x="236.221" y="413" type="curve" smooth="yes"/>
      <point x="356.646" y="413"/>
      <point x="441" y="480.556"/>
      <point x="441" y="577" type="curve" smooth="yes"/>
      <point x="441" y="672.762"/>
      <point x="355.933" y="740"/>
      <point x="234.779" y="740" type="curve" smooth="yes"/>
      <point x="111.158" y="740"/>
      <point x="30" y="674.211"/>
    </contour>
    <contour>
      <point x="138" y="576.085" type="curve" smooth="yes"/>
      <point x="138" y="630.771"/>
      <point x="174.614" y="664"/>
      <point x="234.871" y="664" type="curve" smooth="yes"/>
      <point x="291.081" y="664"/>
      <point x="333" y="627.507"/>
      <point x="333" y="578.573" type="curve" smooth="yes"/>
      <point x="333" y="523.005"/>
      <point x="295.747" y="489"/>
      <point x="234.871" y="489" type="curve" smooth="yes"/>
      <point x="178.594" y="489"/>
      <point x="138" y="525.493"/>
    </contour>
  </outline>
</glyph>
<glyph name="threequarters" format="2">
  <advance width="889"/>
  <unicode hex="00BE"/>
  <outline>
    <contour>
      <point x="3" y="454" type="line"/>
      <point x="15" y="389"/>
      <point x="68" y="338"/>
      <point x="183" y="338" type="curve" smooth="yes"/>
      <point x="264" y="338"/>
      <point x="352" y="370"/>
      <point x="352" y="449" type="curve" smooth="yes"/>
      <point x="352" y="503"/>
      <point x="323" y="543"/>
      <point x="277" y="549" type="curve"/>
      <point x="276" y="534" type="line"/>
      <point x="313" y="538"/>
      <point x="336" y="565"/>
      <point x="336" y="604" type="curve" smooth="yes"/>
      <point x="336" y="662"/>
      <point x="279" y="696"/>
      <point x="181" y="696" type="curve" smooth="yes"/>
      <point x="78" y="696"/>
      <point x="28" y="653"/>
      <point x="4" y="585" type="curve"/>
      <point x="144" y="585" type="line"/>
      <point x="149" y="601"/>
      <point x="154" y="606"/>
      <point x="167" y="606" type="curve" smooth="yes"/>
      <point x="176" y="606"/>
      <point x="186" y="601"/>
      <point x="186" y="588" type="curve" smooth="yes"/>
      <point x="186" y="575"/>
      <point x="172" y="568"/>
      <point x="140" y="568" type="curve"/>
      <point x="140" y="475" type="line"/>
      <point x="146" y="476"/>
      <point x="149" y="476"/>
      <point x="153" y="476" type="curve" smooth="yes"/>
      <point x="180" y="476"/>
      <point x="202" y="472"/>
      <point x="202" y="454" type="curve" smooth="yes"/>
      <point x="202" y="440"/>
      <point x="191" y="428"/>
      <point x="176" y="428" type="curve" smooth="yes"/>
      <point x="155" y="428"/>
      <point x="146" y="440"/>
      <point x="143" y="454" type="curve"/>
    </contour>
    <contour>
      <point x="80" y="0" type="line"/>
      <point x="290" y="0" type="line"/>
      <point x="776" y="680" type="line"/>
      <point x="566" y="680" type="line"/>
    </contour>
    <contour>
      <point x="498" y="46" type="line"/>
      <point x="862" y="46" type="line"/>
      <point x="862" y="146" type="line"/>
      <point x="613" y="146" type="line"/>
      <point x="617" y="105" type="line"/>
      <point x="682" y="237" type="line"/>
      <point x="674" y="240" type="line"/>
      <point x="674" y="0" type="line"/>
      <point x="814" y="0" type="line"/>
      <point x="814" y="326" type="line"/>
      <point x="622" y="326" type="line"/>
      <point x="498" y="120" type="line"/>
    </contour>
  </outline>
</glyph>
<glyph name="questiondown" format="2">
  <advance width="502"/>
  <unicode hex="00BF"/>
  <outline>
    <contour>
      <point x="192" y="300" type="line"/>
      <point x="352" y="300" type="line"/>
      <point x="352" y="460" type="line"/>
      <point x="192" y="460" type="line"/>
    </contour>
    <contour>
      <point x="40" y="-49" type="curve" smooth="yes"/>
      <point x="40" y="-170"/>
      <point x="106" y="-250"/>
      <point x="252" y="-250" type="curve" smooth="yes"/>
      <point x="373" y="-250"/>
      <point x="461" y="-160"/>
      <point x="462" y="-20" type="curve"/>
      <point x="309" y="-20" type="line"/>
      <point x="304" y="-67"/>
      <point x="290" y="-90"/>
      <point x="252" y="-90" type="curve" smooth="yes"/>
      <point x="229" y="-90"/>
      <point x="200" y="-73"/>
      <point x="200" y="-38" type="curve" smooth="yes"/>
      <point x="200" y="61"/>
      <point x="352" y="36"/>
      <point x="352" y="210" type="curve" smooth="yes"/>
      <point x="352" y="250" type="line"/>
      <point x="192" y="250" type="line"/>
      <point x="192" y="210" type="line" smooth="yes"/>
      <point x="192" y="110"/>
      <point x="40" y="80"/>
    </contour>
  </outline>
</glyph>
<glyph name="AE" format="2">
  <advance width="1034"/>
  <unicode hex="00C6"/>
  <anchor x="581" y="740" name="top"/>
  <outline>
    <contour>
      <point x="10" y="0" type="line"/>
      <point x="216" y="0" type="line"/>
      <point x="490" y="612" type="line"/>
      <point x="385" y="520" type="line"/>
      <point x="480" y="520" type="line"/>
      <point x="480" y="0" type="line"/>
      <point x="970" y="0" type="line"/>
      <point x="970" y="160" type="line"/>
      <point x="678" y="160" type="line"/>
      <point x="678" y="265" type="line"/>
      <point x="930" y="265" type="line"/>
      <point x="930" y="425" type="line"/>
      <point x="678" y="425" type="line"/>
      <point x="678" y="520" type="line"/>
      <point x="970" y="520" type="line"/>
      <point x="970" y="680" type="line"/>
      <point x="298" y="680" type="line"/>
    </contour>
    <contour>
      <point x="185" y="212" type="line"/>
      <point x="535" y="212" type="line"/>
      <point x="535" y="372" type="line"/>
      <point x="205" y="372" type="line"/>
    </contour>
  </outline>
</glyph>
<glyph name="multiply" format="2">
  <advance width="520"/>
  <unicode hex="00D7"/>
  <outline>
    <contour>
      <point x="45.2372" y="425.77" type="line"/>
      <point x="371.234" y="99.7663" type="line"/>
      <point x="473.766" y="204.234" type="line"/>
      <point x="147.766" y="530.234" type="line"/>
    </contour>
    <contour>
      <point x="45.2372" y="204.23" type="line"/>
      <point x="147.766" y="99.7663" type="line"/>
      <point x="473.766" y="425.766" type="line"/>
      <point x="371.234" y="530.234" type="line"/>
    </contour>
  </outline>
</glyph>
<glyph name="Oslash" format="2">
  <advance width="660"/>
  <unicode hex="00D8"/>
  <outline>
    <contour>
      <point x="26" y="340" type="curve" smooth="yes"/>
      <point x="26" y="123"/>
      <point x="151" y="-16"/>
      <point x="348" y="-16" type="curve"/>
      <point x="348" y="144" type="line"/>
      <point x="264" y="144"/>
      <point x="210" y="221"/>
      <point x="210" y="340" type="curve" smooth="yes"/>
      <point x="210" y="459"/>
      <point x="264" y="536"/>
      <point x="348" y="536" type="curve"/>
      <point x="348" y="696" type="line"/>
      <point x="151" y="696"/>
      <point x="26" y="557"/>
    </contour>
    <contour>
      <point x="-56" y="-10" type="line"/>
      <point x="124" y="-10" type="line"/>
      <point x="716" y="690" type="line"/>
      <point x="536" y="690" type="line"/>
    </contour>
    <contour>
      <point x="348" y="-16" type="line"/>
      <point x="545" y="-16"/>
      <point x="670" y="123"/>
      <point x="670" y="340" type="curve" smooth="yes"/>
      <point x="670" y="557"/>
      <point x="545" y="696"/>
      <point x="348" y="696" type="curve"/>
      <point x="348" y="536" type="line"/>
      <point x="432" y="536"/>
      <point x="486" y="459"/>
      <point x="486" y="340" type="curve" smooth="yes"/>
      <point x="486" y="221"/>
      <point x="432" y="144"/>
      <point x="348" y="144" type="curve"/>
    </contour>
  </outline>
</glyph>
<glyph name="Thorn" format="2">
  <advance width="620"/>
  <unicode hex="00DE"/>
  <outline>
    <contour>
      <point x="50" y="0" type="line"/>
      <point x="248" y="0" type="line"/>
      <point x="248" y="690" type="line"/>
      <point x="50" y="690" type="line"/>
    </contour>
    <contour>
      <point x="200" y="91" type="line"/>
      <point x="281" y="91" type="line" smooth="yes"/>
      <point x="510" y="91"/>
      <point x="590" y="209"/>
      <point x="590" y="349" type="curve" smooth="yes"/>
      <point x="590" y="492"/>
      <point x="514" y="607"/>
      <point x="289" y="607" type="curve" smooth="yes"/>
      <point x="200" y="607" type="line"/>
      <point x="200" y="450" type="line"/>
      <point x="281" y="450" type="line" smooth="yes"/>
      <point x="351" y="450"/>
      <point x="388" y="402"/>
      <point x="388" y="348" type="curve" smooth="yes"/>
      <point x="388" y="287"/>
      <point x="351" y="248"/>
      <point x="281" y="248" type="curve" smooth="yes"/>
      <point x="200" y="248" type="line"/>
    </contour>
  </outline>
</glyph>
<glyph name="germandbls" format="2">
  <advance width="677"/>
  <unicode hex="00DF"/>
  <outline>
    <contour>
      <point x="40" y="0" type="line"/>
      <point x="216" y="0" type="line"/>
      <point x="216" y="463" type="line" smooth="yes"/>
      <point x="216" y="510"/>
      <point x="264" y="540"/>
      <point x="324" y="540" type="curve" smooth="yes"/>
      <point x="383" y="540"/>
      <point x="421" y="516"/>
      <point x="421" y="482" type="curve" smooth="yes"/>
      <point x="421" y="459"/>
      <point x="402" y="440"/>
      <point x="373" y="440" type="curve" smooth="yes"/>
      <point x="357" y="440" type="line"/>
      <point x="357" y="284" type="line"/>
      <point x="373" y="284" type="line" smooth="yes"/>
      <point x="428" y="284"/>
      <point x="467" y="253"/>
      <point x="467" y="210" type="curve" smooth="yes"/>
      <point x="467" y="164"/>
      <point x="429" y="140"/>
      <point x="358" y="140" type="curve" smooth="yes"/>
      <point x="332" y="140"/>
      <point x="307" y="143"/>
      <point x="260" y="151" type="curve"/>
      <point x="260" y="-4" type="line"/>
      <point x="301" y="-12"/>
      <point x="330" y="-16"/>
      <point x="368" y="-16" type="curve" smooth="yes"/>
      <point x="543" y="-16"/>
      <point x="647" y="75"/>
      <point x="647" y="227" type="curve" smooth="yes"/>
      <point x="647" y="322"/>
      <point x="587" y="393"/>
      <point x="498" y="404" type="curve"/>
      <point x="500" y="367" type="line"/>
      <point x="566" y="391"/>
      <point x="601" y="443"/>
      <point x="601" y="518" type="curve" smooth="yes"/>
      <point x="601" y="627"/>
      <point x="490" y="696"/>
      <point x="327" y="696" type="curve" smooth="yes"/>
      <point x="151" y="696"/>
      <point x="40" y="608"/>
      <point x="40" y="475" type="curve" smooth="yes"/>
    </contour>
  </outline>
</glyph>
<glyph name="ae" format="2">
  <advance width="757"/>
  <unicode hex="00E6"/>
  <outline>
    <contour>
      <point x="396" y="290" type="line"/>
      <point x="406" y="353"/>
      <point x="458" y="411"/>
      <point x="517" y="411" type="curve" smooth="yes"/>
      <point x="587" y="411"/>
      <point x="622" y="358"/>
      <point x="635" y="290" type="curve"/>
    </contour>
    <contour>
      <point x="110" y="136" type="curve" smooth="yes"/>
      <point x="110" y="191"/>
      <point x="172" y="207"/>
      <point x="232" y="217" type="curve" smooth="yes"/>
      <point x="327" y="233" type="line"/>
      <point x="327" y="141" type="line"/>
      <point x="304" y="90"/>
      <point x="243" y="49"/>
      <point x="189" y="49" type="curve" smooth="yes"/>
      <point x="163" y="49"/>
      <point x="110" y="69"/>
    </contour>
    <contour>
      <point x="30" y="128" type="curve" smooth="yes"/>
      <point x="30" y="43"/>
      <point x="93" y="-16"/>
      <point x="177" y="-16" type="curve" smooth="yes"/>
      <point x="257" y="-16"/>
      <point x="308" y="21"/>
      <point x="367" y="74" type="curve"/>
      <point x="410" y="8"/>
      <point x="457" y="-16"/>
      <point x="532" y="-16" type="curve" smooth="yes"/>
      <point x="634" y="-16"/>
      <point x="684" y="74"/>
      <point x="699" y="114" type="curve"/>
      <point x="614" y="114" type="line"/>
      <point x="597" y="82"/>
      <point x="561" y="49"/>
      <point x="517" y="49" type="curve" smooth="yes"/>
      <point x="444" y="49"/>
      <point x="395" y="126"/>
      <point x="395" y="230" type="curve"/>
      <point x="711" y="230" type="line"/>
      <point x="711" y="250" type="line" smooth="yes"/>
      <point x="711" y="372"/>
      <point x="640" y="476"/>
      <point x="516" y="476" type="curve" smooth="yes"/>
      <point x="445" y="476"/>
      <point x="409" y="441"/>
      <point x="376" y="398" type="curve"/>
      <point x="342" y="446"/>
      <point x="284" y="476"/>
      <point x="228" y="476" type="curve" smooth="yes"/>
      <point x="137" y="476"/>
      <point x="65" y="413"/>
      <point x="55" y="320" type="curve"/>
      <point x="120" y="320" type="line"/>
      <point x="124" y="369"/>
      <point x="171" y="411"/>
      <point x="227" y="411" type="curve" smooth="yes"/>
      <point x="271" y="411"/>
      <point x="327" y="371"/>
      <point x="327" y="320" type="curve" smooth="yes"/>
      <point x="327" y="294" type="line"/>
      <point x="209" y="276" type="line" smooth="yes"/>
      <point x="116" y="262"/>
      <point x="30" y="227"/>
    </contour>
  </outline>
</glyph>
<glyph name="eth" format="2">
  <advance width="669"/>
  <unicode hex="00F0"/>
  <outline>
    <contour>
      <point x="86" y="562" type="line"/>
      <point x="296" y="506"/>
      <point x="435" y="370"/>
      <point x="435" y="219" type="curve"/>
      <point x="638" y="219" type="line"/>
      <point x="638" y="462"/>
      <point x="460" y="640"/>
      <point x="174" y="699" type="curve"/>
    </contour>
    <contour>
      <point x="170" y="440" type="line"/>
      <point x="510" y="607" type="line"/>
      <point x="462" y="669" type="line"/>
      <point x="122" y="502" type="line"/>
    </contour>
    <contour>
      <point x="30" y="215" type="curve" smooth="yes"/>
      <point x="30" y="65"/>
      <point x="156" y="-16"/>
      <point x="334" y="-16" type="curve" smooth="yes"/>
      <point x="510" y="-16"/>
      <point x="638" y="66"/>
      <point x="638" y="215" type="curve" smooth="yes"/>
      <point x="638" y="365"/>
      <point x="512" y="446"/>
      <point x="334" y="446" type="curve" smooth="yes"/>
      <point x="158" y="446"/>
      <point x="30" y="364"/>
    </contour>
    <contour>
      <point x="233" y="215" type="curve" smooth="yes"/>
      <point x="233" y="276"/>
      <point x="277" y="290"/>
      <point x="334" y="290" type="curve" smooth="yes"/>
      <point x="390" y="290"/>
      <point x="435" y="274"/>
      <point x="435" y="215" type="curve" smooth="yes"/>
      <point x="435" y="155"/>
      <point x="391" y="140"/>
      <point x="334" y="140" type="curve" smooth="yes"/>
      <point x="278" y="140"/>
      <point x="233" y="157"/>
    </contour>
  </outline>
  <guideline angle="230.315" x="286" y="699"/>
  <guideline angle="202.768" x="517" y="651"/>
  <guideline angle="22.7682" x="291" y="474"/>
  <guideline angle="127.747" x="565" y="589"/>
  <guideline angle="307.747" x="243" y="536"/>
  <guideline angle="0" x="0" y="699"/>
</glyph>
<glyph name="divide" format="2">
  <advance width="502"/>
  <unicode hex="00F7"/>
  <outline>
    <contour>
      <point x="40" y="180" type="line"/>
      <point x="462" y="180" type="line"/>
      <point x="462" y="340" type="line"/>
      <point x="40" y="340" type="line"/>
    </contour>
    <contour>
      <point x="171" y="-20" type="line"/>
      <point x="331" y="-20" type="line"/>
      <point x="331" y="140" type="line"/>
      <point x="171" y="140" type="line"/>
    </contour>
    <contour>
      <point x="171" y="380" type="line"/>
      <point x="331" y="380" type="line"/>
      <point x="331" y="540" type="line"/>
      <point x="171" y="540" type="line"/>
    </contour>
  </outline>
  <guideline angle="90" x="251" y="0"/>
</glyph>
<glyph name="oslash" format="2">
  <advance width="650"/>
  <unicode hex="00F8"/>
  <outline>
    <component base="o"/>
    <contour>
      <point x="68" y="0" type="line"/>
      <point x="124" y="0" type="line"/>
      <point x="589" y="460" type="line"/>
      <point x="533" y="460" type="line"/>
    </contour>
  </outline>
</glyph>
<glyph name="thorn" format="2">
  <advance width="634"/>
  <unicode hex="00FE"/>
  <outline>
    <component base="p"/>
    <contour>
      <point x="40" y="0" type="line"/>
      <point x="238" y="0" type="line"/>
      <point x="238" y="10" type="line"/>
      <point x="228" y="35" type="line"/>
      <point x="228" y="249" type="line"/>
      <point x="238" y="324" type="line"/>
      <point x="238" y="700" type="line"/>
      <point x="40" y="700" type="line"/>
    </contour>
  </outline>
</glyph>
<glyph name="dcroat" format="2">
  <advance width="664"/>
  <unicode hex="0111"/>
  <outline>
    <component base="d"/>
    <contour>
      <point x="295" y="510" type="line"/>
      <point x="664" y="510" type="line"/>
      <point x="664" y="630" type="line"/>
      <point x="295" y="630" type="line"/>
    </contour>
  </outline>
</glyph>
<glyph name="Hbar" format="2">
  <advance width="774"/>
  <unicode hex="0126"/>
  <anchor x="387" y="-40" name="bottom"/>
  <anchor x="594" y="0" name="b.cedilla"/>
  <outline>
    <component base="H"/>
    <contour>
      <point x="7" y="490" type="line"/>
      <point x="767" y="490" type="line"/>
      <point x="767" y="640" type="line"/>
      <point x="7" y="640" type="line"/>
    </contour>
  </outline>
</glyph>
<glyph name="dotlessi" format="2">
  <advance width="310"/>
  <unicode hex="0131"/>
  <anchor x="155" y="540" name="top"/>
  <anchor x="155" y="-40" name="bottom"/>
  <outline>
    <contour>
      <point x="60" y="0" type="line"/>
      <point x="250" y="0" type="line"/>
      <point x="250" y="460" type="line"/>
      <point x="60" y="460" type="line"/>
    </contour>
  </outline>
  <guideline angle="0" x="0" y="540"/>
  <guideline angle="90" x="155" y="0"/>
</glyph>
<glyph name="kgreenlandic" format="2">
  <advance width="692"/>
  <unicode hex="0138"/>
  <outline>
    <contour>
      <point x="40" y="0" type="line"/>
      <point x="230" y="0" type="line"/>
      <point x="230" y="460" type="line"/>
      <point x="40" y="440" type="line"/>
    </contour>
    <contour>
      <point x="201" y="76" type="line"/>
      <point x="628" y="460" type="line"/>
      <point x="371" y="460" type="line"/>
      <point x="201" y="308" type="line"/>
    </contour>
    <contour>
      <point x="256" y="183" type="line"/>
      <point x="427" y="0" type="line"/>
      <point x="682" y="0" type="line"/>
      <point x="396" y="308" type="line"/>
    </contour>
  </outline>
</glyph>
<glyph name="Lslash" format="2">
  <advance width="521"/>
  <unicode hex="0141"/>
  <outline>
    <component base="L"/>
    <contour>
      <point x="20" y="87" type="line"/>
      <point x="370" y="391" type="line"/>
      <point x="370" y="571" type="line"/>
      <point x="20" y="267" type="line"/>
    </contour>
  </outline>
  <guideline angle="90" x="429" y="0"/>
  <guideline angle="220.941" x="370" y="521"/>
  <guideline angle="40.9407" x="121" y="217"/>
  <guideline angle="90" x="20" y="0"/>
</glyph>
<glyph name="Eng" format="2">
  <advance width="840"/>
  <unicode hex="014A"/>
  <anchor x="419" y="740" name="top"/>
  <anchor x="419" y="-60" name="bottom"/>
  <outline>
    <component base="N"/>
    <contour>
      <point x="523" y="-200" type="line"/>
      <point x="599" y="-200" type="line" smooth="yes"/>
      <point x="725" y="-200"/>
      <point x="790" y="-125"/>
      <point x="790" y="0" type="curve" smooth="yes"/>
      <point x="790" y="100" type="line"/>
      <point x="593" y="100" type="line"/>
      <point x="593" y="-5" type="line" smooth="yes"/>
      <point x="593" y="-23"/>
      <point x="565" y="-40"/>
      <point x="539" y="-40" type="curve" smooth="yes"/>
      <point x="523" y="-40" type="line"/>
    </contour>
  </outline>
  <guideline angle="90" x="247" y="0"/>
  <guideline angle="90" x="592" y="0"/>
  <guideline angle="90" x="419" y="0"/>
</glyph>
<glyph name="eng" format="2">
  <advance width="666"/>
  <unicode hex="014B"/>
  <outline>
    <component base="n"/>
    <contour>
      <point x="354" y="-200" type="line"/>
      <point x="461" y="-200" type="line" smooth="yes"/>
      <point x="552" y="-200"/>
      <point x="626" y="-139"/>
      <point x="626" y="-62" type="curve" smooth="yes"/>
      <point x="626" y="92" type="line"/>
      <point x="428" y="92" type="line"/>
      <point x="428" y="-4" type="line" smooth="yes"/>
      <point x="428" y="-27"/>
      <point x="397" y="-44"/>
      <point x="354" y="-44" type="curve"/>
    </contour>
  </outline>
</glyph>
<glyph name="Tbar" format="2">
  <advance width="568"/>
  <unicode hex="0166"/>
  <outline>
    <contour>
      <point x="10" y="520" type="line"/>
      <point x="558" y="520" type="line"/>
      <point x="558" y="680" type="line"/>
      <point x="10" y="680" type="line"/>
    </contour>
    <contour>
      <point x="185" y="0" type="line"/>
      <point x="383" y="0" type="line"/>
      <point x="383" y="680" type="line"/>
      <point x="185" y="680" type="line"/>
    </contour>
    <contour>
      <point x="50" y="262" type="line"/>
      <point x="518" y="262" type="line"/>
      <point x="518" y="402" type="line"/>
      <point x="50" y="402" type="line"/>
    </contour>
  </outline>
  <guideline angle="90" x="10" y="0"/>
  <guideline angle="90" x="558" y="0"/>
  <guideline angle="90" x="235" y="0"/>
  <guideline angle="90" x="335" y="0"/>
</glyph>
<glyph name="tbar" format="2">
  <advance width="405"/>
  <unicode hex="0167"/>
  <outline>
    <contour>
      <point x="10" y="172" type="line"/>
      <point x="345" y="172" type="line"/>
      <point x="345" y="292" type="line"/>
      <point x="10" y="292" type="line"/>
    </contour>
    <contour>
      <point x="10" y="320" type="line"/>
      <point x="345" y="320" type="line"/>
      <point x="345" y="460" type="line"/>
      <point x="94" y="460" type="line"/>
      <point x="10" y="440" type="line"/>
    </contour>
    <contour>
      <point x="85" y="180" type="line" smooth="yes"/>
      <point x="85" y="44"/>
      <point x="193" y="-9"/>
      <point x="343" y="-9" type="curve" smooth="yes"/>
      <point x="376" y="-9" type="line"/>
      <point x="376" y="111" type="line"/>
      <point x="342" y="111" type="line" smooth="yes"/>
      <point x="273" y="111"/>
      <point x="261" y="138"/>
      <point x="261" y="236" type="curve" smooth="yes"/>
      <point x="261" y="610" type="line"/>
      <point x="105" y="610" type="line"/>
      <point x="92" y="443" type="line"/>
      <point x="85" y="443" type="line"/>
    </contour>
  </outline>
</glyph>
<glyph name="longs" format="2">
  <advance width="440"/>
  <unicode hex="017F"/>
  <anchor x="254" y="740" name="top"/>
  <outline>
    <contour>
      <point x="137" y="0" type="line"/>
      <point x="334" y="0" type="line"/>
      <point x="334" y="509" type="line" smooth="yes"/>
      <point x="334" y="543"/>
      <point x="356" y="560"/>
      <point x="378" y="560" type="curve" smooth="yes"/>
      <point x="403" y="560" type="line"/>
      <point x="403" y="700" type="line"/>
      <point x="346" y="700" type="line" smooth="yes"/>
      <point x="205" y="700"/>
      <point x="137" y="667"/>
      <point x="137" y="525" type="curve" smooth="yes"/>
    </contour>
    <contour>
      <point x="43" y="320" type="line"/>
      <point x="245" y="320" type="line"/>
      <point x="245" y="460" type="line"/>
      <point x="43" y="460" type="line"/>
    </contour>
  </outline>
</glyph>
<glyph name="Obar" format="2">
  <advance width="840"/>
  <unicode hex="019F"/>
  <anchor x="422" y="740" name="top"/>
  <outline>
    <component base="O"/>
    <contour>
      <point x="139" y="282" type="line"/>
      <point x="709" y="282" type="line"/>
      <point x="709" y="432" type="line"/>
      <point x="139" y="432" type="line"/>
    </contour>
  </outline>
</glyph>
<glyph name="uni0237" format="2">
  <advance width="275"/>
  <unicode hex="0237"/>
  <anchor x="140" y="540" name="top"/>
  <outline>
    <contour>
      <point x="-25" y="-200" type="line"/>
      <point x="62" y="-200" type="line" smooth="yes"/>
      <point x="165" y="-200"/>
      <point x="235" y="-141"/>
      <point x="235" y="-54" type="curve" smooth="yes"/>
      <point x="235" y="460" type="line"/>
      <point x="45" y="460" type="line"/>
      <point x="45" y="-25" type="line" smooth="yes"/>
      <point x="45" y="-46"/>
      <point x="31" y="-60"/>
      <point x="10" y="-60" type="curve" smooth="yes"/>
      <point x="-25" y="-60" type="line"/>
    </contour>
  </outline>
  <guideline angle="90" x="45" y="0"/>
  <guideline angle="90" x="235" y="0"/>
  <guideline angle="0" x="0" y="540"/>
  <guideline angle="90" x="140" y="0"/>
</glyph>
<glyph name="obarred" format="2">
  <advance width="650"/>
  <unicode hex="0275"/>
  <anchor x="345" y="530" name="top"/>
  <anchor x="334" y="-40" name="bottom"/>
  <outline>
    <component base="o"/>
    <contour>
      <point x="134" y="188" type="line"/>
      <point x="499" y="188" type="line"/>
      <point x="499" y="278" type="line"/>
      <point x="134" y="278" type="line"/>
    </contour>
  </outline>
</glyph>
<glyph name="circumflex" format="2">
  <advance width="520"/>
  <unicode hex="02C6"/>
  <outline>
    <contour>
      <point x="30" y="540" type="line"/>
      <point x="220" y="540" type="line"/>
      <point x="330" y="647" type="line"/>
      <point x="190" y="647" type="line"/>
      <point x="300" y="540" type="line"/>
      <point x="490" y="540" type="line"/>
      <point x="330" y="720" type="line"/>
      <point x="190" y="720" type="line"/>
    </contour>
  </outline>
  <guideline angle="90" x="260" y="0"/>
  <guideline angle="0" x="0" y="540"/>
</glyph>
<glyph name="breve" format="2">
  <advance width="520"/>
  <unicode hex="02D8"/>
  <outline>
    <contour>
      <point x="50" y="680" type="line"/>
      <point x="50" y="578"/>
      <point x="132" y="524"/>
      <point x="262" y="524" type="curve" smooth="yes"/>
      <point x="388" y="524"/>
      <point x="470" y="578"/>
      <point x="470" y="680" type="curve"/>
      <point x="300" y="680" type="line"/>
      <point x="300" y="645"/>
      <point x="284" y="632"/>
      <point x="260" y="632" type="curve" smooth="yes"/>
      <point x="236" y="632"/>
      <point x="220" y="645"/>
      <point x="220" y="680" type="curve"/>
    </contour>
  </outline>
  <guideline angle="0" x="0" y="524"/>
  <guideline angle="0" x="0" y="524"/>
</glyph>
<glyph name="dotaccent" format="2">
  <advance width="278"/>
  <unicode hex="02D9"/>
  <outline>
    <contour>
      <point x="40" y="560" type="line"/>
      <point x="238" y="560" type="line"/>
      <point x="238" y="740" type="line"/>
      <point x="40" y="740" type="line"/>
    </contour>
  </outline>
  <guideline angle="0" x="0" y="680"/>
</glyph>
<glyph name="ogonek" format="2">
  <advance width="320"/>
  <unicode hex="02DB"/>
  <outline>
    <contour>
      <point x="40" y="-118" type="curve" smooth="yes"/>
      <point x="40" y="-174"/>
      <point x="91" y="-210"/>
      <point x="167" y="-210" type="curve" smooth="yes"/>
      <point x="223" y="-210"/>
      <point x="261" y="-196"/>
      <point x="280" y="-182" type="curve"/>
      <point x="266" y="-98" type="line"/>
      <point x="263" y="-99"/>
      <point x="256" y="-100"/>
      <point x="253" y="-100" type="curve" smooth="yes"/>
      <point x="239" y="-100"/>
      <point x="230" y="-91"/>
      <point x="230" y="-74" type="curve" smooth="yes"/>
      <point x="230" y="-55"/>
      <point x="241" y="-30"/>
      <point x="278" y="0" type="curve"/>
      <point x="150" y="0" type="line"/>
      <point x="84" y="-16"/>
      <point x="40" y="-66"/>
    </contour>
  </outline>
</glyph>
<glyph name="caroncomb" format="2">
  <unicode hex="030C"/>
  <anchor x="-220" y="530" name="_top"/>
  <outline>
    <contour>
      <point x="-290" y="530" type="line"/>
      <point x="-150" y="530" type="line"/>
      <point x="-50" y="720" type="line"/>
      <point x="-170" y="720" type="line"/>
      <point x="-260" y="603" type="line"/>
      <point x="-180" y="603" type="line"/>
      <point x="-270" y="720" type="line"/>
      <point x="-390" y="720" type="line"/>
    </contour>
  </outline>
  <guideline angle="90" x="-220" y="0"/>
  <guideline angle="0" x="0" y="530"/>
</glyph>
<glyph name="mu" format="2">
  <advance width="650"/>
  <unicode hex="03BC"/>
  <outline>
    <contour>
      <point x="40" y="-200" type="line"/>
      <point x="230" y="-200" type="line"/>
      <point x="230" y="-50" type="line" smooth="yes"/>
      <point x="230" y="-4"/>
      <point x="228" y="42"/>
      <point x="220" y="88" type="curve"/>
      <point x="217" y="86" type="line"/>
      <point x="229" y="25"/>
      <point x="269" y="-16"/>
      <point x="325" y="-16" type="curve" smooth="yes"/>
      <point x="357" y="-16"/>
      <point x="399" y="-2"/>
      <point x="423" y="40" type="curve"/>
      <point x="426" y="40" type="line"/>
      <point x="426" y="0" type="line"/>
      <point x="610" y="0" type="line"/>
      <point x="610" y="460" type="line"/>
      <point x="420" y="460" type="line"/>
      <point x="420" y="304" type="line" smooth="yes"/>
      <point x="420" y="206"/>
      <point x="382" y="140"/>
      <point x="324" y="140" type="curve" smooth="yes"/>
      <point x="267" y="140"/>
      <point x="230" y="206"/>
      <point x="230" y="305" type="curve" smooth="yes"/>
      <point x="230" y="460" type="line"/>
      <point x="40" y="460" type="line"/>
    </contour>
  </outline>
</glyph>
<glyph name="uni0402" format="2">
  <advance width="827"/>
  <unicode hex="0402"/>
  <outline>
    <component base="uni040B"/>
    <contour>
      <point x="387" y="-29" type="line"/>
      <point x="387" y="-135"/>
      <point x="454" y="-200"/>
      <point x="564" y="-200" type="curve" smooth="yes"/>
      <point x="655" y="-200"/>
      <point x="787" y="-151"/>
      <point x="787" y="-52" type="curve" smooth="yes"/>
      <point x="787" y="50" type="line"/>
      <point x="589" y="50" type="line"/>
      <point x="589" y="-20" type="line" smooth="yes"/>
      <point x="589" y="-52"/>
      <point x="580" y="-64"/>
      <point x="555" y="-64" type="curve" smooth="yes"/>
      <point x="532" y="-64"/>
      <point x="523" y="-50"/>
      <point x="523" y="-29" type="curve"/>
    </contour>
  </outline>
</glyph>
<glyph name="uni040B" format="2">
  <advance width="827"/>
  <unicode hex="040B"/>
  <outline>
    <component base="T"/>
    <contour>
      <point x="336" y="181" type="line"/>
      <point x="383" y="181" type="line"/>
      <point x="383" y="269"/>
      <point x="429" y="331"/>
      <point x="494" y="331" type="curve" smooth="yes"/>
      <point x="554" y="331"/>
      <point x="589" y="296"/>
      <point x="589" y="237" type="curve" smooth="yes"/>
      <point x="589" y="0" type="line"/>
      <point x="787" y="0" type="line"/>
      <point x="787" y="295" type="line" smooth="yes"/>
      <point x="787" y="404"/>
      <point x="701" y="476"/>
      <point x="572" y="476" type="curve" smooth="yes"/>
      <point x="487" y="476"/>
      <point x="404" y="436"/>
      <point x="352" y="375" type="curve"/>
      <point x="470" y="375" type="line"/>
      <point x="470" y="411" type="line"/>
      <point x="336" y="411" type="line"/>
    </contour>
  </outline>
</glyph>
<glyph name="uni040F" format="2">
  <advance width="756"/>
  <unicode hex="040F"/>
  <outline>
    <contour>
      <point x="50" y="0" type="line"/>
      <point x="706" y="0" type="line"/>
      <point x="706" y="680" type="line"/>
      <point x="508" y="680" type="line"/>
      <point x="508" y="160" type="line"/>
      <point x="248" y="160" type="line"/>
      <point x="248" y="680" type="line"/>
      <point x="50" y="680" type="line"/>
    </contour>
    <contour>
      <point x="288" y="-140" type="line"/>
      <point x="468" y="-140" type="line"/>
      <point x="468" y="15" type="line"/>
      <point x="288" y="15" type="line"/>
    </contour>
  </outline>
  <guideline angle="90" x="378" y="0"/>
</glyph>
<glyph name="uni0411" format="2">
  <advance width="698"/>
  <unicode hex="0411"/>
  <outline>
    <contour>
      <point x="156" y="0" type="line"/>
      <point x="405" y="0" type="line" smooth="yes"/>
      <point x="561" y="0"/>
      <point x="635" y="101"/>
      <point x="635" y="215" type="curve" smooth="yes"/>
      <point x="635" y="337"/>
      <point x="566" y="422"/>
      <point x="405" y="422" type="curve" smooth="yes"/>
      <point x="156" y="422" type="line"/>
      <point x="156" y="262" type="line"/>
      <point x="342" y="262" type="line" smooth="yes"/>
      <point x="402" y="262"/>
      <point x="432" y="247"/>
      <point x="432" y="215" type="curve" smooth="yes"/>
      <point x="432" y="172"/>
      <point x="402" y="160"/>
      <point x="342" y="160" type="curve" smooth="yes"/>
      <point x="156" y="160" type="line"/>
    </contour>
    <contour>
      <point x="62" y="0" type="line"/>
      <point x="260" y="0" type="line"/>
      <point x="260" y="680" type="line"/>
      <point x="62" y="680" type="line"/>
    </contour>
    <contour>
      <point x="156" y="520" type="line"/>
      <point x="547" y="520" type="line"/>
      <point x="547" y="680" type="line"/>
      <point x="156" y="680" type="line"/>
    </contour>
  </outline>
  <guideline angle="90" x="143" y="0"/>
</glyph>
<glyph name="uni0413" format="2">
  <advance width="586"/>
  <unicode hex="0413"/>
  <outline>
    <contour>
      <point x="62" y="0" type="line"/>
      <point x="260" y="0" type="line"/>
      <point x="260" y="680" type="line"/>
      <point x="62" y="680" type="line"/>
    </contour>
    <contour>
      <point x="137" y="520" type="line"/>
      <point x="547" y="520" type="line"/>
      <point x="547" y="680" type="line"/>
      <point x="137" y="680" type="line"/>
    </contour>
  </outline>
</glyph>
<glyph name="uni0414" format="2">
  <advance width="848"/>
  <unicode hex="0414"/>
  <outline>
    <contour>
      <point x="37" y="-10" type="line"/>
      <point x="155" y="-10"/>
      <point x="335" y="50"/>
      <point x="357" y="352" type="curve" smooth="yes"/>
      <point x="382" y="680" type="line"/>
      <point x="210" y="680" type="line"/>
      <point x="185" y="352" type="line" smooth="yes"/>
      <point x="171" y="162"/>
      <point x="127" y="80"/>
      <point x="37" y="80" type="curve"/>
    </contour>
    <contour>
      <point x="575" y="0" type="line"/>
      <point x="772" y="0" type="line"/>
      <point x="772" y="680" type="line"/>
      <point x="575" y="680" type="line"/>
    </contour>
    <contour>
      <point x="210" y="522" type="line"/>
      <point x="670" y="522" type="line"/>
      <point x="670" y="680" type="line"/>
      <point x="210" y="680" type="line"/>
    </contour>
    <contour>
      <point x="37" y="-140" type="line"/>
      <point x="217" y="-140" type="line"/>
      <point x="217" y="0" type="line"/>
      <point x="680" y="0" type="line"/>
      <point x="680" y="-140" type="line"/>
      <point x="860" y="-140" type="line"/>
      <point x="860" y="158" type="line"/>
      <point x="37" y="158" type="line"/>
    </contour>
  </outline>
</glyph>
<glyph name="uni0416" format="2">
  <advance width="1399"/>
  <unicode hex="0416"/>
  <outline>
    <contour>
      <point x="10" y="0" type="line"/>
      <point x="262" y="0" type="line"/>
      <point x="476" y="259" type="line"/>
      <point x="602" y="131" type="line"/>
      <point x="602" y="368" type="line"/>
      <point x="292" y="680" type="line"/>
      <point x="52" y="680" type="line"/>
      <point x="344" y="390" type="line"/>
    </contour>
    <contour>
      <point x="601" y="0" type="line"/>
      <point x="799" y="0" type="line"/>
      <point x="799" y="680" type="line"/>
      <point x="601" y="680" type="line"/>
    </contour>
    <contour>
      <point x="796" y="131" type="line"/>
      <point x="923" y="259" type="line"/>
      <point x="1136" y="0" type="line"/>
      <point x="1389" y="0" type="line"/>
      <point x="1056" y="390" type="line"/>
      <point x="1346" y="680" type="line"/>
      <point x="1106" y="680" type="line"/>
      <point x="796" y="368" type="line"/>
    </contour>
  </outline>
</glyph>
<glyph name="uni0417" format="2">
  <advance width="698"/>
  <unicode hex="0417"/>
  <outline>
    <contour>
      <point x="62" y="205" type="line"/>
      <point x="62" y="73"/>
      <point x="174" y="-16"/>
      <point x="342" y="-16" type="curve" smooth="yes"/>
      <point x="522" y="-16"/>
      <point x="635" y="70"/>
      <point x="635" y="209" type="curve" smooth="yes"/>
      <point x="635" y="306"/>
      <point x="579" y="372"/>
      <point x="487" y="380" type="curve"/>
      <point x="487" y="370" type="line"/>
      <point x="545" y="388"/>
      <point x="585" y="445"/>
      <point x="585" y="512" type="curve" smooth="yes"/>
      <point x="585" y="619"/>
      <point x="482" y="690"/>
      <point x="326" y="690" type="curve" smooth="yes"/>
      <point x="175" y="690"/>
      <point x="62" y="604"/>
      <point x="62" y="490" type="curve"/>
      <point x="235" y="490" type="line"/>
      <point x="235" y="514"/>
      <point x="269" y="530"/>
      <point x="309" y="530" type="curve" smooth="yes"/>
      <point x="351" y="530"/>
      <point x="382" y="513"/>
      <point x="382" y="485" type="curve" smooth="yes"/>
      <point x="382" y="454"/>
      <point x="345" y="427"/>
      <point x="304" y="427" type="curve" smooth="yes"/>
      <point x="279" y="427" type="line"/>
      <point x="279" y="287" type="line"/>
      <point x="347" y="287" type="line" smooth="yes"/>
      <point x="401" y="287"/>
      <point x="432" y="254"/>
      <point x="432" y="216" type="curve" smooth="yes"/>
      <point x="432" y="174"/>
      <point x="391" y="144"/>
      <point x="334" y="144" type="curve" smooth="yes"/>
      <point x="274" y="144"/>
      <point x="235" y="168"/>
      <point x="235" y="205" type="curve"/>
    </contour>
  </outline>
</glyph>
<glyph name="uni0418" format="2">
  <advance width="852"/>
  <unicode hex="0418"/>
  <outline>
    <contour>
      <point x="40" y="0" type="line"/>
      <point x="277" y="0" type="line"/>
      <point x="546" y="394" type="line" smooth="yes"/>
      <point x="566" y="424"/>
      <point x="582" y="449"/>
      <point x="600" y="487" type="curve"/>
      <point x="626" y="487" type="line"/>
      <point x="620" y="461"/>
      <point x="615" y="397"/>
      <point x="615" y="370" type="curve" smooth="yes"/>
      <point x="615" y="0" type="line"/>
      <point x="812" y="0" type="line"/>
      <point x="812" y="680" type="line"/>
      <point x="575" y="680" type="line"/>
      <point x="302" y="306" type="line"/>
      <point x="285" y="280"/>
      <point x="266" y="247"/>
      <point x="252" y="214" type="curve"/>
      <point x="226" y="214" type="line"/>
      <point x="234" y="240"/>
      <point x="237" y="278"/>
      <point x="237" y="330" type="curve" smooth="yes"/>
      <point x="237" y="680" type="line"/>
      <point x="40" y="680" type="line"/>
    </contour>
  </outline>
  <guideline angle="0" x="0" y="370"/>
</glyph>
<glyph name="uni041A" format="2">
  <advance width="848"/>
  <unicode hex="041A"/>
  <anchor x="400" y="-40" name="bottom"/>
  <anchor x="375" y="740" name="top"/>
  <outline>
    <contour>
      <point x="50" y="0" type="line"/>
      <point x="248" y="0" type="line"/>
      <point x="248" y="680" type="line"/>
      <point x="50" y="680" type="line"/>
    </contour>
    <contour>
      <point x="248" y="261" type="line"/>
      <point x="406" y="261" type="line"/>
      <point x="796" y="680" type="line"/>
      <point x="556" y="680" type="line"/>
      <point x="311" y="410" type="line"/>
      <point x="343" y="421" type="line"/>
      <point x="248" y="421" type="line"/>
    </contour>
    <contour>
      <point x="364" y="270" type="line"/>
      <point x="586" y="0" type="line"/>
      <point x="838" y="0" type="line"/>
      <point x="496" y="406" type="line"/>
    </contour>
  </outline>
  <guideline angle="0" x="0" y="451"/>
  <guideline angle="0" x="0" y="213"/>
</glyph>
<glyph name="uni041B" format="2">
  <advance width="733"/>
  <unicode hex="041B"/>
  <outline>
    <contour>
      <point x="66" y="0" type="line"/>
      <point x="76" y="0" type="line" smooth="yes"/>
      <point x="251" y="0"/>
      <point x="339" y="109"/>
      <point x="357" y="352" type="curve" smooth="yes"/>
      <point x="382" y="680" type="line"/>
      <point x="185" y="680" type="line"/>
      <point x="152" y="250" type="line" smooth="yes"/>
      <point x="149" y="206"/>
      <point x="112" y="176"/>
      <point x="64" y="176" type="curve"/>
      <point x="66" y="176" type="line"/>
    </contour>
    <contour>
      <point x="525" y="0" type="line"/>
      <point x="722" y="0" type="line"/>
      <point x="722" y="680" type="line"/>
      <point x="525" y="680" type="line"/>
    </contour>
    <contour>
      <point x="210" y="520" type="line"/>
      <point x="670" y="520" type="line"/>
      <point x="670" y="680" type="line"/>
      <point x="210" y="680" type="line"/>
    </contour>
  </outline>
</glyph>
<glyph name="uni041F" format="2">
  <advance width="766"/>
  <unicode hex="041F"/>
  <outline>
    <contour>
      <point x="50" y="0" type="line"/>
      <point x="248" y="0" type="line"/>
      <point x="248" y="680" type="line"/>
      <point x="50" y="680" type="line"/>
    </contour>
    <contour>
      <point x="518" y="0" type="line"/>
      <point x="716" y="0" type="line"/>
      <point x="716" y="680" type="line"/>
      <point x="518" y="680" type="line"/>
    </contour>
    <contour>
      <point x="70" y="520" type="line"/>
      <point x="696" y="520" type="line"/>
      <point x="696" y="680" type="line"/>
      <point x="70" y="680" type="line"/>
    </contour>
  </outline>
</glyph>
<glyph name="uni0423" format="2">
  <advance width="713"/>
  <unicode hex="0423"/>
  <anchor x="366" y="740" name="top"/>
  <outline>
    <contour>
      <point x="30" y="680" type="line"/>
      <point x="284" y="139" type="line"/>
      <point x="445" y="206" type="line"/>
      <point x="236" y="680" type="line"/>
    </contour>
    <contour>
      <point x="110" y="0" type="line"/>
      <point x="120" y="0" type="line" smooth="yes"/>
      <point x="296" y="0"/>
      <point x="434" y="27"/>
      <point x="488" y="158" type="curve" smooth="yes"/>
      <point x="703" y="680" type="line"/>
      <point x="503" y="680" type="line"/>
      <point x="324" y="256" type="line" smooth="yes"/>
      <point x="298" y="194"/>
      <point x="250" y="176"/>
      <point x="108" y="176" type="curve"/>
      <point x="110" y="176" type="line"/>
    </contour>
  </outline>
</glyph>
<glyph name="uni0424" format="2">
  <advance width="1011"/>
  <unicode hex="0424"/>
  <outline>
    <contour>
      <point x="64" y="349" type="curve" smooth="yes"/>
      <point x="64" y="186"/>
      <point x="170" y="69"/>
      <point x="395" y="69" type="curve" smooth="yes"/>
      <point x="419" y="69"/>
      <point x="440" y="70"/>
      <point x="454" y="71" type="curve"/>
      <point x="454" y="228" type="line"/>
      <point x="446" y="227"/>
      <point x="429" y="226"/>
      <point x="402" y="226" type="curve" smooth="yes"/>
      <point x="332" y="226"/>
      <point x="266" y="276"/>
      <point x="266" y="350" type="curve" smooth="yes"/>
      <point x="266" y="431"/>
      <point x="332" y="472"/>
      <point x="402" y="472" type="curve" smooth="yes"/>
      <point x="429" y="472"/>
      <point x="446" y="471"/>
      <point x="454" y="470" type="curve"/>
      <point x="454" y="627" type="line"/>
      <point x="441" y="628"/>
      <point x="424" y="629"/>
      <point x="402" y="629" type="curve" smooth="yes"/>
      <point x="174" y="629"/>
      <point x="64" y="509"/>
    </contour>
    <contour>
      <point x="406" y="0" type="line"/>
      <point x="604" y="0" type="line"/>
      <point x="604" y="690" type="line"/>
      <point x="406" y="690" type="line"/>
    </contour>
    <contour>
      <point x="556" y="71" type="line"/>
      <point x="569" y="70"/>
      <point x="586" y="69"/>
      <point x="607" y="69" type="curve" smooth="yes"/>
      <point x="836" y="69"/>
      <point x="946" y="189"/>
      <point x="946" y="349" type="curve" smooth="yes"/>
      <point x="946" y="512"/>
      <point x="840" y="629"/>
      <point x="615" y="629" type="curve" smooth="yes"/>
      <point x="591" y="629"/>
      <point x="570" y="628"/>
      <point x="556" y="627" type="curve"/>
      <point x="556" y="470" type="line"/>
      <point x="564" y="471"/>
      <point x="581" y="472"/>
      <point x="607" y="472" type="curve" smooth="yes"/>
      <point x="677" y="472"/>
      <point x="744" y="422"/>
      <point x="744" y="348" type="curve" smooth="yes"/>
      <point x="744" y="267"/>
      <point x="677" y="226"/>
      <point x="607" y="226" type="curve" smooth="yes"/>
      <point x="581" y="226"/>
      <point x="564" y="227"/>
      <point x="556" y="228" type="curve"/>
    </contour>
  </outline>
</glyph>
<glyph name="uni0426" format="2">
  <advance width="761"/>
  <unicode hex="0426"/>
  <outline>
    <contour>
      <point x="62" y="0" type="line"/>
      <point x="612" y="0" type="line"/>
      <point x="612" y="158" type="line"/>
      <point x="62" y="158" type="line"/>
    </contour>
    <contour>
      <point x="655" y="-140" type="line"/>
      <point x="825" y="-140" type="line"/>
      <point x="825" y="158" type="line"/>
      <point x="640" y="158" type="line"/>
      <point x="640" y="0" type="line"/>
      <point x="655" y="0" type="line"/>
    </contour>
    <contour>
      <point x="62" y="0" type="line"/>
      <point x="260" y="0" type="line"/>
      <point x="260" y="680" type="line"/>
      <point x="62" y="680" type="line"/>
    </contour>
    <contour>
      <point x="487" y="0" type="line"/>
      <point x="685" y="0" type="line"/>
      <point x="685" y="680" type="line"/>
      <point x="487" y="680" type="line"/>
    </contour>
  </outline>
</glyph>
<glyph name="uni0427" format="2">
  <advance width="661"/>
  <unicode hex="0427"/>
  <outline>
    <contour>
      <point x="62" y="450" type="line" smooth="yes"/>
      <point x="62" y="278"/>
      <point x="170" y="237"/>
      <point x="320" y="237" type="curve" smooth="yes"/>
      <point x="454" y="237" type="line"/>
      <point x="454" y="397" type="line"/>
      <point x="371" y="397" type="line" smooth="yes"/>
      <point x="241" y="397"/>
      <point x="235" y="439"/>
      <point x="235" y="500" type="curve" smooth="yes"/>
      <point x="235" y="680" type="line"/>
      <point x="62" y="680" type="line"/>
    </contour>
    <contour>
      <point x="413" y="0" type="line"/>
      <point x="611" y="0" type="line"/>
      <point x="611" y="680" type="line"/>
      <point x="413" y="680" type="line"/>
    </contour>
  </outline>
</glyph>
<glyph name="uni0428" format="2">
  <advance width="1031"/>
  <unicode hex="0428"/>
  <outline>
    <contour>
      <point x="150" y="0" type="line"/>
      <point x="897" y="0" type="line"/>
      <point x="897" y="158" type="line"/>
      <point x="150" y="158" type="line"/>
    </contour>
    <contour>
      <point x="62" y="0" type="line"/>
      <point x="260" y="0" type="line"/>
      <point x="260" y="680" type="line"/>
      <point x="62" y="680" type="line"/>
    </contour>
    <contour>
      <point x="413" y="0" type="line"/>
      <point x="611" y="0" type="line"/>
      <point x="611" y="680" type="line"/>
      <point x="413" y="680" type="line"/>
    </contour>
    <contour>
      <point x="770" y="0" type="line"/>
      <point x="968" y="0" type="line"/>
      <point x="968" y="680" type="line"/>
      <point x="770" y="680" type="line"/>
    </contour>
  </outline>
</glyph>
<glyph name="uni0429" format="2">
  <advance width="1174"/>
  <unicode hex="0429"/>
  <outline>
    <contour>
      <point x="138" y="0" type="line"/>
      <point x="993" y="0" type="line"/>
      <point x="993" y="160" type="line"/>
      <point x="138" y="160" type="line"/>
    </contour>
    <contour>
      <point x="50" y="0" type="line"/>
      <point x="248" y="0" type="line"/>
      <point x="248" y="680" type="line"/>
      <point x="50" y="680" type="line"/>
    </contour>
    <contour>
      <point x="458" y="0" type="line"/>
      <point x="656" y="0" type="line"/>
      <point x="656" y="680" type="line"/>
      <point x="458" y="680" type="line"/>
    </contour>
    <contour>
      <point x="866" y="0" type="line"/>
      <point x="1064" y="0" type="line"/>
      <point x="1064" y="680" type="line"/>
      <point x="866" y="680" type="line"/>
    </contour>
    <contour>
      <point x="1064" y="0" type="line"/>
      <point x="1034" y="0" type="line"/>
      <point x="1034" y="-160" type="line"/>
      <point x="1204" y="-160" type="line"/>
      <point x="1204" y="158" type="line"/>
      <point x="1064" y="158" type="line"/>
    </contour>
  </outline>
</glyph>
<glyph name="uni042A" format="2">
  <advance width="852"/>
  <unicode hex="042A"/>
  <outline>
    <contour>
      <point x="250" y="0" type="line"/>
      <point x="592" y="0" type="line" smooth="yes"/>
      <point x="749" y="0"/>
      <point x="822" y="101"/>
      <point x="822" y="215" type="curve" smooth="yes"/>
      <point x="822" y="337"/>
      <point x="754" y="422"/>
      <point x="592" y="422" type="curve" smooth="yes"/>
      <point x="344" y="422" type="line"/>
      <point x="344" y="262" type="line"/>
      <point x="530" y="262" type="line" smooth="yes"/>
      <point x="590" y="262"/>
      <point x="620" y="247"/>
      <point x="620" y="215" type="curve" smooth="yes"/>
      <point x="620" y="172"/>
      <point x="590" y="160"/>
      <point x="530" y="160" type="curve" smooth="yes"/>
      <point x="250" y="160" type="line"/>
    </contour>
    <contour>
      <point x="250" y="0" type="line"/>
      <point x="447" y="0" type="line"/>
      <point x="447" y="680" type="line"/>
      <point x="250" y="680" type="line"/>
    </contour>
    <contour>
      <point x="62" y="520" type="line"/>
      <point x="335" y="520" type="line"/>
      <point x="335" y="680" type="line"/>
      <point x="62" y="680" type="line"/>
    </contour>
  </outline>
</glyph>
<glyph name="uni042C" format="2">
  <advance width="653"/>
  <unicode hex="042C"/>
  <outline>
    <contour>
      <point x="162" y="0" type="line"/>
      <point x="393" y="0" type="line" smooth="yes"/>
      <point x="549" y="0"/>
      <point x="623" y="101"/>
      <point x="623" y="221" type="curve" smooth="yes"/>
      <point x="623" y="337"/>
      <point x="554" y="422"/>
      <point x="393" y="422" type="curve" smooth="yes"/>
      <point x="162" y="422" type="line"/>
      <point x="162" y="262" type="line"/>
      <point x="330" y="262" type="line" smooth="yes"/>
      <point x="390" y="262"/>
      <point x="420" y="247"/>
      <point x="420" y="210" type="curve" smooth="yes"/>
      <point x="420" y="172"/>
      <point x="390" y="160"/>
      <point x="330" y="160" type="curve" smooth="yes"/>
      <point x="162" y="160" type="line"/>
    </contour>
    <contour>
      <point x="50" y="0" type="line"/>
      <point x="248" y="0" type="line"/>
      <point x="248" y="680" type="line"/>
      <point x="50" y="680" type="line"/>
    </contour>
  </outline>
</glyph>
<glyph name="uni042D" format="2">
  <advance width="810"/>
  <unicode hex="042D"/>
  <anchor x="400" y="740" name="top"/>
  <outline>
    <contour>
      <point x="30" y="228" type="line"/>
      <point x="65" y="82"/>
      <point x="212" y="-16"/>
      <point x="398" y="-16" type="curve" smooth="yes"/>
      <point x="627" y="-16"/>
      <point x="780" y="133"/>
      <point x="780" y="356" type="curve" smooth="yes"/>
      <point x="780" y="560"/>
      <point x="627" y="696"/>
      <point x="398" y="696" type="curve" smooth="yes"/>
      <point x="207" y="696"/>
      <point x="60" y="594"/>
      <point x="30" y="440" type="curve"/>
      <point x="233" y="440" type="line"/>
      <point x="260" y="510"/>
      <point x="317" y="546"/>
      <point x="400" y="546" type="curve" smooth="yes"/>
      <point x="509" y="546"/>
      <point x="582" y="469"/>
      <point x="582" y="354" type="curve" smooth="yes"/>
      <point x="582" y="222"/>
      <point x="506" y="134"/>
      <point x="391" y="134" type="curve" smooth="yes"/>
      <point x="318" y="134"/>
      <point x="257" y="170"/>
      <point x="233" y="228" type="curve"/>
    </contour>
    <contour>
      <point x="385" y="277" type="line"/>
      <point x="626" y="277" type="line"/>
      <point x="626" y="437" type="line"/>
      <point x="385" y="437" type="line"/>
    </contour>
  </outline>
</glyph>
<glyph name="uni042E" format="2">
  <advance width="1119"/>
  <unicode hex="042E"/>
  <anchor x="674" y="740" name="top"/>
  <outline>
    <contour>
      <point x="194" y="267" type="line"/>
      <point x="401" y="267" type="line"/>
      <point x="401" y="427" type="line"/>
      <point x="194" y="427" type="line"/>
    </contour>
    <contour>
      <point x="325" y="340" type="curve" smooth="yes"/>
      <point x="325" y="126"/>
      <point x="475" y="-16"/>
      <point x="700" y="-16" type="curve" smooth="yes"/>
      <point x="933" y="-16"/>
      <point x="1089" y="126"/>
      <point x="1089" y="340" type="curve" smooth="yes"/>
      <point x="1089" y="554"/>
      <point x="933" y="696"/>
      <point x="700" y="696" type="curve" smooth="yes"/>
      <point x="475" y="696"/>
      <point x="325" y="554"/>
    </contour>
    <contour>
      <point x="514" y="340" type="curve" smooth="yes"/>
      <point x="514" y="458"/>
      <point x="588" y="536"/>
      <point x="700" y="536" type="curve" smooth="yes"/>
      <point x="812" y="536"/>
      <point x="887" y="458"/>
      <point x="887" y="340" type="curve" smooth="yes"/>
      <point x="887" y="222"/>
      <point x="812" y="144"/>
      <point x="700" y="144" type="curve" smooth="yes"/>
      <point x="588" y="144"/>
      <point x="514" y="222"/>
    </contour>
    <contour>
      <point x="50" y="0" type="line"/>
      <point x="248" y="0" type="line"/>
      <point x="248" y="680" type="line"/>
      <point x="50" y="680" type="line"/>
    </contour>
  </outline>
</glyph>
<glyph name="uni042F" format="2">
  <advance width="727"/>
  <unicode hex="042F"/>
  <anchor x="402" y="740" name="top"/>
  <outline>
    <contour>
      <point x="62" y="468" type="curve" smooth="yes"/>
      <point x="62" y="337"/>
      <point x="161" y="250"/>
      <point x="310" y="250" type="curve" smooth="yes"/>
      <point x="541" y="250" type="line"/>
      <point x="541" y="410" type="line"/>
      <point x="340" y="410" type="line" smooth="yes"/>
      <point x="295" y="410"/>
      <point x="265" y="432"/>
      <point x="265" y="464" type="curve" smooth="yes"/>
      <point x="265" y="498"/>
      <point x="293" y="520"/>
      <point x="334" y="520" type="curve" smooth="yes"/>
      <point x="635" y="520" type="line"/>
      <point x="635" y="680" type="line"/>
      <point x="335" y="680" type="line" smooth="yes"/>
      <point x="171" y="680"/>
      <point x="62" y="595"/>
    </contour>
    <contour>
      <point x="47" y="0" type="line"/>
      <point x="286" y="0" type="line"/>
      <point x="472" y="292" type="line"/>
      <point x="246" y="292" type="line"/>
    </contour>
    <contour>
      <point x="480" y="0" type="line"/>
      <point x="677" y="0" type="line"/>
      <point x="677" y="680" type="line"/>
      <point x="480" y="680" type="line"/>
    </contour>
  </outline>
</glyph>
<glyph name="uni0431" format="2">
  <advance width="613"/>
  <unicode hex="0431"/>
  <outline>
    <contour>
      <point x="224" y="207" type="curve" smooth="yes"/>
      <point x="224" y="265"/>
      <point x="253" y="296"/>
      <point x="307" y="296" type="curve" smooth="yes"/>
      <point x="357" y="296"/>
      <point x="389" y="265"/>
      <point x="389" y="221" type="curve" smooth="yes"/>
      <point x="389" y="167"/>
      <point x="357" y="134"/>
      <point x="302" y="134" type="curve" smooth="yes"/>
      <point x="259" y="134"/>
      <point x="224" y="166"/>
    </contour>
    <contour>
      <point x="30" y="244" type="line" smooth="yes"/>
      <point x="30" y="56"/>
      <point x="177" y="-16"/>
      <point x="311" y="-16" type="curve" smooth="yes"/>
      <point x="464" y="-16"/>
      <point x="583" y="82"/>
      <point x="583" y="240" type="curve" smooth="yes"/>
      <point x="583" y="375"/>
      <point x="499" y="446"/>
      <point x="383" y="446" type="curve" smooth="yes"/>
      <point x="309" y="446"/>
      <point x="190" y="407"/>
      <point x="160" y="353" type="curve"/>
      <point x="177" y="353" type="line"/>
      <point x="183" y="370"/>
      <point x="187" y="389"/>
      <point x="187" y="405" type="curve" smooth="yes"/>
      <point x="187" y="436"/>
      <point x="247" y="465"/>
      <point x="364" y="494" type="curve" smooth="yes"/>
      <point x="417" y="507"/>
      <point x="461" y="526"/>
      <point x="493" y="546" type="curve"/>
      <point x="493" y="700" type="line"/>
      <point x="479" y="700" type="line"/>
      <point x="425" y="674"/>
      <point x="394" y="664"/>
      <point x="338" y="651" type="curve" smooth="yes"/>
      <point x="112" y="599"/>
      <point x="30" y="531"/>
      <point x="30" y="389" type="curve" smooth="yes"/>
    </contour>
  </outline>
</glyph>
<glyph name="uni0432" format="2">
  <advance width="564"/>
  <unicode hex="0432"/>
  <outline>
    <contour>
      <point x="40" y="0" type="line"/>
      <point x="230" y="0" type="line"/>
      <point x="230" y="460" type="line"/>
      <point x="40" y="460" type="line"/>
    </contour>
    <contour>
      <point x="132" y="0" type="line"/>
      <point x="351" y="0" type="line" smooth="yes"/>
      <point x="470" y="0"/>
      <point x="534" y="49"/>
      <point x="534" y="139" type="curve" smooth="yes"/>
      <point x="534" y="256"/>
      <point x="365" y="281"/>
      <point x="264" y="281" type="curve" smooth="yes"/>
      <point x="132" y="281" type="line"/>
      <point x="132" y="175" type="line"/>
      <point x="260" y="175" type="line" smooth="yes"/>
      <point x="310" y="175"/>
      <point x="340" y="171"/>
      <point x="340" y="138" type="curve" smooth="yes"/>
      <point x="340" y="118"/>
      <point x="312" y="106"/>
      <point x="260" y="106" type="curve" smooth="yes"/>
      <point x="132" y="106" type="line"/>
    </contour>
    <contour>
      <point x="132" y="354" type="line"/>
      <point x="291" y="354" type="line" smooth="yes"/>
      <point x="329" y="354"/>
      <point x="340" y="332"/>
      <point x="340" y="319" type="curve" smooth="yes"/>
      <point x="340" y="295"/>
      <point x="324" y="281"/>
      <point x="291" y="281" type="curve" smooth="yes"/>
      <point x="249" y="281" type="line"/>
      <point x="249" y="248" type="line"/>
      <point x="414" y="248" type="line" smooth="yes"/>
      <point x="470" y="248"/>
      <point x="509" y="289"/>
      <point x="509" y="352" type="curve" smooth="yes"/>
      <point x="509" y="429"/>
      <point x="457" y="460"/>
      <point x="332" y="460" type="curve" smooth="yes"/>
      <point x="132" y="460" type="line"/>
    </contour>
  </outline>
</glyph>
<glyph name="uni0433" format="2">
  <advance width="424"/>
  <unicode hex="0433"/>
  <outline>
    <contour>
      <point x="40" y="0" type="line"/>
      <point x="238" y="0" type="line"/>
      <point x="238" y="389" type="line"/>
      <point x="123" y="302" type="line"/>
      <point x="414" y="302" type="line"/>
      <point x="414" y="460" type="line"/>
      <point x="40" y="460" type="line"/>
    </contour>
  </outline>
</glyph>
<glyph name="uni0434" format="2">
  <advance width="678"/>
  <unicode hex="0434"/>
  <outline>
    <contour>
      <point x="12" y="-140" type="line"/>
      <point x="152" y="-140" type="line"/>
      <point x="164" y="0" type="line"/>
      <point x="513" y="0" type="line"/>
      <point x="526" y="-140" type="line"/>
      <point x="666" y="-140" type="line"/>
      <point x="666" y="156" type="line"/>
      <point x="12" y="156" type="line"/>
    </contour>
    <contour>
      <point x="24" y="3" type="line"/>
      <point x="73" y="3" type="line" smooth="yes"/>
      <point x="147" y="3"/>
      <point x="272" y="13"/>
      <point x="297" y="310" type="curve" smooth="yes"/>
      <point x="309" y="460" type="line"/>
      <point x="132" y="460" type="line"/>
      <point x="119" y="290" type="line" smooth="yes"/>
      <point x="114" y="217"/>
      <point x="82" y="156"/>
      <point x="24" y="156" type="curve"/>
    </contour>
    <contour>
      <point x="143" y="304" type="line"/>
      <point x="572" y="304" type="line"/>
      <point x="572" y="460" type="line"/>
      <point x="143" y="460" type="line"/>
    </contour>
    <contour>
      <point x="421" y="0" type="line"/>
      <point x="619" y="0" type="line"/>
      <point x="619" y="460" type="line"/>
      <point x="421" y="460" type="line"/>
    </contour>
  </outline>
</glyph>
<glyph name="uni0436" format="2">
  <advance width="1118"/>
  <unicode hex="0436"/>
  <outline>
    <contour>
      <point x="464" y="0" type="line"/>
      <point x="654" y="0" type="line"/>
      <point x="654" y="460" type="line"/>
      <point x="464" y="460" type="line"/>
    </contour>
    <contour>
      <point x="654" y="199" type="line"/>
      <point x="787" y="199" type="line"/>
      <point x="1072" y="460" type="line"/>
      <point x="795" y="460" type="line"/>
      <point x="669" y="347" type="line"/>
      <point x="695" y="357" type="line"/>
      <point x="654" y="357" type="line"/>
    </contour>
    <contour>
      <point x="667" y="217" type="line"/>
      <point x="851" y="0" type="line"/>
      <point x="1108" y="0" type="line"/>
      <point x="818" y="348" type="line"/>
    </contour>
    <contour>
      <point x="331" y="199" type="line"/>
      <point x="464" y="199" type="line"/>
      <point x="464" y="357" type="line"/>
      <point x="423" y="357" type="line"/>
      <point x="449" y="347" type="line"/>
      <point x="323" y="460" type="line"/>
      <point x="46" y="460" type="line"/>
    </contour>
    <contour>
      <point x="10" y="0" type="line"/>
      <point x="267" y="0" type="line"/>
      <point x="451" y="217" type="line"/>
      <point x="300" y="348" type="line"/>
    </contour>
  </outline>
</glyph>
<glyph name="uni0437" format="2">
  <advance width="539"/>
  <unicode hex="0437"/>
  <outline>
    <contour>
      <point x="30" y="160" type="line"/>
      <point x="50" y="38"/>
      <point x="141" y="-16"/>
      <point x="272" y="-16" type="curve" smooth="yes"/>
      <point x="409" y="-16"/>
      <point x="509" y="51"/>
      <point x="509" y="140" type="curve" smooth="yes"/>
      <point x="509" y="194"/>
      <point x="487" y="234"/>
      <point x="432" y="249" type="curve"/>
      <point x="432" y="247" type="line"/>
      <point x="477" y="261"/>
      <point x="495" y="293"/>
      <point x="495" y="338" type="curve" smooth="yes"/>
      <point x="495" y="421"/>
      <point x="406" y="476"/>
      <point x="272" y="476" type="curve" smooth="yes"/>
      <point x="149" y="476"/>
      <point x="49" y="419"/>
      <point x="30" y="310" type="curve"/>
      <point x="232" y="310" type="line"/>
      <point x="232" y="321"/>
      <point x="242" y="326"/>
      <point x="261" y="326" type="curve" smooth="yes"/>
      <point x="284" y="326"/>
      <point x="292" y="320"/>
      <point x="292" y="305" type="curve" smooth="yes"/>
      <point x="292" y="294"/>
      <point x="279" y="285"/>
      <point x="254" y="285" type="curve" smooth="yes"/>
      <point x="227" y="285" type="line"/>
      <point x="227" y="185" type="line"/>
      <point x="286" y="185" type="line" smooth="yes"/>
      <point x="315" y="185"/>
      <point x="331" y="170"/>
      <point x="331" y="158" type="curve" smooth="yes"/>
      <point x="331" y="140"/>
      <point x="312" y="134"/>
      <point x="280" y="134" type="curve" smooth="yes"/>
      <point x="256" y="134"/>
      <point x="232" y="142"/>
      <point x="232" y="160" type="curve"/>
    </contour>
  </outline>
</glyph>
<glyph name="uni0438" format="2">
  <advance width="671"/>
  <unicode hex="0438"/>
  <anchor x="336" y="530" name="top"/>
  <outline>
    <contour>
      <point x="40" y="0" type="line"/>
      <point x="239" y="0" type="line"/>
      <point x="420" y="220" type="line" smooth="yes"/>
      <point x="430" y="232"/>
      <point x="436" y="241"/>
      <point x="443" y="255" type="curve"/>
      <point x="435" y="251" type="line"/>
      <point x="450" y="251" type="line"/>
      <point x="444" y="255" type="line"/>
      <point x="435" y="220"/>
      <point x="433" y="166"/>
      <point x="433" y="106" type="curve" smooth="yes"/>
      <point x="433" y="0" type="line"/>
      <point x="631" y="0" type="line"/>
      <point x="631" y="460" type="line"/>
      <point x="432" y="460" type="line"/>
      <point x="250" y="241" type="line" smooth="yes"/>
      <point x="241" y="230"/>
      <point x="235" y="221"/>
      <point x="228" y="208" type="curve"/>
      <point x="235" y="210" type="line"/>
      <point x="223" y="210" type="line"/>
      <point x="227" y="208" type="line"/>
      <point x="235" y="241"/>
      <point x="238" y="296"/>
      <point x="238" y="356" type="curve" smooth="yes"/>
      <point x="238" y="460" type="line"/>
      <point x="40" y="460" type="line"/>
    </contour>
  </outline>
  <guideline angle="50.4206" x="239" y="0"/>
  <guideline angle="230.27" x="432" y="460"/>
  <guideline angle="0" x="0" y="210"/>
  <guideline angle="0" x="0" y="251"/>
  <guideline angle="0" x="0" y="220"/>
  <guideline angle="0" x="0" y="241"/>
  <guideline angle="76.4641" x="225" y="220"/>
  <guideline angle="256.464" x="446" y="241"/>
  <guideline angle="0" x="0" y="255"/>
  <guideline angle="0" x="0" y="208"/>
</glyph>
<glyph name="uni043A" format="2">
  <advance width="687"/>
  <unicode hex="043A"/>
  <outline>
    <contour>
      <point x="40" y="0" type="line"/>
      <point x="238" y="0" type="line"/>
      <point x="238" y="460" type="line"/>
      <point x="40" y="460" type="line"/>
    </contour>
    <contour>
      <point x="196" y="76" type="line"/>
      <point x="623" y="460" type="line"/>
      <point x="366" y="460" type="line"/>
      <point x="196" y="308" type="line"/>
    </contour>
    <contour>
      <point x="251" y="183" type="line"/>
      <point x="422" y="0" type="line"/>
      <point x="677" y="0" type="line"/>
      <point x="391" y="308" type="line"/>
    </contour>
  </outline>
</glyph>
<glyph name="uni043B" format="2">
  <advance width="578"/>
  <unicode hex="043B"/>
  <outline>
    <contour>
      <point x="10" y="-10" type="line"/>
      <point x="37" y="-10" type="line" smooth="yes"/>
      <point x="185" y="-10"/>
      <point x="237" y="64"/>
      <point x="257" y="310" type="curve" smooth="yes"/>
      <point x="269" y="460" type="line"/>
      <point x="87" y="460" type="line"/>
      <point x="70" y="225" type="line" smooth="yes"/>
      <point x="67" y="181"/>
      <point x="43" y="152"/>
      <point x="10" y="152" type="curve"/>
    </contour>
    <contour>
      <point x="125" y="304" type="line"/>
      <point x="471" y="304" type="line"/>
      <point x="471" y="460" type="line"/>
      <point x="125" y="460" type="line"/>
    </contour>
    <contour>
      <point x="348" y="0" type="line"/>
      <point x="538" y="0" type="line"/>
      <point x="538" y="460" type="line"/>
      <point x="348" y="460" type="line"/>
    </contour>
  </outline>
</glyph>
<glyph name="uni043C" format="2">
  <advance width="960"/>
  <unicode hex="043C"/>
  <outline>
    <contour>
      <point x="40" y="0" type="line"/>
      <point x="238" y="0" type="line"/>
      <point x="238" y="160" type="line" smooth="yes"/>
      <point x="238" y="188"/>
      <point x="238" y="254"/>
      <point x="236" y="273" type="curve"/>
      <point x="223" y="266" type="line"/>
      <point x="259" y="266" type="line"/>
      <point x="238" y="273" type="line"/>
      <point x="242" y="254"/>
      <point x="259" y="195"/>
      <point x="266" y="180" type="curve" smooth="yes"/>
      <point x="348" y="0" type="line"/>
      <point x="612" y="0" type="line"/>
      <point x="692" y="180" type="line" smooth="yes"/>
      <point x="705" y="209"/>
      <point x="716" y="245"/>
      <point x="722" y="273" type="curve"/>
      <point x="707" y="266" type="line"/>
      <point x="735" y="266" type="line"/>
      <point x="724" y="273" type="line"/>
      <point x="723" y="257"/>
      <point x="722" y="185"/>
      <point x="722" y="160" type="curve" smooth="yes"/>
      <point x="722" y="0" type="line"/>
      <point x="920" y="0" type="line"/>
      <point x="920" y="460" type="line"/>
      <point x="610" y="460" type="line"/>
      <point x="513" y="230" type="line" smooth="yes"/>
      <point x="501" y="201"/>
      <point x="490" y="166"/>
      <point x="481" y="119" type="curve"/>
      <point x="499" y="125" type="line"/>
      <point x="461" y="125" type="line"/>
      <point x="479" y="119" type="line"/>
      <point x="470" y="166"/>
      <point x="459" y="201"/>
      <point x="447" y="230" type="curve" smooth="yes"/>
      <point x="350" y="460" type="line"/>
      <point x="40" y="460" type="line"/>
    </contour>
  </outline>
  <guideline angle="0" x="0" y="422"/>
  <guideline angle="0" x="0" y="90"/>
  <guideline angle="0" x="0" y="266"/>
  <guideline angle="90" x="238" y="0"/>
  <guideline angle="0" x="0" y="293"/>
  <guideline angle="90" x="719" y="0"/>
  <guideline angle="90" x="480" y="0"/>
  <guideline angle="0" x="0" y="230"/>
  <guideline angle="0" x="0" y="210"/>
</glyph>
<glyph name="uni043D" format="2">
  <advance width="620"/>
  <unicode hex="043D"/>
  <outline>
    <contour>
      <point x="40" y="0" type="line"/>
      <point x="238" y="0" type="line"/>
      <point x="238" y="460" type="line"/>
      <point x="40" y="460" type="line"/>
    </contour>
    <contour>
      <point x="117" y="160" type="line"/>
      <point x="514" y="160" type="line"/>
      <point x="514" y="318" type="line"/>
      <point x="117" y="318" type="line"/>
    </contour>
    <contour>
      <point x="382" y="0" type="line"/>
      <point x="580" y="0" type="line"/>
      <point x="580" y="460" type="line"/>
      <point x="382" y="460" type="line"/>
    </contour>
  </outline>
</glyph>
<glyph name="uni043F" format="2">
  <advance width="614"/>
  <unicode hex="043F"/>
  <outline>
    <contour>
      <point x="109" y="302" type="line"/>
      <point x="491" y="302" type="line"/>
      <point x="491" y="460" type="line"/>
      <point x="109" y="460" type="line"/>
    </contour>
    <contour>
      <point x="40" y="0" type="line"/>
      <point x="230" y="0" type="line"/>
      <point x="230" y="460" type="line"/>
      <point x="40" y="460" type="line"/>
    </contour>
    <contour>
      <point x="384" y="0" type="line"/>
      <point x="574" y="0" type="line"/>
      <point x="574" y="460" type="line"/>
      <point x="384" y="460" type="line"/>
    </contour>
  </outline>
</glyph>
<glyph name="uni0442" format="2">
  <advance width="475"/>
  <unicode hex="0442"/>
  <outline>
    <contour>
      <point x="148" y="0" type="line"/>
      <point x="338" y="0" type="line"/>
      <point x="338" y="407" type="line"/>
      <point x="148" y="407" type="line"/>
    </contour>
    <contour>
      <point x="20" y="304" type="line"/>
      <point x="465" y="304" type="line"/>
      <point x="465" y="460" type="line"/>
      <point x="20" y="460" type="line"/>
    </contour>
  </outline>
</glyph>
<glyph name="uni0444" format="2">
  <advance width="875"/>
  <unicode hex="0444"/>
  <outline>
    <contour>
      <point x="343" y="-200" type="line"/>
      <point x="533" y="-200" type="line"/>
      <point x="533" y="15" type="line"/>
      <point x="527" y="99" type="line"/>
      <point x="527" y="368" type="line"/>
      <point x="533" y="443" type="line"/>
      <point x="533" y="700" type="line"/>
      <point x="343" y="700" type="line"/>
      <point x="343" y="443" type="line"/>
      <point x="349" y="368" type="line"/>
      <point x="349" y="99" type="line"/>
      <point x="343" y="15" type="line"/>
    </contour>
    <contour>
      <point x="524" y="-16" type="line"/>
      <point x="724" y="-9"/>
      <point x="845" y="84"/>
      <point x="845" y="230" type="curve" smooth="yes"/>
      <point x="845" y="376"/>
      <point x="724" y="469"/>
      <point x="524" y="476" type="curve"/>
      <point x="524" y="326" type="line"/>
      <point x="611" y="326"/>
      <point x="651" y="296"/>
      <point x="651" y="230" type="curve" smooth="yes"/>
      <point x="651" y="163"/>
      <point x="613" y="134"/>
      <point x="524" y="134" type="curve"/>
    </contour>
    <contour>
      <point x="30" y="230" type="curve" smooth="yes"/>
      <point x="30" y="84"/>
      <point x="151" y="-9"/>
      <point x="352" y="-16" type="curve"/>
      <point x="352" y="134" type="line"/>
      <point x="264" y="134"/>
      <point x="224" y="164"/>
      <point x="224" y="230" type="curve" smooth="yes"/>
      <point x="224" y="295"/>
      <point x="265" y="326"/>
      <point x="352" y="326" type="curve"/>
      <point x="352" y="476" type="line"/>
      <point x="151" y="469"/>
      <point x="30" y="376"/>
    </contour>
  </outline>
</glyph>
<glyph name="uni0446" format="2">
  <advance width="719"/>
  <unicode hex="0446"/>
  <outline>
    <contour>
      <point x="40" y="0" type="line"/>
      <point x="238" y="0" type="line"/>
      <point x="238" y="460" type="line"/>
      <point x="40" y="460" type="line"/>
    </contour>
    <contour>
      <point x="392" y="0" type="line"/>
      <point x="589" y="0" type="line"/>
      <point x="589" y="460" type="line"/>
      <point x="392" y="460" type="line"/>
    </contour>
    <contour>
      <point x="150" y="0" type="line"/>
      <point x="397" y="0" type="line"/>
      <point x="397" y="158" type="line"/>
      <point x="150" y="158" type="line"/>
    </contour>
    <contour>
      <point x="482" y="0" type="line"/>
      <point x="524" y="0" type="line"/>
      <point x="537" y="-140" type="line"/>
      <point x="689" y="-140" type="line"/>
      <point x="689" y="158" type="line"/>
      <point x="482" y="158" type="line"/>
    </contour>
  </outline>
</glyph>
<glyph name="uni0447" format="2">
  <advance width="602"/>
  <unicode hex="0447"/>
  <outline>
    <contour>
      <point x="40" y="316" type="line" smooth="yes"/>
      <point x="40" y="205"/>
      <point x="83" y="140"/>
      <point x="229" y="140" type="curve" smooth="yes"/>
      <point x="293" y="140"/>
      <point x="352" y="150"/>
      <point x="414" y="173" type="curve"/>
      <point x="414" y="282" type="line"/>
      <point x="397" y="274"/>
      <point x="372" y="271"/>
      <point x="314" y="271" type="curve" smooth="yes"/>
      <point x="255" y="271"/>
      <point x="230" y="298"/>
      <point x="230" y="349" type="curve" smooth="yes"/>
      <point x="230" y="460" type="line"/>
      <point x="40" y="460" type="line"/>
    </contour>
    <contour>
      <point x="372" y="0" type="line"/>
      <point x="562" y="0" type="line"/>
      <point x="562" y="460" type="line"/>
      <point x="372" y="460" type="line"/>
    </contour>
  </outline>
</glyph>
<glyph name="uni0448" format="2">
  <advance width="908"/>
  <unicode hex="0448"/>
  <outline>
    <contour>
      <point x="40" y="0" type="line"/>
      <point x="238" y="0" type="line"/>
      <point x="238" y="460" type="line"/>
      <point x="40" y="460" type="line"/>
    </contour>
    <contour>
      <point x="75" y="0" type="line"/>
      <point x="820" y="0" type="line"/>
      <point x="820" y="158" type="line"/>
      <point x="75" y="158" type="line"/>
    </contour>
    <contour>
      <point x="355" y="0" type="line"/>
      <point x="553" y="0" type="line"/>
      <point x="553" y="460" type="line"/>
      <point x="355" y="460" type="line"/>
    </contour>
    <contour>
      <point x="670" y="0" type="line"/>
      <point x="868" y="0" type="line"/>
      <point x="868" y="460" type="line"/>
      <point x="670" y="460" type="line"/>
    </contour>
  </outline>
</glyph>
<glyph name="uni0449" format="2">
  <advance width="996"/>
  <unicode hex="0449"/>
  <outline>
    <contour>
      <point x="138" y="0" type="line"/>
      <point x="773" y="0" type="line"/>
      <point x="773" y="158" type="line"/>
      <point x="138" y="158" type="line"/>
    </contour>
    <contour>
      <point x="785" y="0" type="line"/>
      <point x="827" y="0" type="line"/>
      <point x="840" y="-140" type="line"/>
      <point x="992" y="-140" type="line"/>
      <point x="992" y="158" type="line"/>
      <point x="785" y="158" type="line"/>
    </contour>
    <contour>
      <point x="40" y="0" type="line"/>
      <point x="238" y="0" type="line"/>
      <point x="238" y="460" type="line"/>
      <point x="40" y="460" type="line"/>
    </contour>
    <contour>
      <point x="355" y="0" type="line"/>
      <point x="553" y="0" type="line"/>
      <point x="553" y="460" type="line"/>
      <point x="355" y="460" type="line"/>
    </contour>
    <contour>
      <point x="670" y="0" type="line"/>
      <point x="868" y="0" type="line"/>
      <point x="868" y="460" type="line"/>
      <point x="670" y="460" type="line"/>
    </contour>
  </outline>
</glyph>
<glyph name="uni044A" format="2">
  <advance width="658"/>
  <unicode hex="044A"/>
  <anchor x="326" y="540" name="top"/>
  <outline>
    <contour>
      <point x="45" y="302" type="line"/>
      <point x="227" y="302" type="line"/>
      <point x="227" y="460" type="line"/>
      <point x="45" y="460" type="line"/>
    </contour>
    <contour>
      <point x="147" y="0" type="line"/>
      <point x="337" y="0" type="line"/>
      <point x="337" y="460" type="line"/>
      <point x="147" y="460" type="line"/>
    </contour>
    <contour>
      <point x="327" y="0" type="line"/>
      <point x="426" y="0" type="line" smooth="yes"/>
      <point x="552" y="0"/>
      <point x="628" y="64"/>
      <point x="628" y="170" type="curve" smooth="yes"/>
      <point x="628" y="276"/>
      <point x="551" y="341"/>
      <point x="426" y="341" type="curve" smooth="yes"/>
      <point x="327" y="341" type="line"/>
      <point x="327" y="215" type="line"/>
      <point x="384" y="215" type="line" smooth="yes"/>
      <point x="413" y="215"/>
      <point x="434" y="196"/>
      <point x="434" y="170" type="curve" smooth="yes"/>
      <point x="434" y="142"/>
      <point x="415" y="126"/>
      <point x="384" y="126" type="curve" smooth="yes"/>
      <point x="327" y="126" type="line"/>
    </contour>
  </outline>
</glyph>
<glyph name="uni044B" format="2">
  <advance width="830"/>
  <unicode hex="044B"/>
  <outline>
    <contour>
      <point x="40" y="0" type="line"/>
      <point x="238" y="0" type="line"/>
      <point x="238" y="460" type="line"/>
      <point x="40" y="460" type="line"/>
    </contour>
    <contour>
      <point x="150" y="0" type="line"/>
      <point x="332" y="0" type="line" smooth="yes"/>
      <point x="497" y="0"/>
      <point x="538" y="95"/>
      <point x="538" y="170" type="curve" smooth="yes"/>
      <point x="538" y="245"/>
      <point x="497" y="341"/>
      <point x="332" y="341" type="curve" smooth="yes"/>
      <point x="150" y="341" type="line"/>
      <point x="150" y="215" type="line"/>
      <point x="285" y="215" type="line" smooth="yes"/>
      <point x="318" y="215"/>
      <point x="335" y="192"/>
      <point x="335" y="170" type="curve" smooth="yes"/>
      <point x="335" y="144"/>
      <point x="318" y="126"/>
      <point x="285" y="126" type="curve" smooth="yes"/>
      <point x="150" y="126" type="line"/>
    </contour>
    <contour>
      <point x="592" y="0" type="line"/>
      <point x="790" y="0" type="line"/>
      <point x="790" y="460" type="line"/>
      <point x="592" y="460" type="line"/>
    </contour>
  </outline>
</glyph>
<glyph name="uni044C" format="2">
  <advance width="551"/>
  <unicode hex="044C"/>
  <outline>
    <contour>
      <point x="40" y="0" type="line"/>
      <point x="230" y="0" type="line"/>
      <point x="230" y="460" type="line"/>
      <point x="40" y="460" type="line"/>
    </contour>
    <contour>
      <point x="220" y="0" type="line"/>
      <point x="319" y="0" type="line" smooth="yes"/>
      <point x="445" y="0"/>
      <point x="521" y="64"/>
      <point x="521" y="170" type="curve" smooth="yes"/>
      <point x="521" y="276"/>
      <point x="444" y="341"/>
      <point x="319" y="341" type="curve" smooth="yes"/>
      <point x="220" y="341" type="line"/>
      <point x="220" y="215" type="line"/>
      <point x="277" y="215" type="line" smooth="yes"/>
      <point x="306" y="215"/>
      <point x="327" y="196"/>
      <point x="327" y="170" type="curve" smooth="yes"/>
      <point x="327" y="142"/>
      <point x="308" y="126"/>
      <point x="277" y="126" type="curve" smooth="yes"/>
      <point x="220" y="126" type="line"/>
    </contour>
  </outline>
</glyph>
<glyph name="uni044D" format="2">
  <advance width="628"/>
  <unicode hex="044D"/>
  <anchor x="308" y="540" name="top"/>
  <outline>
    <contour>
      <point x="40" y="179" type="line"/>
      <point x="56" y="62"/>
      <point x="168" y="-16"/>
      <point x="319" y="-16" type="curve" smooth="yes"/>
      <point x="482" y="-16"/>
      <point x="598" y="94"/>
      <point x="598" y="250" type="curve" smooth="yes"/>
      <point x="598" y="387"/>
      <point x="489" y="476"/>
      <point x="319" y="476" type="curve" smooth="yes"/>
      <point x="159" y="476"/>
      <point x="44" y="396"/>
      <point x="30" y="275" type="curve"/>
      <point x="234" y="275" type="line"/>
      <point x="245" y="302"/>
      <point x="275" y="320"/>
      <point x="315" y="320" type="curve" smooth="yes"/>
      <point x="369" y="320"/>
      <point x="404" y="288"/>
      <point x="404" y="241" type="curve" smooth="yes"/>
      <point x="404" y="180"/>
      <point x="365" y="140"/>
      <point x="310" y="140" type="curve" smooth="yes"/>
      <point x="275" y="140"/>
      <point x="246" y="156"/>
      <point x="234" y="179" type="curve"/>
    </contour>
    <contour>
      <point x="297" y="179" type="line"/>
      <point x="418" y="179" type="line"/>
      <point x="418" y="279" type="line"/>
      <point x="297" y="279" type="line"/>
    </contour>
  </outline>
  <guideline angle="0" x="0" y="120"/>
  <guideline angle="0" x="0" y="340"/>
</glyph>
<glyph name="uni044E" format="2">
  <advance width="817"/>
  <unicode hex="044E"/>
  <outline>
    <contour>
      <point x="40" y="0" type="line"/>
      <point x="230" y="0" type="line"/>
      <point x="230" y="150" type="line"/>
      <point x="287" y="150" type="line"/>
      <point x="287" y="310" type="line"/>
      <point x="230" y="310" type="line"/>
      <point x="230" y="460" type="line"/>
      <point x="40" y="460" type="line"/>
    </contour>
    <contour>
      <point x="264" y="231" type="curve" smooth="yes"/>
      <point x="264" y="88"/>
      <point x="354" y="-16"/>
      <point x="514" y="-16" type="curve" smooth="yes"/>
      <point x="676" y="-16"/>
      <point x="787" y="86"/>
      <point x="787" y="230" type="curve" smooth="yes"/>
      <point x="787" y="373"/>
      <point x="684" y="476"/>
      <point x="514" y="476" type="curve" smooth="yes"/>
      <point x="357" y="476"/>
      <point x="264" y="373"/>
    </contour>
    <contour>
      <point x="458" y="230" type="curve" smooth="yes"/>
      <point x="458" y="291"/>
      <point x="488" y="316"/>
      <point x="524" y="316" type="curve" smooth="yes"/>
      <point x="561" y="316"/>
      <point x="593" y="291"/>
      <point x="593" y="230" type="curve" smooth="yes"/>
      <point x="593" y="170"/>
      <point x="561" y="144"/>
      <point x="524" y="144" type="curve" smooth="yes"/>
      <point x="488" y="144"/>
      <point x="458" y="170"/>
    </contour>
  </outline>
</glyph>
<glyph name="uni044F" format="2">
  <advance width="598"/>
  <unicode hex="044F"/>
  <anchor x="319" y="540" name="top"/>
  <outline>
    <contour>
      <point x="45" y="298" type="curve" smooth="yes"/>
      <point x="45" y="194"/>
      <point x="118" y="124"/>
      <point x="228" y="124" type="curve" smooth="yes"/>
      <point x="404" y="124" type="line"/>
      <point x="404" y="260" type="line"/>
      <point x="272" y="260" type="line" smooth="yes"/>
      <point x="253" y="260"/>
      <point x="239" y="273"/>
      <point x="239" y="293" type="curve" smooth="yes"/>
      <point x="239" y="312"/>
      <point x="253" y="324"/>
      <point x="272" y="324" type="curve" smooth="yes"/>
      <point x="486" y="324" type="line"/>
      <point x="486" y="460" type="line"/>
      <point x="228" y="460" type="line" smooth="yes"/>
      <point x="118" y="460"/>
      <point x="45" y="395"/>
    </contour>
    <contour>
      <point x="37" y="0" type="line"/>
      <point x="247" y="0" type="line"/>
      <point x="359" y="160" type="line"/>
      <point x="180" y="197" type="line"/>
    </contour>
    <contour>
      <point x="368" y="0" type="line"/>
      <point x="558" y="0" type="line"/>
      <point x="558" y="460" type="line"/>
      <point x="368" y="460" type="line"/>
    </contour>
  </outline>
</glyph>
<glyph name="uni0452" format="2">
  <advance width="666"/>
  <unicode hex="0452"/>
  <anchor x="442" y="520" name="top"/>
  <outline>
    <component base="uni045B"/>
    <contour>
      <point x="234" y="-29" type="line"/>
      <point x="234" y="-130"/>
      <point x="313" y="-200"/>
      <point x="428" y="-200" type="curve" smooth="yes"/>
      <point x="562" y="-200"/>
      <point x="626" y="-139"/>
      <point x="626" y="-26" type="curve" smooth="yes"/>
      <point x="626" y="50" type="line"/>
      <point x="436" y="50" type="line"/>
      <point x="436" y="-20" type="line" smooth="yes"/>
      <point x="436" y="-52"/>
      <point x="427" y="-64"/>
      <point x="402" y="-64" type="curve" smooth="yes"/>
      <point x="379" y="-64"/>
      <point x="370" y="-50"/>
      <point x="370" y="-29" type="curve"/>
    </contour>
  </outline>
</glyph>
<glyph name="uni0454" format="2">
  <advance width="509"/>
  <unicode hex="0454"/>
  <outline>
    <contour>
      <point x="30" y="230" type="curve" smooth="yes"/>
      <point x="30" y="77"/>
      <point x="124" y="-16"/>
      <point x="279" y="-16" type="curve"/>
      <point x="279" y="140" type="line"/>
      <point x="241" y="140"/>
      <point x="224" y="168"/>
      <point x="224" y="230" type="curve" smooth="yes"/>
      <point x="224" y="294"/>
      <point x="240" y="320"/>
      <point x="279" y="320" type="curve"/>
      <point x="279" y="476" type="line"/>
      <point x="127" y="476"/>
      <point x="30" y="382"/>
    </contour>
    <contour>
      <point x="119" y="161" type="line"/>
      <point x="287" y="161" type="line"/>
      <point x="287" y="297" type="line"/>
      <point x="119" y="297" type="line"/>
    </contour>
    <contour>
      <point x="279" y="-16" type="line"/>
      <point x="395" y="-16"/>
      <point x="479" y="69"/>
      <point x="479" y="185" type="curve"/>
      <point x="319" y="185" type="line"/>
      <point x="319" y="165"/>
      <point x="300" y="140"/>
      <point x="279" y="140" type="curve"/>
    </contour>
    <contour>
      <point x="279" y="320" type="line"/>
      <point x="305" y="320"/>
      <point x="319" y="305"/>
      <point x="319" y="285" type="curve"/>
      <point x="479" y="285" type="line"/>
      <point x="479" y="400"/>
      <point x="399" y="476"/>
      <point x="279" y="476" type="curve"/>
    </contour>
  </outline>
</glyph>
<glyph name="uni045F" format="2">
  <advance width="630"/>
  <unicode hex="045F"/>
  <outline>
    <contour>
      <point x="40" y="0" type="line"/>
      <point x="238" y="0" type="line"/>
      <point x="238" y="460" type="line"/>
      <point x="40" y="460" type="line"/>
    </contour>
    <contour>
      <point x="392" y="0" type="line"/>
      <point x="590" y="0" type="line"/>
      <point x="590" y="460" type="line"/>
      <point x="392" y="460" type="line"/>
    </contour>
    <contour>
      <point x="150" y="0" type="line"/>
      <point x="472" y="0" type="line"/>
      <point x="472" y="158" type="line"/>
      <point x="150" y="158" type="line"/>
    </contour>
    <contour>
      <point x="216" y="158" type="line"/>
      <point x="216" y="-140" type="line"/>
      <point x="414" y="-140" type="line"/>
      <point x="414" y="158" type="line"/>
    </contour>
  </outline>
</glyph>
<glyph name="yatcyr" format="2">
  <advance width="589"/>
  <unicode hex="0463"/>
  <outline>
    <contour>
      <point x="61" y="0" type="line"/>
      <point x="259" y="0" type="line"/>
      <point x="259" y="680" type="line"/>
      <point x="61" y="680" type="line"/>
    </contour>
    <contour>
      <point x="171" y="0" type="line"/>
      <point x="353" y="0" type="line" smooth="yes"/>
      <point x="518" y="0"/>
      <point x="559" y="95"/>
      <point x="559" y="170" type="curve" smooth="yes"/>
      <point x="559" y="245"/>
      <point x="518" y="341"/>
      <point x="353" y="341" type="curve" smooth="yes"/>
      <point x="171" y="341" type="line"/>
      <point x="171" y="215" type="line"/>
      <point x="306" y="215" type="line" smooth="yes"/>
      <point x="339" y="215"/>
      <point x="356" y="192"/>
      <point x="356" y="170" type="curve" smooth="yes"/>
      <point x="356" y="144"/>
      <point x="339" y="126"/>
      <point x="306" y="126" type="curve" smooth="yes"/>
      <point x="171" y="126" type="line"/>
    </contour>
    <contour>
      <point x="0" y="490" type="line"/>
      <point x="413" y="490" type="line"/>
      <point x="413" y="640" type="line"/>
      <point x="0" y="640" type="line"/>
    </contour>
  </outline>
</glyph>
<glyph name="uni0466" format="2">
  <advance width="783"/>
  <unicode hex="0466"/>
  <anchor x="392" y="740" name="top"/>
  <anchor x="392" y="-50" name="bottom"/>
  <outline>
    <contour>
      <point x="199" y="125" type="line"/>
      <point x="588" y="125" type="line"/>
      <point x="588" y="285" type="line"/>
      <point x="199" y="285" type="line"/>
    </contour>
    <contour>
      <point x="10" y="0" type="line"/>
      <point x="210" y="0" type="line"/>
      <point x="343" y="345" type="line" smooth="yes"/>
      <point x="361" y="393"/>
      <point x="380" y="468"/>
      <point x="391" y="534" type="curve"/>
      <point x="385" y="530" type="line"/>
      <point x="398" y="530" type="line"/>
      <point x="393" y="534" type="line"/>
      <point x="404" y="468"/>
      <point x="422" y="393"/>
      <point x="440" y="345" type="curve" smooth="yes"/>
      <point x="573" y="0" type="line"/>
      <point x="773" y="0" type="line"/>
      <point x="510" y="680" type="line"/>
      <point x="270" y="680" type="line"/>
    </contour>
    <contour>
      <point x="301" y="0" type="line"/>
      <point x="481" y="0" type="line"/>
      <point x="481" y="155" type="line"/>
      <point x="301" y="155" type="line"/>
    </contour>
  </outline>
</glyph>
<glyph name="uni0467" format="2">
  <advance width="783"/>
  <unicode hex="0467"/>
  <anchor x="392" y="740" name="top"/>
  <anchor x="392" y="-50" name="bottom"/>
  <outline>
    <contour>
      <point x="199" y="65" type="line"/>
      <point x="588" y="65" type="line"/>
      <point x="588" y="223" type="line"/>
      <point x="199" y="223" type="line"/>
    </contour>
    <contour>
      <point x="10" y="0" type="line"/>
      <point x="210" y="0" type="line"/>
      <point x="343" y="230" type="line" smooth="yes"/>
      <point x="371" y="278"/>
      <point x="380" y="290"/>
      <point x="391" y="314" type="curve"/>
      <point x="385" y="310" type="line"/>
      <point x="398" y="310" type="line"/>
      <point x="393" y="314" type="line"/>
      <point x="404" y="290"/>
      <point x="412" y="278"/>
      <point x="440" y="230" type="curve" smooth="yes"/>
      <point x="573" y="0" type="line"/>
      <point x="773" y="0" type="line"/>
      <point x="510" y="460" type="line"/>
      <point x="270" y="460" type="line"/>
    </contour>
    <contour>
      <point x="301" y="0" type="line"/>
      <point x="481" y="0" type="line"/>
      <point x="481" y="95" type="line"/>
      <point x="301" y="95" type="line"/>
    </contour>
  </outline>
</glyph>
<glyph name="uni0468" format="2">
  <advance width="1053"/>
  <unicode hex="0468"/>
  <outline>
    <contour>
      <point x="50" y="0" type="line"/>
      <point x="248" y="0" type="line"/>
      <point x="248" y="680" type="line"/>
      <point x="50" y="680" type="line"/>
    </contour>
    <contour>
      <point x="155" y="125" type="line"/>
      <point x="447" y="125" type="line"/>
      <point x="447" y="285" type="line"/>
      <point x="155" y="285" type="line"/>
    </contour>
    <contour>
      <point x="469" y="125" type="line"/>
      <point x="858" y="125" type="line"/>
      <point x="858" y="285" type="line"/>
      <point x="469" y="285" type="line"/>
    </contour>
    <contour>
      <point x="280" y="0" type="line"/>
      <point x="480" y="0" type="line"/>
      <point x="613" y="345" type="line" smooth="yes"/>
      <point x="631" y="393"/>
      <point x="650" y="468"/>
      <point x="661" y="534" type="curve"/>
      <point x="655" y="530" type="line"/>
      <point x="668" y="530" type="line"/>
      <point x="663" y="534" type="line"/>
      <point x="674" y="468"/>
      <point x="692" y="393"/>
      <point x="710" y="345" type="curve" smooth="yes"/>
      <point x="843" y="0" type="line"/>
      <point x="1043" y="0" type="line"/>
      <point x="780" y="680" type="line"/>
      <point x="540" y="680" type="line"/>
    </contour>
    <contour>
      <point x="571" y="0" type="line"/>
      <point x="751" y="0" type="line"/>
      <point x="751" y="155" type="line"/>
      <point x="571" y="155" type="line"/>
    </contour>
  </outline>
</glyph>
<glyph name="uni0469" format="2">
  <advance width="1025"/>
  <unicode hex="0469"/>
  <outline>
    <contour>
      <point x="40" y="0" type="line"/>
      <point x="230" y="0" type="line"/>
      <point x="230" y="460" type="line"/>
      <point x="40" y="460" type="line"/>
    </contour>
    <contour>
      <point x="109" y="65" type="line"/>
      <point x="416" y="65" type="line"/>
      <point x="416" y="223" type="line"/>
      <point x="109" y="223" type="line"/>
    </contour>
    <contour>
      <point x="441" y="65" type="line"/>
      <point x="830" y="65" type="line"/>
      <point x="830" y="223" type="line"/>
      <point x="441" y="223" type="line"/>
    </contour>
    <contour>
      <point x="252" y="0" type="line"/>
      <point x="452" y="0" type="line"/>
      <point x="585" y="230" type="line" smooth="yes"/>
      <point x="613" y="278"/>
      <point x="622" y="290"/>
      <point x="633" y="314" type="curve"/>
      <point x="627" y="310" type="line"/>
      <point x="640" y="310" type="line"/>
      <point x="635" y="314" type="line"/>
      <point x="646" y="290"/>
      <point x="654" y="278"/>
      <point x="682" y="230" type="curve" smooth="yes"/>
      <point x="815" y="0" type="line"/>
      <point x="1015" y="0" type="line"/>
      <point x="752" y="460" type="line"/>
      <point x="512" y="460" type="line"/>
    </contour>
    <contour>
      <point x="543" y="0" type="line"/>
      <point x="723" y="0" type="line"/>
      <point x="723" y="95" type="line"/>
      <point x="543" y="95" type="line"/>
    </contour>
  </outline>
</glyph>
<glyph name="uni046A" format="2">
  <advance width="1290"/>
  <unicode hex="046A"/>
  <outline>
    <contour>
      <point x="546" y="0" type="line"/>
      <point x="744" y="0" type="line"/>
      <point x="744" y="421" type="line"/>
      <point x="546" y="421" type="line"/>
    </contour>
    <contour>
      <point x="614" y="261" type="line"/>
      <point x="744" y="261" type="line"/>
      <point x="1084" y="500" type="line"/>
      <point x="1084" y="680" type="line"/>
      <point x="825" y="680" type="line"/>
      <point x="825" y="519" type="line"/>
      <point x="657" y="410" type="line"/>
      <point x="709" y="421" type="line"/>
      <point x="614" y="421" type="line"/>
    </contour>
    <contour>
      <point x="730" y="300" type="line"/>
      <point x="910" y="275"/>
      <point x="1051" y="155"/>
      <point x="1082" y="0" type="curve"/>
      <point x="1280" y="0" type="line"/>
      <point x="1228" y="210"/>
      <point x="1061" y="373"/>
      <point x="862" y="406" type="curve"/>
    </contour>
    <contour>
      <point x="546" y="261" type="line"/>
      <point x="686" y="261" type="line"/>
      <point x="686" y="421" type="line"/>
      <point x="591" y="421" type="line"/>
      <point x="643" y="410" type="line"/>
      <point x="478" y="520" type="line"/>
      <point x="478" y="680" type="line"/>
      <point x="208" y="680" type="line"/>
      <point x="208" y="500" type="line"/>
    </contour>
    <contour>
      <point x="10" y="0" type="curve"/>
      <point x="208" y="0" type="line"/>
      <point x="239" y="154"/>
      <point x="384" y="274"/>
      <point x="570" y="300" type="curve"/>
      <point x="438" y="406" type="line"/>
      <point x="233" y="372"/>
      <point x="62" y="209"/>
    </contour>
    <contour>
      <point x="356" y="520" type="line"/>
      <point x="942" y="520" type="line"/>
      <point x="942" y="680" type="line"/>
      <point x="356" y="680" type="line"/>
    </contour>
  </outline>
  <guideline angle="90" x="39" y="0"/>
  <guideline angle="90" x="28" y="0"/>
  <guideline angle="0" x="0" y="520"/>
  <guideline angle="90" x="546" y="0"/>
  <guideline angle="90" x="629" y="0"/>
  <guideline angle="90" x="650" y="0"/>
  <guideline angle="90" x="546" y="0"/>
  <guideline angle="90" x="744" y="0"/>
  <guideline angle="90" x="415" y="0"/>
</glyph>
<glyph name="uni046B" format="2">
  <advance width="1118"/>
  <unicode hex="046B"/>
  <outline>
    <contour>
      <point x="464" y="0" type="line"/>
      <point x="654" y="0" type="line"/>
      <point x="654" y="237" type="line"/>
      <point x="464" y="237" type="line"/>
    </contour>
    <contour>
      <point x="534" y="119" type="line"/>
      <point x="637" y="119" type="line"/>
      <point x="953" y="320" type="line"/>
      <point x="953" y="460" type="line"/>
      <point x="712" y="460" type="line"/>
      <point x="712" y="334" type="line"/>
      <point x="549" y="227" type="line"/>
      <point x="575" y="237" type="line"/>
      <point x="534" y="237" type="line"/>
    </contour>
    <contour>
      <point x="547" y="127" type="line"/>
      <point x="728" y="113"/>
      <point x="850.5" y="68"/>
      <point x="908" y="0" type="curve"/>
      <point x="1108" y="0" type="line"/>
      <point x="1061" y="107"/>
      <point x="897" y="198"/>
      <point x="698" y="228" type="curve"/>
    </contour>
    <contour>
      <point x="481" y="119" type="line"/>
      <point x="584" y="119" type="line"/>
      <point x="584" y="237" type="line"/>
      <point x="521" y="237" type="line"/>
      <point x="569" y="227" type="line"/>
      <point x="405" y="334" type="line"/>
      <point x="405" y="460" type="line"/>
      <point x="168" y="460" type="line"/>
      <point x="168" y="320" type="line"/>
    </contour>
    <contour>
      <point x="10" y="0" type="curve"/>
      <point x="210" y="0" type="line"/>
      <point x="267.5" y="71"/>
      <point x="390" y="115"/>
      <point x="571" y="127" type="curve"/>
      <point x="420" y="228" type="line"/>
      <point x="220" y="191"/>
      <point x="56" y="100"/>
    </contour>
    <contour>
      <point x="259" y="334" type="line"/>
      <point x="851" y="334" type="line"/>
      <point x="851" y="460" type="line"/>
      <point x="259" y="460" type="line"/>
    </contour>
  </outline>
  <guideline angle="0" x="0" y="253"/>
  <guideline angle="0" x="0" y="204"/>
</glyph>
<glyph name="uni046C" format="2">
  <advance width="1550"/>
  <unicode hex="046C"/>
  <outline>
    <contour>
      <point x="50" y="0" type="line"/>
      <point x="248" y="0" type="line"/>
      <point x="248" y="680" type="line"/>
      <point x="50" y="680" type="line"/>
    </contour>
    <contour>
      <point x="155" y="261" type="line"/>
      <point x="907" y="261" type="line"/>
      <point x="907" y="421" type="line"/>
      <point x="155" y="421" type="line"/>
    </contour>
    <contour>
      <point x="806" y="0" type="line"/>
      <point x="1004" y="0" type="line"/>
      <point x="1004" y="421" type="line"/>
      <point x="806" y="421" type="line"/>
    </contour>
    <contour>
      <point x="874" y="261" type="line"/>
      <point x="1004" y="261" type="line"/>
      <point x="1344" y="500" type="line"/>
      <point x="1344" y="680" type="line"/>
      <point x="1085" y="680" type="line"/>
      <point x="1085" y="519" type="line"/>
      <point x="917" y="410" type="line"/>
      <point x="969" y="421" type="line"/>
      <point x="874" y="421" type="line"/>
    </contour>
    <contour>
      <point x="990" y="300" type="line"/>
      <point x="1170" y="275"/>
      <point x="1311" y="155"/>
      <point x="1342" y="0" type="curve"/>
      <point x="1540" y="0" type="line"/>
      <point x="1488" y="210"/>
      <point x="1321" y="373"/>
      <point x="1122" y="406" type="curve"/>
    </contour>
    <contour>
      <point x="806" y="261" type="line"/>
      <point x="946" y="261" type="line"/>
      <point x="946" y="421" type="line"/>
      <point x="851" y="421" type="line"/>
      <point x="903" y="410" type="line"/>
      <point x="738" y="520" type="line"/>
      <point x="738" y="680" type="line"/>
      <point x="468" y="680" type="line"/>
      <point x="468" y="500" type="line"/>
    </contour>
    <contour>
      <point x="270" y="0" type="curve"/>
      <point x="468" y="0" type="line"/>
      <point x="499" y="154"/>
      <point x="644" y="274"/>
      <point x="830" y="300" type="curve"/>
      <point x="698" y="406" type="line"/>
      <point x="493" y="372"/>
      <point x="322" y="209"/>
    </contour>
    <contour>
      <point x="616" y="520" type="line"/>
      <point x="1202" y="520" type="line"/>
      <point x="1202" y="680" type="line"/>
      <point x="616" y="680" type="line"/>
    </contour>
  </outline>
</glyph>
<glyph name="uni046D" format="2">
  <advance width="1368"/>
  <unicode hex="046D"/>
  <outline>
    <component base="uni046B" xOffset="250"/>
    <contour>
      <point x="40" y="0" type="line"/>
      <point x="230" y="0" type="line"/>
      <point x="230" y="460" type="line"/>
      <point x="40" y="460" type="line"/>
    </contour>
    <contour>
      <point x="109" y="119" type="line"/>
      <point x="816" y="119" type="line"/>
      <point x="816" y="237" type="line"/>
      <point x="109" y="237" type="line"/>
    </contour>
  </outline>
</glyph>
